<svg id="Layer_1" data-name="Layer 1" xmlns="http://www.w3.org/2000/svg" viewBox="0 0 496 296"><defs><style>.cls-1{fill:#bc043d;}.cls-2{fill:#9b053b;}.cls-3{fill:#d3dddd;}.cls-4{fill:#db0940;}.cls-5{fill:#e1eaea;}.cls-6{fill:#c9d3d3;}.cls-7{fill:#adc4c3;}.cls-8{fill:#203547;}.cls-9{fill:#122130;}.cls-10{fill:#6e7577;}.cls-11{fill:#4c5456;}.cls-12{fill:#ced8dd;}.cls-13{fill:#b2bbc1;}.cls-14{fill:#888f91;opacity:0.2;isolation:isolate;}.cls-15{fill:#e7eff2;}.cls-16{fill:#dae6ea;}.cls-17{fill:#666e70;}.cls-18{fill:#535a5b;}.cls-19{fill:#51859b;}.cls-20{fill:#81b6c9;}.cls-21{fill:#8e8e8e;}.cls-22{fill:#ddeded;}.cls-23{fill:#ffa300;}.cls-24{fill:#ff7300;}.cls-25{fill:#1264b5;}</style></defs><title>ambulance</title><path class="cls-1" d="M264.8,108.8a7.17,7.17,0,0,1,7.2-7.2h66.4a7.17,7.17,0,0,1,7.2,7.2l7.2,19.2c0,4.8-11.2,8-15.2,8H272c-4,0-15.2-4-15.2-8Z" transform="translate(0 -100)"/><path class="cls-2" d="M272,136h65.6c4,0,15.2-4,15.2-8L344,108.8v-1.6H264v1.6L256.8,128C256.8,132.8,268,136,272,136Z" transform="translate(0 -100)"/><path class="cls-3" d="M297.6,102.4A2.55,2.55,0,0,1,300,100h12a2.55,2.55,0,0,1,2.4,2.4l4,20.8a2.55,2.55,0,0,1-2.4,2.4H295.2a2.55,2.55,0,0,1-2.4-2.4Z" transform="translate(0 -100)"/><path class="cls-4" d="M476.8,283.2a7.56,7.56,0,0,1,8-8h0a7.56,7.56,0,0,1,8,8v36a7.56,7.56,0,0,1-8,8h0c-4,0-8,.8-8-4Z" transform="translate(0 -100)"/><path class="cls-1" d="M484.8,327.2h0c-4,0-8,.8-8-4v-40a7.56,7.56,0,0,1,8-8h0" transform="translate(0 -100)"/><path class="cls-5" d="M24,257.6a16,16,0,0,1,16-16H83.2a16,16,0,0,1,16,16V268a16,16,0,0,1-16,16H40a16,16,0,0,1-16-16Z" transform="translate(0 -100)"/><path class="cls-5" d="M119.2,136.8A16.4,16.4,0,0,1,136,120H457.6a16.9,16.9,0,0,1,16.8,16.8V164a16.4,16.4,0,0,1-16.8,16.8H136A16.4,16.4,0,0,1,119.2,164Z" transform="translate(0 -100)"/><path class="cls-3" d="M4,339.2a12.3,12.3,0,0,0,12,12H477.6a12.3,12.3,0,0,0,12-12V260.8c0-5.6-4-9.6-8.8-11.2V152.8c0-5.6-2.4-9.6-6.4-12.8-.8-8.8-15.2-6.4-24-6.4L136,124.8c-7.2,0-13.6,5.6-16,12h-2.4a16,16,0,0,0-16,16l-42.4,96H24a12.3,12.3,0,0,0-12,12Z" transform="translate(0 -100)"/><path class="cls-6" d="M7.2,347.2a12.85,12.85,0,0,0,8.8,4H477.6a12.3,12.3,0,0,0,12-12V276H10.4L7.2,306.4Z" transform="translate(0 -100)"/><path class="cls-7" d="M0,350.4a7.56,7.56,0,0,1,8-8H488a7.56,7.56,0,0,1,8,8v4.8a7.56,7.56,0,0,1-8,8H8a7.56,7.56,0,0,1-8-8Z" transform="translate(0 -100)"/><path d="M347.2,348.8a49.6,49.6,0,1,1,99.2,0" transform="translate(0 -100)"/><path class="cls-7" d="M396.8,296.8a51.9,51.9,0,0,1,52,52h-4a48,48,0,0,0-96,0h-4C344.8,320.8,368,296.8,396.8,296.8Z" transform="translate(0 -100)"/><circle class="cls-8" cx="396.8" cy="251.2" r="44.8"/><path class="cls-9" d="M428,382.4a44.69,44.69,0,0,1-63.2-63.2" transform="translate(0 -100)"/><circle class="cls-10" cx="396.8" cy="251.2" r="28"/><path class="cls-11" d="M416.8,371.2a28.28,28.28,0,0,1-40-40" transform="translate(0 -100)"/><circle class="cls-12" cx="396.8" cy="251.2" r="24.8"/><path class="cls-13" d="M414.4,368.8a24.89,24.89,0,0,1-35.2-35.2" transform="translate(0 -100)"/><path class="cls-14" d="M396.8,340A10.94,10.94,0,0,1,408,351.2c0,6.4-4.8,13.6-11.2,13.6s-11.2-7.2-11.2-13.6S390.4,339.2,396.8,340Z" transform="translate(0 -100)"/><circle class="cls-15" cx="396.8" cy="251.2" r="11.2"/><path class="cls-16" d="M396.8,361.6a11.2,11.2,0,0,1,0-22.4" transform="translate(0 -100)"/><path class="cls-17" d="M393.6,326.4c0,4,1.6,6.4,3.2,6.4s2.4-3.2,3.2-6.4h-6.4Z" transform="translate(0 -100)"/><path class="cls-18" d="M396.8,326.4h-3.2c0,4,1.6,6.4,3.2,6.4" transform="translate(0 -100)"/><path class="cls-17" d="M396.8,368.8c-1.6,0-2.4,3.2-3.2,6.4H400C399.2,372,398.4,369.6,396.8,368.8Z" transform="translate(0 -100)"/><path class="cls-18" d="M396.8,368.8c-1.6,0-2.4,3.2-3.2,6.4" transform="translate(0 -100)"/><path class="cls-17" d="M411.2,331.2c-1.6,2.4-2.4,5.6-1.6,6.4.8,1.6,3.2.8,6.4-1.6A13.58,13.58,0,0,0,411.2,331.2Z" transform="translate(0 -100)"/><path class="cls-18" d="M411.2,332c-1.6,2.4-2.4,5.6-1.6,6.4" transform="translate(0 -100)"/><path class="cls-17" d="M379.2,368l2.4,2.4c1.6-2.4,2.4-5.6,1.6-6.4-.8-1.6-3.2-.8-6.4,1.6Q378,368,379.2,368Z" transform="translate(0 -100)"/><path class="cls-18" d="M383.2,364.8c-.8-1.6-3.2-.8-6.4,1.6l2.4,2.4" transform="translate(0 -100)"/><path class="cls-17" d="M420.8,351.2V348c-4,0-6.4,1.6-6.4,3.2s3.2,2.4,6.4,3.2A2.43,2.43,0,0,0,420.8,351.2Z" transform="translate(0 -100)"/><path class="cls-18" d="M421.6,351.2V348c-4,0-6.4,1.6-6.4,3.2" transform="translate(0 -100)"/><path class="cls-17" d="M372,348v6.4c4,0,6.4-1.6,6.4-3.2S376,348,372,348Z" transform="translate(0 -100)"/><path class="cls-18" d="M378.4,351.2c0-1.6-3.2-2.4-6.4-3.2" transform="translate(0 -100)"/><path class="cls-17" d="M409.6,364c-1.6.8-.8,3.2,1.6,6.4l4.8-4.8C413.6,364,410.4,363.2,409.6,364Z" transform="translate(0 -100)"/><path class="cls-18" d="M410.4,364c-1.6.8-.8,3.2,1.6,6.4" transform="translate(0 -100)"/><path class="cls-17" d="M376.8,336c2.4,1.6,5.6,2.4,6.4,1.6,1.6-.8.8-3.2-1.6-6.4Z" transform="translate(0 -100)"/><path class="cls-18" d="M383.2,337.6c1.6-.8.8-3.2-1.6-6.4" transform="translate(0 -100)"/><path d="M52.8,348.8a49.6,49.6,0,0,1,99.2,0" transform="translate(0 -100)"/><path class="cls-7" d="M102.4,296.8a51.9,51.9,0,0,1,52,52h-4a48,48,0,0,0-96,0h-4C50.4,320.8,73.6,296.8,102.4,296.8Z" transform="translate(0 -100)"/><circle class="cls-8" cx="101.6" cy="251.2" r="44.8"/><path class="cls-9" d="M133.6,382.4a44.69,44.69,0,1,1-63.2-63.2" transform="translate(0 -100)"/><circle class="cls-10" cx="101.6" cy="251.2" r="28"/><path class="cls-11" d="M122.4,371.2a28.28,28.28,0,0,1-40-40" transform="translate(0 -100)"/><circle class="cls-12" cx="101.6" cy="251.2" r="24.8"/><path class="cls-13" d="M120,368.8a24.89,24.89,0,0,1-35.2-35.2" transform="translate(0 -100)"/><path class="cls-14" d="M101.6,340a10.94,10.94,0,0,1,11.2,11.2c0,6.4-4.8,13.6-11.2,13.6s-11.2-7.2-11.2-13.6A10.94,10.94,0,0,1,101.6,340Z" transform="translate(0 -100)"/><circle class="cls-15" cx="101.6" cy="251.2" r="11.2"/><path class="cls-16" d="M101.6,361.6a11.2,11.2,0,1,1,0-22.4" transform="translate(0 -100)"/><path class="cls-17" d="M98.4,326.4c0,4,1.6,6.4,3.2,6.4s2.4-3.2,3.2-6.4H98.4Z" transform="translate(0 -100)"/><path class="cls-18" d="M101.6,326.4H98.4c0,4,1.6,6.4,3.2,6.4" transform="translate(0 -100)"/><path class="cls-17" d="M102.4,368.8c-1.6,0-2.4,3.2-3.2,6.4h6.4A15.32,15.32,0,0,0,102.4,368.8Z" transform="translate(0 -100)"/><path class="cls-18" d="M101.6,368.8c-1.6,0-2.4,3.2-3.2,6.4" transform="translate(0 -100)"/><path class="cls-17" d="M116.8,331.2c-1.6,2.4-2.4,5.6-1.6,6.4.8,1.6,3.2.8,6.4-1.6Z" transform="translate(0 -100)"/><path class="cls-18" d="M116.8,332c-1.6,2.4-2.4,5.6-1.6,6.4" transform="translate(0 -100)"/><path class="cls-17" d="M84.8,368l2.4,2.4c1.6-2.4,2.4-5.6,1.6-6.4-.8-1.6-3.2-.8-6.4,1.6Q83.6,368,84.8,368Z" transform="translate(0 -100)"/><path class="cls-18" d="M88.8,364.8c-.8-1.6-3.2-.8-6.4,1.6l2.4,2.4" transform="translate(0 -100)"/><path class="cls-17" d="M126.4,351.2V348c-4,0-6.4,1.6-6.4,3.2s3.2,2.4,6.4,3.2Z" transform="translate(0 -100)"/><path class="cls-18" d="M126.4,351.2V348c-4,0-6.4,1.6-6.4,3.2" transform="translate(0 -100)"/><path class="cls-17" d="M77.6,348v6.4c4,0,6.4-1.6,6.4-3.2S80.8,348,77.6,348Z" transform="translate(0 -100)"/><path class="cls-18" d="M84,351.2c0-1.6-3.2-2.4-6.4-3.2" transform="translate(0 -100)"/><path class="cls-17" d="M115.2,364c-1.6.8-.8,3.2,1.6,6.4l4.8-4.8C118.4,364,116,363.2,115.2,364Z" transform="translate(0 -100)"/><path class="cls-18" d="M115.2,364c-1.6.8-.8,3.2,1.6,6.4" transform="translate(0 -100)"/><path class="cls-17" d="M82.4,336c2.4,1.6,5.6,2.4,6.4,1.6,1.6-.8.8-3.2-1.6-6.4Z" transform="translate(0 -100)"/><path class="cls-18" d="M88.8,337.6c1.6-.8.8-3.2-1.6-6.4" transform="translate(0 -100)"/><path class="cls-19" d="M64.8,241.6H184a8.88,8.88,0,0,0,8.8-8.8V165.6a8.88,8.88,0,0,0-8.8-8.8H99.2l-36.8,84A2.94,2.94,0,0,0,64.8,241.6Z" transform="translate(0 -100)"/><polygon class="cls-20" points="193.6 96 193.6 72.8 177.6 56.8 154.4 56.8 193.6 96"/><path class="cls-20" d="M73.6,215.2,62.4,240.8a2.94,2.94,0,0,0,2.4.8H100Z" transform="translate(0 -100)"/><path class="cls-3" d="M123.2,141.6a4.55,4.55,0,0,1,5.6-3.2h0A4.55,4.55,0,0,1,132,144L104.8,249.6a4.55,4.55,0,0,1-5.6,3.2h0a4.55,4.55,0,0,1-3.2-5.6Z" transform="translate(0 -100)"/><path class="cls-21" d="M170.4,261.6A5.47,5.47,0,0,1,176,256h12.8a5.47,5.47,0,0,1,5.6,5.6h0a5.47,5.47,0,0,1-5.6,5.6H176a5.47,5.47,0,0,1-5.6-5.6Z" transform="translate(0 -100)"/><path class="cls-22" d="M319.2,311.2a1.72,1.72,0,0,1,1.6-1.6h10.4a1.72,1.72,0,0,1,1.6,1.6h0a1.72,1.72,0,0,1-1.6,1.6H320.8a1.72,1.72,0,0,1-1.6-1.6Z" transform="translate(0 -100)"/><path class="cls-22" d="M319.2,320c0-1.6.8-1.6,1.6-1.6h10.4a1.72,1.72,0,0,1,1.6,1.6h0a1.72,1.72,0,0,1-1.6,1.6H320.8a1.72,1.72,0,0,1-1.6-1.6Z" transform="translate(0 -100)"/><path class="cls-22" d="M319.2,328a1.72,1.72,0,0,1,1.6-1.6h10.4a1.72,1.72,0,0,1,1.6,1.6h0a1.72,1.72,0,0,1-1.6,1.6H320.8a1.72,1.72,0,0,1-1.6-1.6Z" transform="translate(0 -100)"/><path class="cls-23" d="M7.2,281.6a6.31,6.31,0,0,1,6.4-6.4h0a6.31,6.31,0,0,1,6.4,6.4v32.8a6.31,6.31,0,0,1-6.4,6.4h0a6.31,6.31,0,0,1-6.4-6.4Z" transform="translate(0 -100)"/><path class="cls-24" d="M14.4,276h0a6.31,6.31,0,0,1,6.4,6.4v32.8a6.31,6.31,0,0,1-6.4,6.4h0" transform="translate(0 -100)"/><path id="SVGCleanerId_0" data-name="SVGCleanerId 0" class="cls-1" d="M331.2,213.6v12.8a12.3,12.3,0,0,0,12,12h30.4v30.4a12.3,12.3,0,0,0,12,12h12.8a12.3,12.3,0,0,0,12-12V238.4h30.4a12.3,12.3,0,0,0,12-12V213.6a12.3,12.3,0,0,0-12-12H412V171.2a12.3,12.3,0,0,0-12-12H387.2a12.3,12.3,0,0,0-12,12v30.4H344.8C338.4,201.6,332.8,206.4,331.2,213.6Z" transform="translate(0 -100)"/><path id="SVGCleanerId_0-2" data-name="SVGCleanerId 0" class="cls-25" d="M331.2,213.6v12.8a12.3,12.3,0,0,0,12,12h30.4v30.4a12.3,12.3,0,0,0,12,12h12.8a12.3,12.3,0,0,0,12-12V238.4h30.4a12.3,12.3,0,0,0,12-12V213.6a12.3,12.3,0,0,0-12-12H412V171.2a12.3,12.3,0,0,0-12-12H387.2a12.3,12.3,0,0,0-12,12v30.4H344.8C338.4,201.6,332.8,206.4,331.2,213.6Z" transform="translate(0 -100)"/></svg>