<svg xmlns="http://www.w3.org/2000/svg" viewBox="0 0 30.16 18"><defs><style>.cls-1{fill:#bc043d;}.cls-2{fill:#9b053b;}.cls-3{fill:#d3dddd;}.cls-4{fill:#db0940;}.cls-5{fill:#ffdc48;}.cls-6{fill:#ffed6c;}.cls-7{fill:#fff471;}.cls-8{fill:#ffc655;}.cls-9{fill:#adc4c3;}.cls-10{fill:#203547;}.cls-11{fill:#122130;}.cls-12{fill:#6e7577;}.cls-13{fill:#4c5456;}.cls-14{fill:#ced8dd;}.cls-15{fill:#b2bbc1;}.cls-16{fill:#888f91;opacity:0.2;isolation:isolate;}.cls-17{fill:#e7eff2;}.cls-18{fill:#dae6ea;}.cls-19{fill:#666e70;}.cls-20{fill:#535a5b;}.cls-21{fill:#51859b;}.cls-22{fill:#81b6c9;}.cls-23{fill:#8e8e8e;}.cls-24{fill:#ddeded;}.cls-25{fill:#ffa300;}.cls-26{fill:#ff7300;}.cls-27{fill:#1264b5;}</style></defs><title>Asset 2</title><g id="Layer_2" data-name="Layer 2"><g id="ICONS"><path class="cls-1" d="M16.1.54A.44.44,0,0,1,16.54.1h4A.44.44,0,0,1,21,.54l.44,1.17c0,.29-.68.49-.92.49h-4c-.24,0-.92-.24-.92-.49Z"/><path class="cls-2" d="M16.54,2.19h4c.24,0,.92-.24.92-.49L20.92.54V.44H16.05v.1L15.62,1.7C15.62,2,16.3,2.19,16.54,2.19Z"/><path class="cls-3" d="M18.1.15A.16.16,0,0,1,18.24,0H19a.16.16,0,0,1,.15.15l.24,1.26a.16.16,0,0,1-.15.15H18a.16.16,0,0,1-.15-.15Z"/><path class="cls-4" d="M29,11.14a.46.46,0,0,1,.49-.49h0a.46.46,0,0,1,.49.49v2.19a.46.46,0,0,1-.49.49h0c-.24,0-.49,0-.49-.24Z"/><path class="cls-1" d="M29.48,13.82h0c-.24,0-.49,0-.49-.24V11.14a.46.46,0,0,1,.49-.49h0"/><path class="cls-5" d="M1.46,9.58a1,1,0,0,1,1-1H5.06a1,1,0,0,1,1,1v.63a1,1,0,0,1-1,1H2.43a1,1,0,0,1-1-1Z"/><path class="cls-5" d="M7.25,2.24a1,1,0,0,1,1-1H27.83a1,1,0,0,1,1,1V3.89a1,1,0,0,1-1,1H8.27a1,1,0,0,1-1-1Z"/><path class="cls-6" d="M.24,14.55a.75.75,0,0,0,.73.73H29a.75.75,0,0,0,.73-.73V9.78a.73.73,0,0,0-.54-.68V3.21a1,1,0,0,0-.39-.78c0-.54-.92-.39-1.46-.39L8.27,1.51a1.1,1.1,0,0,0-1,.73H7.15a1,1,0,0,0-1,1L3.6,9H1.46a.75.75,0,0,0-.73.73Z"/><path class="cls-7" d="M.44,15a.78.78,0,0,0,.54.24H29a.75.75,0,0,0,.73-.73V10.7H.63L.44,12.55Z"/><path class="cls-8" d="M0,15.23a.46.46,0,0,1,.49-.49H29.68a.46.46,0,0,1,.49.49v.29a.46.46,0,0,1-.49.49H.49A.46.46,0,0,1,0,15.52Z"/><path d="M21.11,15.13a3,3,0,1,1,6,0"/><path class="cls-9" d="M24.13,12a3.16,3.16,0,0,1,3.16,3.16H27a2.92,2.92,0,0,0-5.84,0H21A3.19,3.19,0,0,1,24.13,12Z"/><circle class="cls-10" cx="24.13" cy="15.28" r="2.72"/><path class="cls-11" d="M26,17.17a2.72,2.72,0,0,1-3.84-3.84"/><circle class="cls-12" cx="24.13" cy="15.28" r="1.7"/><path class="cls-13" d="M25.35,16.49a1.72,1.72,0,0,1-2.43-2.43"/><circle class="cls-14" cx="24.13" cy="15.28" r="1.51"/><path class="cls-15" d="M25.2,16.35a1.51,1.51,0,0,1-2.14-2.14"/><path class="cls-16" d="M24.13,14.59a.67.67,0,0,1,.68.68.69.69,0,1,1-1.36,0A.64.64,0,0,1,24.13,14.59Z"/><circle class="cls-17" cx="24.13" cy="15.28" r="0.68"/><path class="cls-18" d="M24.13,15.91a.68.68,0,1,1,0-1.36"/><path class="cls-19" d="M23.94,13.77c0,.24.1.39.19.39s.15-.19.19-.39h-.39Z"/><path class="cls-20" d="M24.13,13.77h-.19c0,.24.1.39.19.39"/><path class="cls-19" d="M24.13,16.35c-.1,0-.15.19-.19.39h.39C24.28,16.54,24.23,16.39,24.13,16.35Z"/><path class="cls-20" d="M24.13,16.35c-.1,0-.15.19-.19.39"/><path class="cls-19" d="M25,14.06c-.1.15-.15.34-.1.39s.19,0,.39-.1A.83.83,0,0,0,25,14.06Z"/><path class="cls-20" d="M25,14.11c-.1.15-.15.34-.1.39"/><path class="cls-19" d="M23.06,16.3l.15.15c.1-.15.15-.34.1-.39s-.19,0-.39.1Q23,16.3,23.06,16.3Z"/><path class="cls-20" d="M23.3,16.1c0-.1-.19,0-.39.1l.15.15"/><path class="cls-19" d="M25.59,15.28v-.19c-.24,0-.39.1-.39.19s.19.15.39.19A.15.15,0,0,0,25.59,15.28Z"/><path class="cls-20" d="M25.64,15.28v-.19c-.24,0-.39.1-.39.19"/><path class="cls-19" d="M22.62,15.08v.39c.24,0,.39-.1.39-.19S22.86,15.08,22.62,15.08Z"/><path class="cls-20" d="M23,15.28c0-.1-.19-.15-.39-.19"/><path class="cls-19" d="M24.91,16.05c-.1,0,0,.19.1.39l.29-.29C25.15,16.05,25,16,24.91,16.05Z"/><path class="cls-20" d="M25,16.05c-.1,0,0,.19.1.39"/><path class="cls-19" d="M22.91,14.35c.15.1.34.15.39.1s0-.19-.1-.39Z"/><path class="cls-20" d="M23.3,14.45c.1,0,0-.19-.1-.39"/><path d="M3.21,15.13a3,3,0,1,1,6,0"/><path class="cls-9" d="M6.23,12a3.16,3.16,0,0,1,3.16,3.16H9.15a2.92,2.92,0,1,0-5.84,0H3.06A3.19,3.19,0,0,1,6.23,12Z"/><circle class="cls-10" cx="6.18" cy="15.28" r="2.72"/><path class="cls-11" d="M8.12,17.17a2.72,2.72,0,0,1-3.84-3.84"/><circle class="cls-12" cx="6.18" cy="15.28" r="1.7"/><path class="cls-13" d="M7.44,16.49A1.72,1.72,0,0,1,5,14.06"/><circle class="cls-14" cx="6.18" cy="15.28" r="1.51"/><path class="cls-15" d="M7.3,16.35a1.51,1.51,0,0,1-2.14-2.14"/><path class="cls-16" d="M6.18,14.59a.67.67,0,0,1,.68.68.8.8,0,0,1-.68.83.8.8,0,0,1-.68-.83A.67.67,0,0,1,6.18,14.59Z"/><circle class="cls-17" cx="6.18" cy="15.28" r="0.68"/><path class="cls-18" d="M6.18,15.91a.68.68,0,0,1,0-1.36"/><path class="cls-19" d="M6,13.77c0,.24.1.39.19.39s.15-.19.19-.39H6Z"/><path class="cls-20" d="M6.18,13.77H6c0,.24.1.39.19.39"/><path class="cls-19" d="M6.23,16.35c-.1,0-.15.19-.19.39h.39A.93.93,0,0,0,6.23,16.35Z"/><path class="cls-20" d="M6.18,16.35c-.1,0-.15.19-.19.39"/><path class="cls-19" d="M7.1,14.06c-.1.15-.15.34-.1.39s.19,0,.39-.1Z"/><path class="cls-20" d="M7.1,14.11c-.1.15-.15.34-.1.39"/><path class="cls-19" d="M5.16,16.3l.15.15c.1-.15.15-.34.1-.39s-.19,0-.39.1Q5.08,16.3,5.16,16.3Z"/><path class="cls-20" d="M5.4,16.1c0-.1-.19,0-.39.1l.15.15"/><path class="cls-19" d="M7.69,15.28v-.19c-.24,0-.39.1-.39.19s.19.15.39.19Z"/><path class="cls-20" d="M7.69,15.28v-.19c-.24,0-.39.1-.39.19"/><path class="cls-19" d="M4.72,15.08v.39c.24,0,.39-.1.39-.19S4.91,15.08,4.72,15.08Z"/><path class="cls-20" d="M5.11,15.28c0-.1-.19-.15-.39-.19"/><path class="cls-19" d="M7,16.05c-.1,0,0,.19.1.39l.29-.29C7.2,16.05,7.05,16,7,16.05Z"/><path class="cls-20" d="M7,16.05c-.1,0,0,.19.1.39"/><path class="cls-19" d="M5,14.35c.15.1.34.15.39.1s0-.19-.1-.39Z"/><path class="cls-20" d="M5.4,14.45c.1,0,0-.19-.1-.39"/><path class="cls-21" d="M3.94,8.61h7.25a.54.54,0,0,0,.54-.54V4a.54.54,0,0,0-.54-.54H6L3.79,8.56A.18.18,0,0,0,3.94,8.61Z"/><polygon class="cls-22" points="11.77 5.84 11.77 4.43 10.8 3.45 9.39 3.45 11.77 5.84"/><path class="cls-22" d="M4.48,7,3.79,8.56a.18.18,0,0,0,.15,0H6.08Z"/><path class="cls-3" d="M7.46,3.61a.2.2,0,0,1,.25-.14h0a.2.2,0,0,1,.14.25L6.63,8.46a.2.2,0,0,1-.25.14h0a.2.2,0,0,1-.14-.25Z"/><path class="cls-23" d="M10.36,9.83a.33.33,0,0,1,.34-.34h.78a.33.33,0,0,1,.34.34h0a.33.33,0,0,1-.34.34H10.7a.33.33,0,0,1-.34-.34Z"/><path class="cls-24" d="M19.41,12.84a.1.1,0,0,1,.1-.1h.63a.1.1,0,0,1,.1.1h0a.1.1,0,0,1-.1.1h-.63a.1.1,0,0,1-.1-.1Z"/><path class="cls-24" d="M19.41,13.38c0-.1,0-.1.1-.1h.63a.1.1,0,0,1,.1.1h0a.1.1,0,0,1-.1.1h-.63a.1.1,0,0,1-.1-.1Z"/><path class="cls-24" d="M19.41,13.86a.1.1,0,0,1,.1-.1h.63a.1.1,0,0,1,.1.1h0a.1.1,0,0,1-.1.1h-.63a.1.1,0,0,1-.1-.1Z"/><path class="cls-25" d="M.44,11a.38.38,0,0,1,.39-.39h0a.38.38,0,0,1,.39.39v2a.38.38,0,0,1-.39.39h0A.38.38,0,0,1,.44,13Z"/><path class="cls-26" d="M.88,10.7h0a.38.38,0,0,1,.39.39v2a.38.38,0,0,1-.39.39h0"/><path id="SVGCleanerId_0" data-name="SVGCleanerId 0" class="cls-1" d="M20.14,6.91v.78a.75.75,0,0,0,.73.73h1.85v1.85a.75.75,0,0,0,.73.73h.78a.75.75,0,0,0,.73-.73V8.42h1.85a.75.75,0,0,0,.73-.73V6.91a.75.75,0,0,0-.73-.73H25.05V4.33a.75.75,0,0,0-.73-.73h-.78a.75.75,0,0,0-.73.73V6.18H21A.87.87,0,0,0,20.14,6.91Z"/><path id="SVGCleanerId_0-2" data-name="SVGCleanerId 0" class="cls-27" d="M20.14,6.91v.78a.75.75,0,0,0,.73.73h1.85v1.85a.75.75,0,0,0,.73.73h.78a.75.75,0,0,0,.73-.73V8.42h1.85a.75.75,0,0,0,.73-.73V6.91a.75.75,0,0,0-.73-.73H25.05V4.33a.75.75,0,0,0-.73-.73h-.78a.75.75,0,0,0-.73.73V6.18H21A.87.87,0,0,0,20.14,6.91Z"/></g></g></svg>