<svg xmlns="http://www.w3.org/2000/svg" viewBox="0 0 88.01 62"><defs><style>.cls-1{fill:#f7fbfc;}</style></defs><title>LOG OFF</title><g id="Layer_2" data-name="Layer 2"><g id="Layer_1-2" data-name="Layer 1"><path class="cls-1" d="M57,0A31,31,0,0,0,30,15.73,1.6,1.6,0,0,0,30.71,18l2,1a1.56,1.56,0,0,0,2-.63,25.61,25.61,0,1,1-.14,25.13A1.26,1.26,0,0,0,33,42.93l-2.43,1.21a1.4,1.4,0,0,0-.6,1.94A31,31,0,1,0,57,0Z"/><path class="cls-1" d="M57,33.05V28.95a.64.64,0,0,0-.64-.64H11.6a.64.64,0,0,1-.45-1.09l4.63-4.63a.64.64,0,0,0,0-.91l-2.91-2.91a.64.64,0,0,0-.91,0L.19,30.55a.64.64,0,0,0,0,.91L12,43.24a.64.64,0,0,0,.91,0l2.91-2.91a.64.64,0,0,0,0-.91l-4.63-4.63a.64.64,0,0,1,.45-1.09H56.37A.64.64,0,0,0,57,33.05Z"/></g></g></svg>