<svg xmlns="http://www.w3.org/2000/svg" viewBox="0 0 17.54 17.54"><defs><style>.cls-1,.cls-2{fill:none;stroke-linecap:round;stroke-linejoin:round;stroke-width:0.75px;}.cls-1{stroke:#ffe1b2;}.cls-2{stroke:#1e66b1;}</style></defs><title>Setting</title><g id="Layer_2" data-name="Layer 2"><g id="Layer_1-2" data-name="Layer 1"><path class="cls-1" d="M8.77,11.68a2.91,2.91,0,1,1,2.91-2.91A2.91,2.91,0,0,1,8.77,11.68Z"/><polygon class="cls-2" points="5.7 14.33 7.01 14.87 7.33 17.16 10.21 17.16 10.53 14.87 11.84 14.33 13.69 15.72 15.72 13.69 14.33 11.84 14.87 10.53 17.16 10.21 17.16 7.33 14.87 7.01 14.33 5.7 15.72 3.85 13.69 1.82 11.84 3.21 10.53 2.67 10.21 0.38 7.33 0.38 7.01 2.67 5.7 3.21 3.85 1.82 1.82 3.85 3.21 5.7 2.67 7.01 0.38 7.33 0.38 10.21 2.67 10.53 3.21 11.84 1.82 13.69 3.85 15.72 5.7 14.33"/></g></g></svg>