<?xml version="1.0" encoding="utf-8"?>
<!-- Generator: Adobe Illustrator 21.0.0, SVG Export Plug-In . SVG Version: 6.00 Build 0)  -->
<svg version="1.1" id="Capa_1" xmlns="http://www.w3.org/2000/svg" xmlns:xlink="http://www.w3.org/1999/xlink" x="0px" y="0px"
	 viewBox="0 0 390.2 390.2" style="enable-background:new 0 0 390.2 390.2;" xml:space="preserve">
<style type="text/css">
	.st0{fill:#2B3237;}
	.st1{fill:#F7F1E6;}
	.st2{fill:#E74424;}
	.st3{fill:#E6A123;}
</style>
<g>
	<g id="Guides_For_Artboard_12_">
	</g>
	<g id="Artwork_12_">
	</g>
	<g id="Layer_2_12_">
		<path class="st0" d="M75.3,364h257.5c9.8,0,17.8-7.9,17.8-17.8V38.5c0-9.8-7.9-17.8-17.8-17.8H75.3c-9.8,0-17.8,7.9-17.8,17.8
			v307.7C57.5,356,65.4,364,75.3,364z"/>
		<rect x="85.5" y="56.2" class="st1" width="238.6" height="240.4"/>
		<path class="st2" d="M258,157h-28.9v-28.9c0-10.1-8.2-18.2-18.2-18.2h-10.5h-1.7c-10.1,0-18.2,8.2-18.2,18.2V157h-28.9
			c-10.1,0-18.2,8.2-18.2,18.2v12.2c0,10.1,8.2,18.2,18.2,18.2h28.9v28.9c0,10.1,8.2,18.2,18.2,18.2h1.7h10.5
			c10.1,0,18.2-8.2,18.2-18.2v-28.9H258c10.1,0,18.2-8.2,18.2-18.2v-12.2C276.2,165.2,268.1,157,258,157z"/>
		<path class="st3" d="M203.5,355c-14.2,0-25.8-11.6-25.8-25.9c0-14.3,11.6-25.8,25.8-25.8c14.2,0,25.8,11.5,25.8,25.8
			C229.2,343.4,217.7,355,203.5,355z"/>
	</g>
</g>
</svg>
