<?xml version="1.0" encoding="utf-8"?>
<!-- Generator: Adobe Illustrator 21.0.0, SVG Export Plug-In . SVG Version: 6.00 Build 0)  -->
<svg version="1.1" id="Capa_1" xmlns="http://www.w3.org/2000/svg" xmlns:xlink="http://www.w3.org/1999/xlink" x="0px" y="0px"
	 viewBox="0 0 59 59" style="enable-background:new 0 0 59 59;" xml:space="preserve">
<style type="text/css">
	.st0{fill:none;stroke:#038AA1;stroke-width:2;stroke-linecap:round;stroke-miterlimit:10;}
	.st1{fill:#038AA1;}
</style>
<line class="st0" x1="47" y1="1" x2="58" y2="1"/>
<path class="st1" d="M51.3,9C50,9,49,10,49,11.3v5.4c0,0.2-0.1,0.3-0.3,0.3H48V1c0,0,0-0.1,0-0.1c0-0.1,0-0.1,0-0.2
	c0-0.1-0.1-0.1-0.1-0.2c0,0,0-0.1-0.1-0.1c0,0,0,0,0,0c0-0.1-0.1-0.1-0.2-0.1c-0.1,0-0.1-0.1-0.2-0.1c-0.1,0-0.1,0-0.2,0
	c-0.1,0-0.1,0-0.2,0c0,0,0,0,0,0c0,0-0.1,0-0.1,0c-0.1,0-0.1,0-0.2,0c-0.1,0-0.1,0.1-0.2,0.1c0,0-0.1,0-0.1,0.1l-42.5,35
	c-0.4,0.4-0.5,1-0.1,1.4C3.9,36.8,4.2,37,4.5,37c0.2,0,0.4-0.1,0.6-0.2L7,35.2V49H2.3C1,49,0,50,0,51.3V59h59V9H51.3z M41.3,17
	C40,17,39,18,39,19.3V25h-1V9.7l8-6.6V17H41.3z M32.3,25C31,25,30,26,30,27.3v5.4c0,0.2-0.1,0.3-0.3,0.3H29V17.1l7-5.8V25H32.3z
	 M22.3,33C21,33,20,34,20,35.3v5.4c0,0.2-0.1,0.3-0.3,0.3H19V25.3l8-6.6V33H22.3z M9,33.5l8-6.6v14h-4.7C11,41,10,42,10,43.3v5.4
	c0,0.2-0.1,0.3-0.3,0.3H9V33.5z"/>
</svg>
