<svg xmlns="http://www.w3.org/2000/svg" viewBox="0 0 46.4 46.4"><defs><style>.cls-1{fill:#57cbff;}.cls-2{fill:#263650;}</style></defs><title>madrigot1</title><g id="Layer_2" data-name="Layer 2"><g id="Isolation_Mode" data-name="Isolation Mode"><path class="cls-1" d="M45.6,0H36.8l-.1,0-.17,0-.14.07-.09.05-34,28a.8.8,0,0,0-.11,1.13.8.8,0,0,0,1.13.11L4.8,28.15V40a.8.8,0,1,0,1.6,0V26.83l6.4-5.26v12a.8.8,0,0,0,1.6,0V20.25L20.8,15V27.2a.8.8,0,1,0,1.6,0V13.68L28,9.07V20.8a.8.8,0,0,0,1.6,0v-13L36,2.49V14.4a.8.8,0,1,0,1.6,0V1.6h8a.8.8,0,0,0,0-1.6Zm0,0"/><path class="cls-2" d="M45.6,8H40.23a1,1,0,0,0-1,1v4.34a1,1,0,0,1-1,1H32.23a1,1,0,0,0-1,1V20.8H25a1,1,0,0,0-1,1v4.34a1,1,0,0,1-1,1H17a1,1,0,0,0-1,1v4.34a1,1,0,0,1-1,1H9a1,1,0,0,0-1,1V39a1,1,0,0,1-1,1H1a1,1,0,0,0-1,1V46.4H45.6Zm0,0"/></g></g></svg>