<svg xmlns="http://www.w3.org/2000/svg" xmlns:xlink="http://www.w3.org/1999/xlink" viewBox="0 0 397 381.16"><defs><style>.cls-1{fill:none;}.cls-2{fill:#768989;}.cls-3{fill:#54a6de;}.cls-4{clip-path:url(#clip-path);}.cls-5{fill:#4589af;}.cls-6{fill:#93a4a5;}.cls-7{fill:#a9bfbf;}.cls-8{fill:#d3c794;}.cls-9{fill:#eae0b7;}.cls-10{fill:#64c3f9;}.cls-11{fill:#3d7899;}</style><clipPath id="clip-path" transform="translate(0 -0.68)"><rect class="cls-1" width="396.96" height="382.8"/></clipPath></defs><title>משקל1</title><g id="Layer_2" data-name="Layer 2"><g id="Layer_1-2" data-name="Layer 1"><path class="cls-2" d="M109.63,374.68a7.17,7.17,0,0,1-7.16,7.16H71.4a7.18,7.18,0,0,1-7.18-7.16V357.94a7.19,7.19,0,0,1,7.18-7.17h31.07a7.18,7.18,0,0,1,7.16,7.17Zm0,0" transform="translate(0 -0.68)"/><path class="cls-2" d="M383.25,374.68a7.17,7.17,0,0,1-7.17,7.16H345a7.17,7.17,0,0,1-7.16-7.16V357.94a7.18,7.18,0,0,1,7.16-7.17h31.07a7.18,7.18,0,0,1,7.17,7.17Zm0,0" transform="translate(0 -0.68)"/><path class="cls-3" d="M77.06,133.32a10.75,10.75,0,0,0-10.75,10.75V317.32a10.75,10.75,0,1,0,21.5,0V144.07a10.75,10.75,0,0,0-10.76-10.75Zm0,0" transform="translate(0 -0.68)"/><g class="cls-4"><path class="cls-5" d="M77.06,133.32a10.75,10.75,0,0,0-10.75,10.75v67.51a10.75,10.75,0,1,0,21.5,0V144.07a10.75,10.75,0,0,0-10.76-10.75Zm0,0" transform="translate(0 -0.68)"/><path class="cls-6" d="M397,358.24a7.18,7.18,0,0,1-7.16,7.17H57.65a7.18,7.18,0,0,1-7.17-7.17V323.6a7.17,7.17,0,0,1,7.17-7.17H389.83A7.16,7.16,0,0,1,397,323.6Zm0,0" transform="translate(0 -0.68)"/><path class="cls-7" d="M389.83,316.42H57.65a7.17,7.17,0,0,0-7.17,7.17v3.57a7.18,7.18,0,0,0,7.17,7.17H389.83a7.18,7.18,0,0,0,7.16-7.17V323.6a7.17,7.17,0,0,0-7.16-7.18Zm0,0" transform="translate(0 -0.68)"/></g><path class="cls-8" d="M143.38,77.75A66.31,66.31,0,1,1,77.07,11.44a66.31,66.31,0,0,1,66.31,66.31Zm0,0" transform="translate(0 -0.68)"/><path class="cls-9" d="M143.39,77.75a66.31,66.31,0,0,1-132.62,0c0-36.62,29.69-37.64,66.3-37.64s66.32,1,66.32,37.64Zm0,0" transform="translate(0 -0.68)"/><path class="cls-3" d="M77.06,154.82a77.07,77.07,0,1,1,77.06-77.07,77.16,77.16,0,0,1-77.06,77.07Zm0-132.63a55.56,55.56,0,1,0,55.57,55.56A55.63,55.63,0,0,0,77.06,22.19Zm0,0" transform="translate(0 -0.68)"/><path class="cls-10" d="M82.89,72.15a5.61,5.61,0,1,1-11.21,0c0-3.09,2.52-47.27,5.61-47.27s5.6,44.17,5.6,47.27Zm0,0" transform="translate(0 -0.68)"/><path class="cls-11" d="M77.3,24.88c3.09,0,5.6,44.18,5.6,47.27a5.6,5.6,0,0,1-5.6,5.61" transform="translate(0 -0.68)"/><path class="cls-2" d="M86.93,77.75a9.86,9.86,0,1,1-9.86-9.86,9.85,9.85,0,0,1,9.86,9.86Zm0,0" transform="translate(0 -0.68)"/><path class="cls-3" d="M224.7,81.09l22.72-26.64a3.59,3.59,0,0,0-2.73-5.9H233.85a3.59,3.59,0,0,0-2.78,1.31L211.14,74.34V52.12a3.57,3.57,0,0,0-3.57-3.57h-8.74a3.59,3.59,0,0,0-3.59,3.57v67.64a3.59,3.59,0,0,0,3.59,3.58h8.74a3.57,3.57,0,0,0,3.57-3.58V95.31l2.49-2.88,19.64,29.31a3.59,3.59,0,0,0,3,1.58H246.6a3.58,3.58,0,0,0,3-5.58Zm0,0" transform="translate(0 -0.68)"/><path class="cls-3" d="M312,80.66H289.71a3.57,3.57,0,0,0-3.57,3.58v7a3.58,3.58,0,0,0,3.57,3.59h10.16v14a36.24,36.24,0,0,1-8.06.77c-14.08,0-22.51-8.86-22.51-23.72s8.84-23.61,23.61-23.61a31.31,31.31,0,0,1,13.5,2.6,3.58,3.58,0,0,0,4.88-2.25l2.13-7.12a3.59,3.59,0,0,0-1.88-4.25c-3.48-1.68-10.13-3.47-18.41-3.47-23.93,0-40.09,15.46-40.21,38.5,0,11.19,3.84,21.3,10.54,27.78,7,6.67,16.08,9.92,27.76,9.92a66.21,66.21,0,0,0,22-3.92,3.58,3.58,0,0,0,2.37-3.37V84.24A3.58,3.58,0,0,0,312,80.66Zm0,0" transform="translate(0 -0.68)"/><path class="cls-3" d="M238.22,241.62V215a3.42,3.42,0,0,0-1.52-2.83,9,9,0,0,1-4-7.52v-27.6a21.44,21.44,0,0,1,21.42-21.42H260a21.44,21.44,0,0,1,21.42,21.42v27.6a9,9,0,0,1-4,7.52,3.33,3.33,0,0,0-1.52,2.83v26.6a4.64,4.64,0,0,0,2.59,4.17,213.91,213.91,0,0,1,38.6,24.77,9.89,9.89,0,0,1,3.62,7.69v18.9a3.42,3.42,0,1,0,6.83,0v-18.9a16.83,16.83,0,0,0-6.11-13,223.12,223.12,0,0,0-38.7-25V216.71a15.8,15.8,0,0,0,5.55-12v-27.6A28.29,28.29,0,0,0,260,148.82h-5.93a28.29,28.29,0,0,0-28.25,28.25v27.6a15.8,15.8,0,0,0,5.56,12v23.56a223.05,223.05,0,0,0-38.71,25,16.62,16.62,0,0,0-6.11,13v18.9a3.42,3.42,0,1,0,6.83,0v-18.9a9.89,9.89,0,0,1,3.62-7.69,216,216,0,0,1,38.6-24.77,4.64,4.64,0,0,0,2.59-4.17Zm0,0" transform="translate(0 -0.68)"/></g></g></svg>