<svg xmlns="http://www.w3.org/2000/svg" xmlns:xlink="http://www.w3.org/1999/xlink" viewBox="0 0 456.92 456.92"><defs><style>.cls-1{fill:none;}.cls-2{fill:#57cbff;}.cls-3{fill:#f7fbfc;}.cls-4{clip-path:url(#clip-path);}.cls-5{fill:#263650;}</style><clipPath id="clip-path"><rect class="cls-1" x="113.78" y="84.03" width="229.36" height="288.86"/></clipPath></defs><title>Asset 7</title><g id="Layer_2" data-name="Layer 2"><g id="Isolation_Mode" data-name="Isolation Mode"><rect class="cls-2" x="32" y="32" width="392.92" height="392.92" rx="102.05" ry="102.05"/><rect class="cls-3" x="32" y="32" width="392.92" height="392.92" rx="102.05" ry="102.05" transform="translate(332.04 534.5) rotate(-153.7)"/><g id="Layer_2-2" data-name="Layer 2"><g id="Layer_1-2" data-name="Layer 1-2"><g class="cls-4"><path class="cls-2" d="M278.34,297.81,233.2,252.67,170.73,315.2l45.15,45.14h0a44.18,44.18,0,0,0,62.44-62.44Z"/><path class="cls-5" d="M188.06,207.53h0A44.18,44.18,0,0,0,125.59,270h0l45.15,45.23,62.5-62.5Z"/><path class="cls-2" d="M240.7,96.21h0a44.18,44.18,0,0,0-62.48,62.48h0l45.14,45.14,62.5-62.5Z"/><path class="cls-5" d="M331,186.52h0l-45.11-45.17-62.5,62.5L268.48,249h0a44.18,44.18,0,0,0,62.44-62.44Z"/></g></g></g></g></g></svg>