<?xml version="1.0" encoding="utf-8"?>
<!-- Generator: Adobe Illustrator 21.0.2, SVG Export Plug-In . SVG Version: 6.00 Build 0)  -->
<svg version="1.1" xmlns="http://www.w3.org/2000/svg" xmlns:xlink="http://www.w3.org/1999/xlink" x="0px" y="0px"
	 viewBox="0 0 708 299" style="enable-background:new 0 0 708 299;" xml:space="preserve">
<style type="text/css">
	.st0{opacity:0.78;}
	.st1{fill:#FFFFFF;}
	.st2{fill:#57CBFF;}
	.st3{fill:#263650;}
	.st4{opacity:0.93;}
</style>
<g id="Layer_1">
	<g>
		<g class="st0">
			<g>
				<path class="st1" d="M681.1,145.2c0,0-130.1-104-312.8-104.9c-182.7,0.4-297.6,93.7-297.6,93.7c-59.9,86.1,3.7,164.8,3.7,164.8
					s110.9-72.8,293.6-73.2c182.7,0.9,241.9,58.2,241.9,58.2S681.1,167.6,681.1,145.2z"/>
				<g>
					<path class="st2" d="M681.1,145.2c-15.1-11.1-31.2-20.8-47.6-29.8c-16.4-9-33.2-17.3-50.4-24.6c-17.1-7.4-34.6-14-52.4-19.8
						c-17.8-5.7-35.8-10.6-54-14.5c-36.4-7.9-73.6-11.7-110.7-11.5c-37.2,0.5-74.2,5-110.4,13.3l-2.4-10.8
						c37.1-7.9,74.9-11.9,112.8-11.8c9.5,0.1,18.9,0.4,28.4,1c9.4,0.6,18.9,1.6,28.2,2.8c18.8,2.3,37.4,5.7,55.7,10.1
						c9.2,2.2,18.3,4.6,27.3,7.3c9,2.7,18,5.6,26.9,8.7c17.8,6.3,35.2,13.4,52.3,21.4c17,8,33.7,16.8,49.8,26.5
						c8.1,4.8,16,9.9,23.8,15.1C666.2,133.8,673.9,139.3,681.1,145.2z"/>
					<path class="st2" d="M136,261.8c17.7-6.9,35.7-12.9,53.9-18c18.2-5.1,36.7-9.3,55.3-12.7c18.6-3.4,37.4-6,56.2-7.8
						c18.8-1.8,37.7-2.8,56.6-3c9.5-0.1,18.9,0.2,28.3,0.4c4.7,0.1,9.4,0.4,14.1,0.6l7.1,0.3l7.1,0.5l7.1,0.5
						c2.4,0.2,4.7,0.3,7.1,0.6l14.1,1.4l14.1,1.8c2.3,0.3,4.7,0.7,7,1l7,1.1c18.6,3,37.2,7,55.4,12.2c18.2,5.3,36.1,11.7,53.1,20.2
						l-2.8,5.7c-16.8-7.8-34.4-13.7-52.4-18.5c-18-4.7-36.3-8.2-54.7-10.8c-4.6-0.6-9.2-1.3-13.8-1.8l-13.9-1.5l-13.9-1.2
						c-2.3-0.2-4.6-0.4-7-0.5l-7-0.4l-7-0.4l-7-0.2c-4.7-0.1-9.3-0.4-14-0.4c-9.3-0.1-18.6-0.3-27.9,0
						c-37.2,0.9-74.3,4.7-110.8,11.8c-18.2,3.5-36.3,7.9-54.1,13c-17.8,5.1-35.4,11-52.7,17.8L136,261.8z"/>
				</g>
			</g>
		</g>
		<g>
			<g>
				<path class="st3" d="M285.9,140.4c4.4-0.2,6.6-0.3,11-0.5c0.1,8.2,0.2,12.3,0.4,20.5c-26.8,1.2-53.4,3.5-80.1,6.9
					c-0.9-8.1-1.4-12.2-2.2-20.3c16.9-2.1,33.8-4,50.7-5.3c-0.4-7-0.5-10.5-0.8-17.5c-0.1-2.4-0.5-4.5-1.3-6.3
					c-0.8-1.8-2.1-3.4-4-4.5c-1.9-1.2-4.5-2-7.7-2.4c-3.2-0.4-7.3-0.4-12.2,0.1c-3.2,0.3-7.6,1-13.4,2c-5.8,1-9.6,1.8-11.5,2.4
					c-0.3,0-0.4,0.1-0.7,0.1c-0.8-8.2-1.1-12.2-1.9-20.4c3.6-0.9,7.8-1.8,12.4-2.6c4.7-0.8,9.4-1.4,14.1-1.9
					c9.3-0.9,17-0.8,22.8,0.1c5.9,1,10.6,2.8,14.2,5.5c3.5,2.6,5.9,6.2,7.4,10.4c1.4,4.2,2.2,9.3,2.4,15.2
					C285.6,129.1,285.7,132.9,285.9,140.4z"/>
				<path class="st3" d="M335.1,159.7c-7.8,0-11.8,0-19.6,0.1c0-16.5,0-33,0.3-49.5c0-1.1-0.4-2.1-1.4-2.7c-0.9-0.7-2.2-1-3.6-1
					c-2.4,0.1-4.3,0.2-5.9,0.3c-1.6,0.2-3,0.4-4.3,0.6c0-8.2,0-12.3,0-20.5c1.3-0.2,3.2-0.4,5.8-0.6c2.6-0.2,5.2-0.3,7.7-0.4
					c7.2-0.1,12.8,1.6,16.9,5.1c4.1,3.5,6,7.8,5.8,12.9C336.1,122.6,335.5,141.2,335.1,159.7z"/>
				<path class="st3" d="M413.8,163.9c-7.7-0.8-11.6-1.1-19.3-1.7c1.1-12.6,2.3-25.2,3.6-37.7c0.2-2.4,0.2-4.5-0.1-6.5
					c-0.3-1.9-1.2-3.6-2.8-5.1c-1.6-1.4-3.9-2.6-7-3.5c-3.1-0.9-7.3-1.5-12.6-1.8c-4.1-0.2-8.5-0.2-13.2,0c-4.7,0.2-9,0.5-12.7,0.8
					c-0.3,0-0.4,0-0.7,0c0.4-8.2,0.6-12.3,1.1-20.6c3.2-0.3,7.6-0.6,13-0.7c5.4-0.2,10.2-0.1,14.5,0.1c9.2,0.5,16.6,1.7,22.1,3.5
					c5.6,1.8,9.9,4.4,12.9,7.5c3,3.1,4.9,7,5.7,11.4c0.8,4.4,0.8,9.5,0.1,15.4C416.7,137.9,415.2,150.9,413.8,163.9z"/>
				<path class="st3" d="M447.1,191.5c-7.4-1.1-11.1-1.6-18.6-2.5c2.7-21.5,5.6-43,8.7-64.5c8,1,12,1.5,20,2.7
					C453.7,148.6,450.3,170,447.1,191.5z M512.9,130.1c-1.3,5.4-3.4,10.3-6.3,14.6c-2.9,4.3-6.6,8.1-11,11.4
					c-4.4,3.4-9.5,6.3-15.2,8.9c-5.7,2.6-12,4.8-18.8,6.8c1.4-8.3,2.1-12.5,3.5-20.8c4-1,7.7-2.3,10.9-3.8c3.2-1.5,6-3.2,8.3-5.2
					c2.2-1.9,3.9-3.8,5.3-5.9c1.3-2.1,2.2-4.3,2.8-6.8c0.2-1,0.2-1.9,0-2.7c-0.2-0.8-0.7-1.6-1.5-2.3c-0.9-0.8-2-1.4-3.3-1.8
					c-1.3-0.4-3-0.9-5.2-1.2c-14.6-2.4-29.1-4.6-43.8-6.5c1.2-8.1,1.8-12.2,3.1-20.2c14.7,1.9,29.3,4.1,43.9,6.5c6,1,11,2.6,15,4.7
					c3.9,2.1,6.9,4.5,9,7.2c2,2.6,3.3,5.4,3.7,8.4C513.7,124.3,513.6,127.2,512.9,130.1z"/>
				<path class="st3" d="M581.2,176.8c4.1,1.2,6.1,1.9,10.1,3.2c-2.6,7.8-3.9,11.6-6.4,19.4c-24.6-7.7-49.2-14.3-74.3-20.1
					c1.8-8,2.7-12,4.6-19.9c15.9,3.5,31.7,7.5,47.3,11.9c2-6.7,3-10.1,5-16.8c0.7-2.3,1-4.4,0.9-6.4c-0.1-2-0.8-3.9-2.1-5.6
					c-1.3-1.7-3.4-3.3-6.1-4.8c-2.8-1.5-6.5-2.8-11.1-3.9c-3-0.8-7.2-1.6-12.8-2.6c-5.6-1-9.3-1.5-11.2-1.6
					c-0.3-0.1-0.4-0.1-0.7-0.1c2-7.9,3-11.9,5-19.9c3.6,0.3,7.6,0.9,12.1,1.7c4.5,0.8,8.9,1.8,13.4,2.9c8.7,2.2,15.6,4.8,20.6,7.7
					c5,2.9,8.7,6.2,11,9.9c2.3,3.6,3.3,7.8,3.2,12.2c-0.1,4.5-1.1,9.5-2.9,15.1C584.7,166.1,583.5,169.7,581.2,176.8z"/>
			</g>
		</g>
	</g>
</g>
<g id="Layer_2" class="st4">
</g>
</svg>
