<?xml version="1.0" encoding="utf-8"?>
<!-- Generator: Adobe Illustrator 23.0.3, SVG Export Plug-In . SVG Version: 6.00 Build 0)  -->
<svg version="1.1" id="Layer_1" xmlns="http://www.w3.org/2000/svg" xmlns:xlink="http://www.w3.org/1999/xlink" x="0px" y="0px"
	 viewBox="0 0 456.9 456.9" style="enable-background:new 0 0 456.9 456.9;" xml:space="preserve">
<style type="text/css">
	.st0{fill:#57CBFF;}
	.st1{fill:#F7FBFC;}
	.st2{fill:url(#SVGID_1_);}
	.st3{fill:#C21F30;}
	.st4{fill:#E6E6E6;}
	.st5{fill:url(#SVGID_2_);}
	.st6{opacity:0.3;}
	.st7{fill:url(#SVGID_3_);}
	.st8{fill:url(#SVGID_4_);}
	.st9{fill:#D63F1E;}
	.st10{opacity:0.2;}
	.st11{fill:#3B4B5C;}
	.st12{fill:#27323D;}
	.st13{fill:url(#SVGID_5_);}
	.st14{fill:url(#SVGID_6_);}
	.st15{fill:#445669;}
	.st16{opacity:0.4;}
	.st17{fill:url(#SVGID_7_);}
	.st18{fill:url(#SVGID_8_);}
	.st19{fill:url(#SVGID_9_);}
	.st20{fill:#FFFFFF;}
	.st21{fill:url(#SVGID_10_);}
	.st22{fill:url(#SVGID_11_);}
	.st23{fill:url(#SVGID_12_);}
	.st24{fill:url(#SVGID_13_);}
	.st25{fill:url(#SVGID_14_);}
	.st26{fill:url(#SVGID_15_);}
	.st27{fill:url(#SVGID_16_);}
	.st28{fill:url(#SVGID_17_);}
	.st29{fill:url(#SVGID_18_);}
	.st30{fill:url(#SVGID_19_);}
	.st31{fill:url(#SVGID_20_);}
	.st32{opacity:0.1;}
	.st33{fill:#961825;}
	.st34{fill:#CAD6EA;}
	.st35{fill:url(#SVGID_21_);}
	.st36{fill:url(#SVGID_22_);}
	.st37{fill:url(#SVGID_23_);}
	.st38{fill:#293440;}
	.st39{fill:url(#SVGID_24_);}
	.st40{fill:#F7931E;}
	.st41{fill:#F15A24;}
	.st42{fill:#BF9A67;}
	.st43{fill:#9A734A;}
	.st44{filter:url(#Adobe_OpacityMaskFilter);}
	.st45{filter:url(#Adobe_OpacityMaskFilter_1_);}
	.st46{mask:url(#SVGID_25_);fill:url(#SVGID_26_);}
	.st47{fill:url(#SVGID_27_);}
	.st48{filter:url(#Adobe_OpacityMaskFilter_2_);}
	.st49{filter:url(#Adobe_OpacityMaskFilter_3_);}
	.st50{mask:url(#SVGID_28_);fill:url(#SVGID_29_);}
	.st51{fill:url(#SVGID_30_);}
	.st52{opacity:0.6;}
	.st53{fill:#512B06;}
	.st54{filter:url(#Adobe_OpacityMaskFilter_4_);}
	.st55{filter:url(#Adobe_OpacityMaskFilter_5_);}
	.st56{mask:url(#SVGID_31_);fill:url(#SVGID_32_);}
	.st57{fill:url(#SVGID_33_);}
	.st58{filter:url(#Adobe_OpacityMaskFilter_6_);}
	.st59{filter:url(#Adobe_OpacityMaskFilter_7_);}
	.st60{mask:url(#SVGID_34_);fill:url(#SVGID_35_);}
	.st61{fill:url(#SVGID_36_);}
	.st62{fill:url(#SVGID_37_);}
	.st63{fill:url(#SVGID_38_);}
	.st64{fill:url(#SVGID_39_);}
	.st65{fill:url(#SVGID_40_);}
	.st66{fill:url(#SVGID_41_);}
	.st67{fill:url(#SVGID_42_);}
	.st68{fill:url(#SVGID_43_);}
	.st69{fill:url(#SVGID_44_);}
	.st70{fill:url(#SVGID_45_);}
	.st71{fill:url(#SVGID_46_);}
	.st72{fill:url(#SVGID_47_);}
	.st73{clip-path:url(#SVGID_49_);}
	.st74{fill:#1A1A1A;}
	.st75{fill:url(#SVGID_50_);}
	.st76{fill:url(#SVGID_51_);}
	.st77{fill:url(#SVGID_52_);}
	.st78{fill:url(#SVGID_53_);}
	.st79{fill:url(#SVGID_54_);}
	.st80{clip-path:url(#SVGID_56_);}
</style>
<title>newiconeambulance</title>
<g>
	<g id="Isolation_Mode">
		<path class="st0" d="M134.1,32h188.8c56.4,0,102.1,45.7,102.1,102.1v188.8c0,56.4-45.7,102.1-102.1,102.1H134.1
			C77.7,424.9,32,379.2,32,322.9V134.1C32,77.7,77.7,32,134.1,32z"/>
		<path class="st1" d="M226,446.4L56.8,362.8c-50.5-25-71.2-86.2-46.3-136.7L94.2,56.8c25-50.5,86.2-71.2,136.7-46.3l169.3,83.7
			c50.5,25,71.2,86.2,46.3,136.7l-83.7,169.3C337.8,450.7,276.6,471.4,226,446.4z"/>
	</g>
</g>
<g>
	<linearGradient id="SVGID_1_" gradientUnits="userSpaceOnUse" x1="134.2224" y1="278.3577" x2="134.2224" y2="185.1042">
		<stop  offset="0" style="stop-color:#CEDAF0"/>
		<stop  offset="1" style="stop-color:#E6EFFF"/>
	</linearGradient>
	<path class="st2" d="M218.2,278.4H50.2c-1.1,0-1.9-0.9-1.9-1.9V187c0-1.1,0.9-1.9,1.9-1.9h168.1c1.1,0,1.9,0.9,1.9,1.9v89.4
		C220.2,277.5,219.3,278.4,218.2,278.4z"/>
	<path class="st3" d="M218.2,185.1H50.2c-1.1,0-1.9,0.9-1.9,1.9v38.8h171.9V187C220.2,186,219.3,185.1,218.2,185.1z"/>
	<path class="st3" d="M48.3,256.1v20.3c0,1.1,0.9,1.9,1.9,1.9h168.1c1.1,0,1.9-0.9,1.9-1.9v-20.3H48.3z"/>
	<path class="st4" d="M218.2,277.4H50.2c-1.1,0-1.9-0.9-1.9-1.9v1c0,1.1,0.9,1.9,1.9,1.9h168.1c1.1,0,1.9-0.9,1.9-1.9v-1
		C220.2,276.5,219.3,277.4,218.2,277.4z"/>
	<linearGradient id="SVGID_2_" gradientUnits="userSpaceOnUse" x1="333.5195" y1="278.6337" x2="333.5195" y2="185.3801">
		<stop  offset="0" style="stop-color:#CEDAF0"/>
		<stop  offset="1" style="stop-color:#E6EFFF"/>
	</linearGradient>
	<path class="st5" d="M399.6,278.6H265.5c-1.1,0-1.9-0.9-1.9-1.9v-89.4c0-1.1,0.9-1.9,1.9-1.9h123.6c2.7,0,5,1.9,5.7,4.5l8.6,36.3
		v48.6C403.5,276.9,401.7,278.6,399.6,278.6z"/>
	<path class="st3" d="M263.6,256.1v20.6c0,1.1,0.9,1.9,1.9,1.9h134.1c2.1,0,3.9-1.7,3.9-3.9v-18.7H263.6z"/>
	<rect x="263.6" y="226.9" class="st3" width="139.9" height="23.2"/>
	<path class="st4" d="M399.6,277.7H265.5c-1.1,0-1.9-0.9-1.9-1.9v1c0,1.1,0.9,1.9,1.9,1.9h134.1c2.1,0,3.9-1.7,3.9-3.9v-1
		C403.5,275.9,401.7,277.7,399.6,277.7z"/>
	<path d="M130.8,249c-16.2,0-29.3,13.2-29.3,29.3l0,0h58.7l0,0C160.1,262.2,146.9,249,130.8,249z"/>
	<path class="st4" d="M130.8,248.1c-16.7,0-30.3,13.6-30.3,30.3l0,0h1l0,0c0-16.2,13.2-29.3,29.3-29.3c16.2,0,29.3,13.2,29.3,29.3
		l0,0h1l0,0C161.1,261.7,147.5,248.1,130.8,248.1z"/>
	<path d="M356.1,278.4c0-16.3-13.3-29.6-29.6-29.6s-29.6,13.3-29.6,29.6c0,0.1,0,0.2,0,0.3h59.2
		C356.1,278.5,356.1,278.5,356.1,278.4z"/>
	<path class="st4" d="M326.5,247.8c-16.8,0-30.6,13.7-30.6,30.6l0,0.3h1c0-0.1,0-0.2,0-0.3c0-16.3,13.3-29.6,29.6-29.6
		s29.6,13.3,29.6,29.6c0,0.1,0,0.2,0,0.3h1v0l0-0.3C357.1,261.5,343.4,247.8,326.5,247.8z"/>
	<path class="st6" d="M394.7,264v14.6h4.9c2.1,0,3.9-1.7,3.9-3.9V264H394.7z"/>
	<linearGradient id="SVGID_3_" gradientUnits="userSpaceOnUse" x1="395.6884" y1="271.7991" x2="417.0591" y2="271.7991">
		<stop  offset="0" style="stop-color:#CEDAF0"/>
		<stop  offset="1" style="stop-color:#E6EFFF"/>
	</linearGradient>
	<path class="st7" d="M415.1,265h-19.4v13.6h19.4c1.1,0,1.9-0.9,1.9-1.9v-9.7C417.1,265.9,416.2,265,415.1,265z"/>
	<g>
		
			<linearGradient id="SVGID_4_" gradientUnits="userSpaceOnUse" x1="214.0289" y1="167.8916" x2="229.5719" y2="167.8916" gradientTransform="matrix(0.6755 -0.7373 0.7373 0.6755 -108.3866 217.1981)">
			<stop  offset="0" style="stop-color:#CEDAF0"/>
			<stop  offset="1" style="stop-color:#E6EFFF"/>
		</linearGradient>
		<path class="st8" d="M180.2,170.2L156.7,158c-0.9-0.5-1.8,0.5-1.3,1.4l14.3,22.3L180.2,170.2z"/>
		<path class="st9" d="M159.6,159.5l-3-1.5c-0.9-0.5-1.8,0.5-1.3,1.4l1.8,2.8L159.6,159.5z"/>
		<polygon class="st9" points="162.7,170.7 168.7,164.2 165.5,162.6 160.8,167.8 		"/>
		<polygon class="st9" points="169.7,181.7 180.2,170.2 174.8,167.4 166.4,176.6 		"/>
		<path class="st10" d="M155.5,158.2l19.1,18.1l-3.4,3.7l-16-21.3C155.3,158.5,155.4,158.4,155.5,158.2z"/>
	</g>
	<rect x="220.2" y="207.4" class="st11" width="43.4" height="69"/>
	<g>
		<path class="st12" d="M220.2,207.4v69h43.4v-69H220.2z M261.6,274.5h-39.5v-65.1h39.5V274.5z"/>
	</g>
	<linearGradient id="SVGID_5_" gradientUnits="userSpaceOnUse" x1="241.8848" y1="282.2433" x2="241.8848" y2="276.4149">
		<stop  offset="0" style="stop-color:#E6EFFF"/>
		<stop  offset="1" style="stop-color:#CEDAF0"/>
	</linearGradient>
	<rect x="225" y="276.4" class="st13" width="33.7" height="5.8"/>
	<rect x="225" y="276.4" class="st6" width="33.7" height="1"/>
	<linearGradient id="SVGID_6_" gradientUnits="userSpaceOnUse" x1="241.8849" y1="207.4462" x2="241.8849" y2="188.9897">
		<stop  offset="0" style="stop-color:#B3C3E0"/>
		<stop  offset="1" style="stop-color:#C9D7F0"/>
	</linearGradient>
	<rect x="220.2" y="189" class="st14" width="43.4" height="18.5"/>
	<polygon class="st6" points="262.6,189 262.6,206.5 221.2,206.5 221.2,189 220.2,189 220.2,207.4 263.6,207.4 263.6,189 	"/>
	<path class="st15" d="M208.7,185.1H64.9c-1.1,0-1.9-0.9-1.9-1.9v-5.8c0-1.1,0.9-1.9,1.9-1.9h143.8c1.1,0,1.9,0.9,1.9,1.9v5.8
		C210.6,184.2,209.8,185.1,208.7,185.1z"/>
	<g class="st10">
		<path d="M208.7,183.2H64.9c-1.1,0-1.9-0.9-1.9-1.9v1.9c0,1.1,0.9,1.9,1.9,1.9h143.8c1.1,0,1.9-0.9,1.9-1.9v-1.9
			C210.6,182.3,209.8,183.2,208.7,183.2z"/>
	</g>
	<g class="st16">
		<rect x="99.7" y="175.4" width="5.8" height="14.6"/>
	</g>
	<g class="st16">
		<rect x="167.7" y="175.4" width="5.8" height="14.6"/>
	</g>
	<linearGradient id="SVGID_7_" gradientUnits="userSpaceOnUse" x1="102.5713" y1="188.9897" x2="102.5713" y2="175.3902">
		<stop  offset="0" style="stop-color:#CEDAF0"/>
		<stop  offset="1" style="stop-color:#E6EFFF"/>
	</linearGradient>
	<rect x="100.6" y="175.4" class="st17" width="3.9" height="13.6"/>
	<linearGradient id="SVGID_8_" gradientUnits="userSpaceOnUse" x1="170.5686" y1="188.9897" x2="170.5686" y2="175.3902">
		<stop  offset="0" style="stop-color:#CEDAF0"/>
		<stop  offset="1" style="stop-color:#E6EFFF"/>
	</linearGradient>
	<rect x="168.6" y="175.4" class="st18" width="3.9" height="13.6"/>
	<g>
		<linearGradient id="SVGID_9_" gradientUnits="userSpaceOnUse" x1="178.8254" y1="162.2186" x2="194.3676" y2="162.2186">
			<stop  offset="0" style="stop-color:#CEDAF0"/>
			<stop  offset="1" style="stop-color:#E6EFFF"/>
		</linearGradient>
		<path class="st19" d="M194.4,175.4l-6.8-25.6c-0.3-1-1.6-1-1.9,0l-6.8,25.6H194.4z"/>
		<path class="st9" d="M188.4,153l-0.9-3.2c-0.3-1-1.6-1-1.9,0l-0.9,3.2H188.4z"/>
		<polygon class="st9" points="182.2,162.8 191,162.8 190.1,159.4 183.1,159.4 		"/>
		<polygon class="st9" points="178.8,175.4 194.4,175.4 192.8,169.5 180.4,169.5 		"/>
		<path class="st10" d="M186.6,149.1l0.4,26.3h5.1l-5-26.2C187,149.1,186.8,149.1,186.6,149.1z"/>
	</g>
	<rect x="220.2" y="240.7" class="st20" width="43.4" height="1"/>
	<rect x="229.9" y="209.4" class="st20" width="24" height="1"/>
	<rect x="252.9" y="207.4" class="st20" width="1" height="2.9"/>
	<rect x="229.9" y="207.4" class="st20" width="1" height="2.9"/>
	<path class="st16" d="M225.6,274.4c-1.8,0-3.2-1.4-3.2-3.2c0-1.8,1.4-3.2,3.2-3.2c1.8,0,3.2,1.4,3.2,3.2
		C228.9,273,227.4,274.4,225.6,274.4z"/>
	<linearGradient id="SVGID_10_" gradientUnits="userSpaceOnUse" x1="225.6344" y1="273.4456" x2="225.6344" y2="268.9527">
		<stop  offset="0" style="stop-color:#CEDAF0"/>
		<stop  offset="1" style="stop-color:#E6EFFF"/>
	</linearGradient>
	<path class="st21" d="M227.9,271.2c0,1.2-1,2.2-2.2,2.2c-1.2,0-2.2-1-2.2-2.2c0-1.2,1-2.2,2.2-2.2C226.9,269,227.9,270,227.9,271.2
		z"/>
	<path class="st16" d="M233.4,274.4c-1.8,0-3.2-1.4-3.2-3.2c0-1.8,1.4-3.2,3.2-3.2c1.8,0,3.2,1.4,3.2,3.2
		C236.6,273,235.2,274.4,233.4,274.4z"/>
	<linearGradient id="SVGID_11_" gradientUnits="userSpaceOnUse" x1="233.4055" y1="273.4456" x2="233.4055" y2="268.9527">
		<stop  offset="0" style="stop-color:#CEDAF0"/>
		<stop  offset="1" style="stop-color:#E6EFFF"/>
	</linearGradient>
	<path class="st22" d="M235.7,271.2c0,1.2-1,2.2-2.2,2.2c-1.2,0-2.2-1-2.2-2.2c0-1.2,1-2.2,2.2-2.2C234.6,269,235.7,270,235.7,271.2
		z"/>
	<path class="st16" d="M241.2,274.4c-1.8,0-3.2-1.4-3.2-3.2c0-1.8,1.4-3.2,3.2-3.2c1.8,0,3.2,1.4,3.2,3.2
		C244.4,273,243,274.4,241.2,274.4z"/>
	<linearGradient id="SVGID_12_" gradientUnits="userSpaceOnUse" x1="241.1766" y1="273.4456" x2="241.1766" y2="268.9527">
		<stop  offset="0" style="stop-color:#CEDAF0"/>
		<stop  offset="1" style="stop-color:#E6EFFF"/>
	</linearGradient>
	<path class="st23" d="M243.4,271.2c0,1.2-1,2.2-2.2,2.2c-1.2,0-2.2-1-2.2-2.2c0-1.2,1-2.2,2.2-2.2C242.4,269,243.4,270,243.4,271.2
		z"/>
	<path class="st16" d="M248.5,260c-4.4,0-8-3.6-8-8c0-4.4,3.6-8,8-8s8,3.6,8,8C256.4,256.4,252.8,260,248.5,260z"/>
	<linearGradient id="SVGID_13_" gradientUnits="userSpaceOnUse" x1="248.462" y1="258.9961" x2="248.462" y2="245.0323">
		<stop  offset="0" style="stop-color:#CEDAF0"/>
		<stop  offset="1" style="stop-color:#E6EFFF"/>
	</linearGradient>
	<path class="st24" d="M248.5,245c-3.9,0-7,3.1-7,7c0,3.9,3.1,7,7,7s7-3.1,7-7C255.4,248.2,252.3,245,248.5,245z M248.5,256.1
		c-2.2,0-4.1-1.8-4.1-4.1c0-2.2,1.8-4.1,4.1-4.1s4.1,1.8,4.1,4.1C252.5,254.3,250.7,256.1,248.5,256.1z"/>
	<path class="st16" d="M237.3,236.7c-2.5,0-4.6-2-4.6-4.6c0-2.5,2-4.6,4.6-4.6c2.5,0,4.6,2,4.6,4.6
		C241.8,234.6,239.8,236.7,237.3,236.7z"/>
	<linearGradient id="SVGID_14_" gradientUnits="userSpaceOnUse" x1="237.2911" y1="235.6827" x2="237.2911" y2="228.5187">
		<stop  offset="0" style="stop-color:#CEDAF0"/>
		<stop  offset="1" style="stop-color:#E6EFFF"/>
	</linearGradient>
	<circle class="st25" cx="237.3" cy="232.1" r="3.6"/>
	<path class="st16" d="M227.8,226.8c-2,0-3.7-1.7-3.7-3.7c0-2,1.7-3.7,3.7-3.7c2,0,3.7,1.7,3.7,3.7
		C231.5,225.2,229.8,226.8,227.8,226.8z"/>
	<linearGradient id="SVGID_15_" gradientUnits="userSpaceOnUse" x1="227.7794" y1="225.8474" x2="227.7794" y2="220.3832">
		<stop  offset="0" style="stop-color:#CEDAF0"/>
		<stop  offset="1" style="stop-color:#E6EFFF"/>
	</linearGradient>
	<path class="st26" d="M230.5,223.1c0,1.5-1.2,2.7-2.7,2.7c-1.5,0-2.7-1.2-2.7-2.7c0-1.5,1.2-2.7,2.7-2.7
		C229.3,220.4,230.5,221.6,230.5,223.1z"/>
	
		<rect x="246.7" y="220.9" transform="matrix(-1.836970e-16 1 -1 -1.836970e-16 479.6961 -28.7633)" class="st16" width="15" height="9.2"/>
	<linearGradient id="SVGID_16_" gradientUnits="userSpaceOnUse" x1="254.2297" y1="232.007" x2="254.2297" y2="218.9263">
		<stop  offset="0" style="stop-color:#CEDAF0"/>
		<stop  offset="1" style="stop-color:#E6EFFF"/>
	</linearGradient>
	<rect x="250.6" y="218.9" class="st27" width="7.3" height="13.1"/>
	
		<rect x="252.2" y="260.9" transform="matrix(-1.836970e-16 1 -1 -1.836970e-16 521.179 11.2625)" class="st16" width="5.5" height="10.7"/>
	<linearGradient id="SVGID_17_" gradientUnits="userSpaceOnUse" x1="254.9582" y1="267.9814" x2="254.9582" y2="264.4601">
		<stop  offset="0" style="stop-color:#CEDAF0"/>
		<stop  offset="1" style="stop-color:#E6EFFF"/>
	</linearGradient>
	<rect x="250.6" y="264.5" class="st28" width="8.7" height="3.5"/>
	
		<rect x="220.9" y="253.1" transform="matrix(-1.836970e-16 1 -1 -1.836970e-16 483.7905 28.7377)" class="st16" width="13.2" height="6.3"/>
	<linearGradient id="SVGID_18_" gradientUnits="userSpaceOnUse" x1="227.5263" y1="261.9103" x2="227.5263" y2="250.6178">
		<stop  offset="0" style="stop-color:#CEDAF0"/>
		<stop  offset="1" style="stop-color:#E6EFFF"/>
	</linearGradient>
	<rect x="225.3" y="250.6" class="st29" width="4.4" height="11.3"/>
	
		<rect x="229.9" y="257.6" transform="matrix(-1.836970e-16 1 -1 -1.836970e-16 492.7608 26.3848)" class="st16" width="6.6" height="3.9"/>
	<linearGradient id="SVGID_19_" gradientUnits="userSpaceOnUse" x1="233.188" y1="261.9103" x2="233.188" y2="257.2354">
		<stop  offset="0" style="stop-color:#CEDAF0"/>
		<stop  offset="1" style="stop-color:#E6EFFF"/>
	</linearGradient>
	<rect x="232.2" y="257.2" class="st30" width="2" height="4.7"/>
	
		<rect x="234.4" y="257.6" transform="matrix(-1.836970e-16 1 -1 -1.836970e-16 497.2683 21.8773)" class="st16" width="6.6" height="3.9"/>
	<linearGradient id="SVGID_20_" gradientUnits="userSpaceOnUse" x1="237.6957" y1="261.9103" x2="237.6957" y2="257.2354">
		<stop  offset="0" style="stop-color:#CEDAF0"/>
		<stop  offset="1" style="stop-color:#E6EFFF"/>
	</linearGradient>
	<rect x="236.7" y="257.2" class="st31" width="2" height="4.7"/>
	<path class="st32" d="M219.2,202.1v-1.9h-171v1.9H55v17.5h-6.8v1.9h171v-1.9h-6.8v-17.5H219.2z M56.9,219.6v-17.5h7.8v17.5H56.9z
		 M66.6,219.6v-17.5h7.8v17.5H66.6z M76.4,219.6v-17.5h7.8v17.5H76.4z M86.1,219.6v-17.5h7.8v17.5H86.1z M95.8,219.6v-17.5h7.8v17.5
		H95.8z M105.5,219.6v-17.5h7.8v17.5H105.5z M115.2,219.6v-17.5h7.8v17.5H115.2z M124.9,219.6v-17.5h7.8v17.5H124.9z M134.6,219.6
		v-17.5h7.8v17.5H134.6z M144.4,219.6v-17.5h7.8v17.5H144.4z M154.1,219.6v-17.5h7.8v17.5H154.1z M163.8,219.6v-17.5h7.8v17.5H163.8
		z M173.5,219.6v-17.5h7.8v17.5H173.5z M183.2,219.6v-17.5h7.8v17.5H183.2z M192.9,219.6v-17.5h7.8v17.5H192.9z M210.4,219.6h-7.8
		v-17.5h7.8V219.6z"/>
	<g>
		<path class="st33" d="M219.2,200.2l1-1l-175.8-1.9l-1,1v1.9h8.7v17.5l-7.8-1l-1,1v1.9h175.8l1-1l-10.7-1v-17.5H219.2z M54,217.6
			v-17.5h7.8v17.5H54z M63.7,217.6v-17.5h7.8v17.5H63.7z M73.4,217.6v-17.5h7.8v17.5H73.4z M83.2,217.6v-17.5h7.8v17.5H83.2z
			 M92.9,217.6v-17.5h7.8v17.5H92.9z M102.6,217.6v-17.5h7.8v17.5H102.6z M112.3,217.6v-17.5h7.8v17.5H112.3z M122,217.6v-17.5h7.8
			v17.5H122z M131.7,217.6v-17.5h7.8v17.5H131.7z M141.4,217.6v-17.5h7.8v17.5H141.4z M151.2,217.6v-17.5h7.8v17.5H151.2z
			 M160.9,217.6v-17.5h7.8v17.5H160.9z M170.6,217.6v-17.5h7.8v17.5H170.6z M180.3,217.6v-17.5h7.8v17.5H180.3z M190,217.6v-17.5
			h7.8v17.5H190z M207.5,217.6h-7.8v-17.5h7.8V217.6z"/>
	</g>
	<g>
		<path class="st34" d="M220.1,199.2v-1.9H44.3v1.9H53v17.5h-8.7v1.9h175.8v-1.9h-9.7v-17.5H220.1z M55,216.7v-17.5h7.8v17.5H55z
			 M64.7,216.7v-17.5h7.8v17.5H64.7z M74.4,216.7v-17.5h7.8v17.5H74.4z M84.1,216.7v-17.5h7.8v17.5H84.1z M93.8,216.7v-17.5h7.8
			v17.5H93.8z M103.6,216.7v-17.5h7.8v17.5H103.6z M113.3,216.7v-17.5h7.8v17.5H113.3z M123,216.7v-17.5h7.8v17.5H123z M132.7,216.7
			v-17.5h7.8v17.5H132.7z M142.4,216.7v-17.5h7.8v17.5H142.4z M152.1,216.7v-17.5h7.8v17.5H152.1z M161.8,216.7v-17.5h7.8v17.5
			H161.8z M171.6,216.7v-17.5h7.8v17.5H171.6z M181.3,216.7v-17.5h7.8v17.5H181.3z M191,216.7v-17.5h7.8v17.5H191z M208.5,216.7
			h-7.8v-17.5h7.8V216.7z"/>
	</g>
	<rect x="48.3" y="233.7" class="st3" width="171.9" height="5.7"/>
	
		<rect x="89.1" y="234.2" transform="matrix(-1.836970e-16 1 -1 -1.836970e-16 335.9136 146.0554)" class="st6" width="11.7" height="13.6"/>
	<linearGradient id="SVGID_21_" gradientUnits="userSpaceOnUse" x1="94.9291" y1="245.8419" x2="94.9291" y2="236.1279">
		<stop  offset="5.263160e-03" style="stop-color:#646D8A"/>
		<stop  offset="1" style="stop-color:#F2F2F2"/>
	</linearGradient>
	<rect x="89.1" y="236.1" class="st35" width="11.7" height="9.7"/>
	
		<rect x="163.9" y="234.2" transform="matrix(-1.836970e-16 1 -1 -1.836970e-16 410.7107 71.2583)" class="st6" width="11.7" height="13.6"/>
	<linearGradient id="SVGID_22_" gradientUnits="userSpaceOnUse" x1="169.7263" y1="245.8419" x2="169.7263" y2="236.1279">
		<stop  offset="5.263160e-03" style="stop-color:#646D8A"/>
		<stop  offset="1" style="stop-color:#F2F2F2"/>
	</linearGradient>
	<rect x="163.9" y="236.1" class="st36" width="11.7" height="9.7"/>
	<path class="st6" d="M402,275.3c-1.1,0-1.9-0.9-1.9-1.9v-1.9c0-1.1,0.9-1.9,1.9-1.9h5.8c1.1,0,1.9,0.9,1.9,1.9v1.9
		c0,1.1-0.9,1.9-1.9,1.9H402z"/>
	<linearGradient id="SVGID_23_" gradientUnits="userSpaceOnUse" x1="404.9167" y1="274.3398" x2="404.9167" y2="270.454">
		<stop  offset="0" style="stop-color:#F40012"/>
		<stop  offset="1" style="stop-color:#FF3D4C"/>
	</linearGradient>
	<path class="st37" d="M407.8,274.3H402c-0.5,0-1-0.4-1-1v-1.9c0-0.5,0.4-1,1-1h5.8c0.5,0,1,0.4,1,1v1.9
		C408.8,273.9,408.4,274.3,407.8,274.3z"/>
	<rect x="371.9" y="183.4" class="st38" width="3.9" height="1.9"/>
	<rect x="369" y="182.5" class="st38" width="9.7" height="1"/>
	<linearGradient id="SVGID_24_" gradientUnits="userSpaceOnUse" x1="373.8727" y1="182.4659" x2="373.8727" y2="178.5804">
		<stop  offset="0" style="stop-color:#F40012"/>
		<stop  offset="1" style="stop-color:#FF3D4C"/>
	</linearGradient>
	<path class="st39" d="M371.6,178.6h4.6c0.4,0,0.7,0.2,0.9,0.5l1.7,3.3H369l1.7-3.3C370.9,178.8,371.2,178.6,371.6,178.6z"/>
	<path class="st40" d="M388.1,185.4c-2.1,0-3.8,0-6.3,0c0-1.8,1.4-3.2,3.2-3.2C386.7,182.2,388.1,183.6,388.1,185.4z"/>
	<path class="st41" d="M381.9,184.4c-0.1,0.3-0.2,0.6-0.2,1c2.5,0,4.3,0,6.3,0c0-0.3-0.1-0.7-0.2-1
		C386,184.4,384.3,184.4,381.9,184.4z"/>
	<path class="st6" d="M400.1,225.2c-2.8,0-5.3-1.9-5.9-4.7l-4.5-25.1c-0.2-1.3,0.1-2.5,0.9-3.5c0.8-1,2-1.5,3.3-1.5h1l8.3,34.8
		H400.1z"/>
	<path class="st42" d="M403.1,224.7l-8.1-33.8h-1.1c-2.4,0-4.2,2.1-3.7,4.5l4.5,25.1c0.6,2.5,2.9,4.3,5.5,4.3H403.1z"/>
	<path class="st43" d="M390.2,195.7c0.4-1.6,1.9-2.9,3.7-2.9h1.6l-0.5-1.9h-1.1c-2.4,0-4.2,2.1-3.7,4.5L390.2,195.7z"/>
	<polygon class="st42" points="390.1,222.2 384.9,190.8 352.8,190.8 352.8,222.2 	"/>
	<polygon class="st43" points="380.1,192.8 384.9,222.2 390.1,222.2 384.9,190.8 352.8,190.8 352.8,192.8 	"/>
	<rect x="270.2" y="190.8" class="st42" width="40.3" height="31.4"/>
	<polygon class="st43" points="270.2,190.8 270.2,192.8 308.6,192.8 308.6,222.2 310.5,222.2 310.5,190.8 	"/>
	<rect x="318.8" y="190.8" class="st42" width="20.9" height="31.4"/>
	<polygon class="st43" points="318.8,190.8 318.8,192.8 336.8,192.8 336.8,222.2 339.7,222.2 339.7,190.8 	"/>
	<path class="st43" d="M375.7,222.2h-1.9l6.6-9.2c0.3-0.4,0.8-0.4,1.1-0.2l0,0c0.4,0.3,0.4,0.8,0.2,1.1L375.7,222.2z"/>
	<polygon class="st43" points="359.9,222.2 355.5,209.5 352.8,209.5 352.8,222.2 	"/>
	<g class="st16">
		<defs>
			<filter id="Adobe_OpacityMaskFilter" filterUnits="userSpaceOnUse" x="352.8" y="190.8" width="37.3" height="31.4">
				<feFlood  style="flood-color:white;flood-opacity:1" result="back"/>
				<feBlend  in="SourceGraphic" in2="back" mode="normal"/>
			</filter>
		</defs>
		<mask maskUnits="userSpaceOnUse" x="352.8" y="190.8" width="37.3" height="31.4" id="SVGID_25_">
			<g class="st44">
				<defs>
					<filter id="Adobe_OpacityMaskFilter_1_" filterUnits="userSpaceOnUse" x="352.8" y="190.8" width="37.3" height="31.4">
						<feFlood  style="flood-color:white;flood-opacity:1" result="back"/>
						<feBlend  in="SourceGraphic" in2="back" mode="normal"/>
					</filter>
				</defs>
				<mask maskUnits="userSpaceOnUse" x="352.8" y="190.8" width="37.3" height="31.4" id="SVGID_25_">
					<g class="st45">
					</g>
				</mask>
				<linearGradient id="SVGID_26_" gradientUnits="userSpaceOnUse" x1="371.4488" y1="222.2451" x2="371.4488" y2="190.8368">
					<stop  offset="0" style="stop-color:#000000"/>
					<stop  offset="1" style="stop-color:#FFFFFF"/>
				</linearGradient>
				<polygon class="st46" points="390.1,222.2 384.9,190.8 352.8,190.8 352.8,222.2 				"/>
			</g>
		</mask>
		<linearGradient id="SVGID_27_" gradientUnits="userSpaceOnUse" x1="371.4488" y1="222.2451" x2="371.4488" y2="190.8368">
			<stop  offset="0" style="stop-color:#FFFFFF"/>
			<stop  offset="1" style="stop-color:#FFFFFF"/>
		</linearGradient>
		<polygon class="st47" points="390.1,222.2 384.9,190.8 352.8,190.8 352.8,222.2 		"/>
	</g>
	<polygon class="st43" points="277.3,222.2 272.9,209.5 270.2,209.5 270.2,222.2 	"/>
	<g class="st16">
		<defs>
			<filter id="Adobe_OpacityMaskFilter_2_" filterUnits="userSpaceOnUse" x="318.8" y="190.8" width="20.9" height="31.4">
				<feFlood  style="flood-color:white;flood-opacity:1" result="back"/>
				<feBlend  in="SourceGraphic" in2="back" mode="normal"/>
			</filter>
		</defs>
		<mask maskUnits="userSpaceOnUse" x="318.8" y="190.8" width="20.9" height="31.4" id="SVGID_28_">
			<g class="st48">
				<defs>
					<filter id="Adobe_OpacityMaskFilter_3_" filterUnits="userSpaceOnUse" x="318.8" y="190.8" width="20.9" height="31.4">
						<feFlood  style="flood-color:white;flood-opacity:1" result="back"/>
						<feBlend  in="SourceGraphic" in2="back" mode="normal"/>
					</filter>
				</defs>
				<mask maskUnits="userSpaceOnUse" x="318.8" y="190.8" width="20.9" height="31.4" id="SVGID_28_">
					<g class="st49">
					</g>
				</mask>
				<linearGradient id="SVGID_29_" gradientUnits="userSpaceOnUse" x1="329.2292" y1="222.2451" x2="329.2292" y2="190.8368">
					<stop  offset="0" style="stop-color:#000000"/>
					<stop  offset="1" style="stop-color:#FFFFFF"/>
				</linearGradient>
				<rect x="318.8" y="190.8" class="st50" width="20.9" height="31.4"/>
			</g>
		</mask>
		<linearGradient id="SVGID_30_" gradientUnits="userSpaceOnUse" x1="329.2292" y1="222.2451" x2="329.2292" y2="190.8368">
			<stop  offset="0" style="stop-color:#FFFFFF"/>
			<stop  offset="1" style="stop-color:#FFFFFF"/>
		</linearGradient>
		<rect x="318.8" y="190.8" class="st51" width="20.9" height="31.4"/>
	</g>
	<g class="st52">
		<path class="st53" d="M384.9,190.8h-32.2v31.4h37.3L384.9,190.8z M353.3,191.3h31.3l5,30.4h-36.3V191.3z"/>
	</g>
	<g class="st52">
		<path class="st53" d="M318.8,190.8v31.4h20.9v-31.4H318.8z M339.2,221.8h-19.9v-30.4h19.9V221.8z"/>
	</g>
	<g class="st16">
		<defs>
			<filter id="Adobe_OpacityMaskFilter_4_" filterUnits="userSpaceOnUse" x="270.2" y="190.8" width="40.3" height="31.4">
				<feFlood  style="flood-color:white;flood-opacity:1" result="back"/>
				<feBlend  in="SourceGraphic" in2="back" mode="normal"/>
			</filter>
		</defs>
		<mask maskUnits="userSpaceOnUse" x="270.2" y="190.8" width="40.3" height="31.4" id="SVGID_31_">
			<g class="st54">
				<defs>
					<filter id="Adobe_OpacityMaskFilter_5_" filterUnits="userSpaceOnUse" x="270.2" y="190.8" width="40.3" height="31.4">
						<feFlood  style="flood-color:white;flood-opacity:1" result="back"/>
						<feBlend  in="SourceGraphic" in2="back" mode="normal"/>
					</filter>
				</defs>
				<mask maskUnits="userSpaceOnUse" x="270.2" y="190.8" width="40.3" height="31.4" id="SVGID_31_">
					<g class="st55">
					</g>
				</mask>
				<linearGradient id="SVGID_32_" gradientUnits="userSpaceOnUse" x1="290.3735" y1="222.2451" x2="290.3735" y2="190.8368">
					<stop  offset="0" style="stop-color:#000000"/>
					<stop  offset="1" style="stop-color:#FFFFFF"/>
				</linearGradient>
				<rect x="270.2" y="190.8" class="st56" width="40.3" height="31.4"/>
			</g>
		</mask>
		<linearGradient id="SVGID_33_" gradientUnits="userSpaceOnUse" x1="290.3735" y1="222.2451" x2="290.3735" y2="190.8368">
			<stop  offset="0" style="stop-color:#FFFFFF"/>
			<stop  offset="1" style="stop-color:#FFFFFF"/>
		</linearGradient>
		<rect x="270.2" y="190.8" class="st57" width="40.3" height="31.4"/>
	</g>
	<g class="st52">
		<path class="st53" d="M270.2,190.8v31.4h40.3v-31.4H270.2z M310,221.8h-39.3v-30.4H310V221.8z"/>
	</g>
	<g class="st16">
		<defs>
			<filter id="Adobe_OpacityMaskFilter_6_" filterUnits="userSpaceOnUse" x="390.1" y="190.8" width="13" height="33.8">
				<feFlood  style="flood-color:white;flood-opacity:1" result="back"/>
				<feBlend  in="SourceGraphic" in2="back" mode="normal"/>
			</filter>
		</defs>
		<mask maskUnits="userSpaceOnUse" x="390.1" y="190.8" width="13" height="33.8" id="SVGID_34_">
			<g class="st58">
				<defs>
					<filter id="Adobe_OpacityMaskFilter_7_" filterUnits="userSpaceOnUse" x="390.1" y="190.8" width="13" height="33.8">
						<feFlood  style="flood-color:white;flood-opacity:1" result="back"/>
						<feBlend  in="SourceGraphic" in2="back" mode="normal"/>
					</filter>
				</defs>
				<mask maskUnits="userSpaceOnUse" x="390.1" y="190.8" width="13" height="33.8" id="SVGID_34_">
					<g class="st59">
					</g>
				</mask>
				<linearGradient id="SVGID_35_" gradientUnits="userSpaceOnUse" x1="396.6067" y1="224.6735" x2="396.6067" y2="190.8368">
					<stop  offset="0" style="stop-color:#000000"/>
					<stop  offset="1" style="stop-color:#FFFFFF"/>
				</linearGradient>
				<path class="st60" d="M403.1,224.7l-8.1-33.8h-1.1c-2.4,0-4.2,2.1-3.7,4.5l4.5,25.1c0.6,2.5,2.9,4.3,5.5,4.3H403.1z"/>
			</g>
		</mask>
		<linearGradient id="SVGID_36_" gradientUnits="userSpaceOnUse" x1="396.6067" y1="224.6735" x2="396.6067" y2="190.8368">
			<stop  offset="0" style="stop-color:#FFFFFF"/>
			<stop  offset="1" style="stop-color:#FFFFFF"/>
		</linearGradient>
		<path class="st61" d="M403.1,224.7l-8.1-33.8h-1.1c-2.4,0-4.2,2.1-3.7,4.5l4.5,25.1c0.6,2.5,2.9,4.3,5.5,4.3H403.1z"/>
	</g>
	<g class="st52">
		<path class="st53" d="M400.1,224.2c-2.4,0-4.4-1.6-5-3.9l-4.5-25c-0.2-1,0.1-2,0.7-2.7c0.6-0.8,1.6-1.2,2.5-1.2h1.2l-0.1-0.5h-1.1
			c-2.4,0-4.2,2.1-3.7,4.5l4.5,25.1c0.6,2.5,2.9,4.3,5.5,4.3h3l-0.1-0.5H400.1z"/>
	</g>
	<path class="st16" d="M393.2,275.7h-32.5l-0.1-0.2l-12-30.1v-57.7h38.2l6.4,36.9L393.2,275.7z M361.1,274.9h31.3v-50.3l-6.3-36.2
		h-36.9v56.9L361.1,274.9z"/>
	
		<rect x="349.2" y="236" transform="matrix(-1.836970e-16 1 -1 -1.836970e-16 592.4534 -115.0984)" class="st6" width="9.2" height="5.4"/>
	<linearGradient id="SVGID_37_" gradientUnits="userSpaceOnUse" x1="353.7758" y1="242.3206" x2="353.7758" y2="235.035">
		<stop  offset="5.263160e-03" style="stop-color:#646D8A"/>
		<stop  offset="1" style="stop-color:#F2F2F2"/>
	</linearGradient>
	<rect x="352" y="235" class="st62" width="3.5" height="7.3"/>
	
		<rect x="269.5" y="236" transform="matrix(-1.836970e-16 1 -1 -1.836970e-16 512.7993 -35.4443)" class="st6" width="9.2" height="5.4"/>
	<linearGradient id="SVGID_38_" gradientUnits="userSpaceOnUse" x1="274.1217" y1="242.3206" x2="274.1217" y2="235.035">
		<stop  offset="5.263160e-03" style="stop-color:#646D8A"/>
		<stop  offset="1" style="stop-color:#F2F2F2"/>
	</linearGradient>
	<rect x="272.4" y="235" class="st63" width="3.5" height="7.3"/>
	<linearGradient id="SVGID_39_" gradientUnits="userSpaceOnUse" x1="345.0332" y1="214.8788" x2="345.0332" y2="211.9646">
		<stop  offset="5.263160e-03" style="stop-color:#646D8A"/>
		<stop  offset="1" style="stop-color:#F2F2F2"/>
	</linearGradient>
	<path class="st64" d="M346.5,213.4c0,0.8-0.7,1.5-1.5,1.5c-0.8,0-1.5-0.7-1.5-1.5c0-0.8,0.7-1.5,1.5-1.5
		C345.8,212,346.5,212.6,346.5,213.4z"/>
	<linearGradient id="SVGID_40_" gradientUnits="userSpaceOnUse" x1="345.0332" y1="242.0777" x2="345.0332" y2="239.1635">
		<stop  offset="5.263160e-03" style="stop-color:#646D8A"/>
		<stop  offset="1" style="stop-color:#F2F2F2"/>
	</linearGradient>
	<path class="st65" d="M346.5,240.6c0,0.8-0.7,1.5-1.5,1.5c-0.8,0-1.5-0.7-1.5-1.5s0.7-1.5,1.5-1.5
		C345.8,239.2,346.5,239.8,346.5,240.6z"/>
	<linearGradient id="SVGID_41_" gradientUnits="userSpaceOnUse" x1="345.0332" y1="240.6206" x2="345.0332" y2="213.4217">
		<stop  offset="5.263160e-03" style="stop-color:#646D8A"/>
		<stop  offset="1" style="stop-color:#F2F2F2"/>
	</linearGradient>
	<rect x="344.5" y="213.4" class="st66" width="1" height="27.2"/>
	<path class="st16" d="M289.1,273.8h-22.7v-85.7h47.5v57.1l-0.1,0.1L289.1,273.8z M267.1,273.1h21.6l24.4-28.2v-56.1h-46V273.1z"/>
	<linearGradient id="SVGID_42_" gradientUnits="userSpaceOnUse" x1="404.431" y1="250.0917" x2="404.431" y2="240.3777">
		<stop  offset="5.263160e-03" style="stop-color:#646D8A"/>
		<stop  offset="1" style="stop-color:#F2F2F2"/>
	</linearGradient>
	<rect x="403.5" y="240.4" class="st67" width="1.9" height="9.7"/>
	<path class="st40" d="M405.4,240.4v9.7c0.7,0,1.3-2.2,1.3-4.9S406.1,240.4,405.4,240.4z"/>
	<g>
		<linearGradient id="SVGID_43_" gradientUnits="userSpaceOnUse" x1="130.9411" y1="302.0171" x2="130.9411" y2="253.9103">
			<stop  offset="0" style="stop-color:#1A1A1A"/>
			<stop  offset="1" style="stop-color:#333333"/>
		</linearGradient>
		<circle class="st68" cx="130.9" cy="278" r="24.1"/>
		<linearGradient id="SVGID_44_" gradientUnits="userSpaceOnUse" x1="130.9409" y1="298.5075" x2="130.9409" y2="257.4199">
			<stop  offset="0" style="stop-color:#333333"/>
			<stop  offset="1" style="stop-color:#1A1A1A"/>
		</linearGradient>
		<path class="st69" d="M130.9,257.4c-11.3,0-20.5,9.2-20.5,20.5c0,11.3,9.2,20.5,20.5,20.5c11.3,0,20.5-9.2,20.5-20.5
			C151.5,266.6,142.3,257.4,130.9,257.4z M130.9,296.2c-10,0-18.2-8.2-18.2-18.2c0-10,8.2-18.2,18.2-18.2c10,0,18.2,8.2,18.2,18.2
			C149.1,288,141,296.2,130.9,296.2z"/>
		<linearGradient id="SVGID_45_" gradientUnits="userSpaceOnUse" x1="130.6666" y1="292.6579" x2="130.6666" y2="263.2693">
			<stop  offset="0" style="stop-color:#808080"/>
			<stop  offset="1" style="stop-color:#666666"/>
		</linearGradient>
		<path class="st70" d="M130.7,292.7c-8.1,0-14.7-6.6-14.7-14.7c0-8.1,6.6-14.7,14.7-14.7s14.7,6.6,14.7,14.7
			C145.4,286.1,138.8,292.7,130.7,292.7z"/>
		<linearGradient id="SVGID_46_" gradientUnits="userSpaceOnUse" x1="130.6666" y1="291.488" x2="130.6666" y2="264.4391">
			<stop  offset="0" style="stop-color:#666666"/>
			<stop  offset="1" style="stop-color:#333333"/>
		</linearGradient>
		<path class="st71" d="M130.7,291.5c-7.5,0-13.5-6.1-13.5-13.5c0-7.5,6.1-13.5,13.5-13.5c7.5,0,13.5,6.1,13.5,13.5
			C144.2,285.4,138.1,291.5,130.7,291.5z"/>
		<linearGradient id="SVGID_47_" gradientUnits="userSpaceOnUse" x1="130.6667" y1="286.8083" x2="130.6667" y2="269.1188">
			<stop  offset="0" style="stop-color:#666666"/>
			<stop  offset="1" style="stop-color:#999999"/>
		</linearGradient>
		<path class="st72" d="M130.7,286.8c-4.9,0-8.8-4-8.8-8.8c0-4.9,4-8.8,8.8-8.8c4.9,0,8.8,4,8.8,8.8
			C139.5,282.8,135.5,286.8,130.7,286.8z"/>
		<g>
			<defs>
				<path id="SVGID_48_" d="M130.7,291.5c-7.5,0-13.5-6.1-13.5-13.5c0-7.5,6.1-13.5,13.5-13.5c7.5,0,13.5,6.1,13.5,13.5
					C144.2,285.4,138.1,291.5,130.7,291.5z"/>
			</defs>
			<clipPath id="SVGID_49_">
				<use xlink:href="#SVGID_48_"  style="overflow:visible;"/>
			</clipPath>
			<g class="st73">
				<path class="st74" d="M119.5,278c0,1.3-1,2.3-2.3,2.3c-1.3,0-2.3-1-2.3-2.3c0-1.3,1-2.3,2.3-2.3
					C118.4,275.6,119.5,276.7,119.5,278z"/>
				<path class="st74" d="M146.5,278c0,1.3-1,2.3-2.3,2.3c-1.3,0-2.3-1-2.3-2.3c0-1.3,1-2.3,2.3-2.3
					C145.5,275.6,146.5,276.7,146.5,278z"/>
				<circle class="st74" cx="140.2" cy="268.4" r="2.3"/>
				<path class="st74" d="M119.4,289.2c-0.9-0.9-0.9-2.4,0-3.3c0.9-0.9,2.4-0.9,3.3,0c0.9,0.9,0.9,2.4,0,3.3
					C121.8,290.1,120.4,290.1,119.4,289.2z"/>
				<path class="st74" d="M138.6,285.9c0.9-0.9,2.4-0.9,3.3,0c0.9,0.9,0.9,2.4,0,3.3c-0.9,0.9-2.4,0.9-3.3,0
					C137.7,288.3,137.7,286.8,138.6,285.9z"/>
				<circle class="st74" cx="121.1" cy="268.4" r="2.3"/>
				<circle class="st74" cx="130.7" cy="291.5" r="2.3"/>
				<circle class="st74" cx="130.7" cy="264.4" r="2.3"/>
			</g>
		</g>
		<path class="st52" d="M130.7,264.4c-7.5,0-13.5,6.1-13.5,13.5c0,7.5,6.1,13.5,13.5,13.5c7.5,0,13.5-6.1,13.5-13.5
			C144.2,270.5,138.1,264.4,130.7,264.4z M130.7,290.9c-7.1,0-12.9-5.8-12.9-12.9c0-7.1,5.8-12.9,12.9-12.9
			c7.1,0,12.9,5.8,12.9,12.9C143.6,285.1,137.8,290.9,130.7,290.9z"/>
	</g>
	<g>
		<linearGradient id="SVGID_50_" gradientUnits="userSpaceOnUse" x1="326.8961" y1="302.0171" x2="326.8961" y2="253.9103">
			<stop  offset="0" style="stop-color:#1A1A1A"/>
			<stop  offset="1" style="stop-color:#333333"/>
		</linearGradient>
		<circle class="st75" cx="326.9" cy="278" r="24.1"/>
		<linearGradient id="SVGID_51_" gradientUnits="userSpaceOnUse" x1="326.8958" y1="298.5075" x2="326.8958" y2="257.4199">
			<stop  offset="0" style="stop-color:#333333"/>
			<stop  offset="1" style="stop-color:#1A1A1A"/>
		</linearGradient>
		<path class="st76" d="M326.9,257.4c-11.3,0-20.5,9.2-20.5,20.5c0,11.3,9.2,20.5,20.5,20.5c11.3,0,20.5-9.2,20.5-20.5
			C347.4,266.6,338.2,257.4,326.9,257.4z M326.9,296.2c-10,0-18.2-8.2-18.2-18.2c0-10,8.2-18.2,18.2-18.2c10,0,18.2,8.2,18.2,18.2
			C345.1,288,336.9,296.2,326.9,296.2z"/>
		<linearGradient id="SVGID_52_" gradientUnits="userSpaceOnUse" x1="326.6216" y1="292.6579" x2="326.6216" y2="263.2693">
			<stop  offset="0" style="stop-color:#808080"/>
			<stop  offset="1" style="stop-color:#666666"/>
		</linearGradient>
		<path class="st77" d="M326.6,292.7c-8.1,0-14.7-6.6-14.7-14.7c0-8.1,6.6-14.7,14.7-14.7c8.1,0,14.7,6.6,14.7,14.7
			C341.3,286.1,334.7,292.7,326.6,292.7z"/>
		<linearGradient id="SVGID_53_" gradientUnits="userSpaceOnUse" x1="326.6216" y1="291.488" x2="326.6216" y2="264.4391">
			<stop  offset="0" style="stop-color:#666666"/>
			<stop  offset="1" style="stop-color:#333333"/>
		</linearGradient>
		<path class="st78" d="M326.6,291.5c-7.5,0-13.5-6.1-13.5-13.5c0-7.5,6.1-13.5,13.5-13.5c7.5,0,13.5,6.1,13.5,13.5
			C340.1,285.4,334.1,291.5,326.6,291.5z"/>
		<linearGradient id="SVGID_54_" gradientUnits="userSpaceOnUse" x1="326.6217" y1="286.8083" x2="326.6217" y2="269.1188">
			<stop  offset="0" style="stop-color:#666666"/>
			<stop  offset="1" style="stop-color:#999999"/>
		</linearGradient>
		<path class="st79" d="M326.6,286.8c-4.9,0-8.8-4-8.8-8.8c0-4.9,4-8.8,8.8-8.8c4.9,0,8.8,4,8.8,8.8
			C335.5,282.8,331.5,286.8,326.6,286.8z"/>
		<g>
			<defs>
				<path id="SVGID_55_" d="M326.6,291.5c-7.5,0-13.5-6.1-13.5-13.5c0-7.5,6.1-13.5,13.5-13.5c7.5,0,13.5,6.1,13.5,13.5
					C340.1,285.4,334.1,291.5,326.6,291.5z"/>
			</defs>
			<clipPath id="SVGID_56_">
				<use xlink:href="#SVGID_55_"  style="overflow:visible;"/>
			</clipPath>
			<g class="st80">
				<path class="st74" d="M315.4,278c0,1.3-1,2.3-2.3,2.3c-1.3,0-2.3-1-2.3-2.3c0-1.3,1-2.3,2.3-2.3
					C314.4,275.6,315.4,276.7,315.4,278z"/>
				<path class="st74" d="M342.5,278c0,1.3-1,2.3-2.3,2.3c-1.3,0-2.3-1-2.3-2.3c0-1.3,1-2.3,2.3-2.3
					C341.4,275.6,342.5,276.7,342.5,278z"/>
				<circle class="st74" cx="336.2" cy="268.4" r="2.3"/>
				<path class="st74" d="M315.4,289.2c-0.9-0.9-0.9-2.4,0-3.3c0.9-0.9,2.4-0.9,3.3,0c0.9,0.9,0.9,2.4,0,3.3
					C317.8,290.1,316.3,290.1,315.4,289.2z"/>
				<path class="st74" d="M334.5,285.9c0.9-0.9,2.4-0.9,3.3,0c0.9,0.9,0.9,2.4,0,3.3c-0.9,0.9-2.4,0.9-3.3,0
					C333.6,288.3,333.6,286.8,334.5,285.9z"/>
				<circle class="st74" cx="317.1" cy="268.4" r="2.3"/>
				<circle class="st74" cx="326.6" cy="291.5" r="2.3"/>
				<circle class="st74" cx="326.6" cy="264.4" r="2.3"/>
			</g>
		</g>
		<path class="st52" d="M326.6,264.4c-7.5,0-13.5,6.1-13.5,13.5c0,7.5,6.1,13.5,13.5,13.5c7.5,0,13.5-6.1,13.5-13.5
			C340.1,270.5,334.1,264.4,326.6,264.4z M326.6,290.9c-7.1,0-12.9-5.8-12.9-12.9c0-7.1,5.8-12.9,12.9-12.9
			c7.1,0,12.9,5.8,12.9,12.9C339.6,285.1,333.8,290.9,326.6,290.9z"/>
	</g>
</g>
</svg>
