<svg id="Layer_1" data-name="Layer 1" xmlns="http://www.w3.org/2000/svg" viewBox="0 0 744.93 458.17"><defs><style>.cls-1{fill:#d42a2a;}.cls-2{fill:#464147;}.cls-3{fill:#f4f4f4;}.cls-4{fill:#68b498;}.cls-5{fill:#69b599;}.cls-6,.cls-7{fill:#fff;}.cls-7{opacity:0.44;}</style></defs><title>LOGO-1.5-NOBG</title><polygon class="cls-1" points="478.59 24.6 470.96 16.23 374.79 0 363.72 0 356.09 11.07 356.09 14.51 466.78 31.24 478.59 28.78 478.59 24.6"/><path class="cls-2" d="M160.45,316.73H117.21V295.88h66.35v91.73a47.71,47.71,0,0,1-8.72,3.19q-5.74,1.63-13.11,3t-15.81,2.27a165.92,165.92,0,0,1-16.66.85q-24.39,0-43-6.66T55,371.45a79,79,0,0,1-19.14-29.63Q29.31,324.38,29.31,303q0-23.25,7.14-42.25a89.5,89.5,0,0,1,20.7-32.47,92.36,92.36,0,0,1,32.77-20.77,118.23,118.23,0,0,1,42.32-7.3q6.24,0,12.48.5t11.91,1.42q5.67.92,10.49,2.2A57.84,57.84,0,0,1,175.2,207v20.42a135.1,135.1,0,0,0-19.56-4.75,129.42,129.42,0,0,0-22.12-1.91,96.87,96.87,0,0,0-30.84,4.89A73.71,73.71,0,0,0,76.8,240.45a71.64,71.64,0,0,0-17.86,24.88q-6.67,15-6.66,35.09,0,19.71,5.53,34a62.05,62.05,0,0,0,15.66,23.68A63.07,63.07,0,0,0,98,371.95a108.4,108.4,0,0,0,32.11,4.47,152.42,152.42,0,0,0,16.16-.85,102.7,102.7,0,0,0,14.15-2.41Z" transform="translate(-23.9 -5.08)"/><path class="cls-2" d="M253.46,372.58h97.26v20.84H230.35V203.73H345.47v20.84h-92v61.25h81.8v20.84h-81.8Z" transform="translate(-23.9 -5.08)"/><path class="cls-2" d="M458.46,393.43H435.35V224.57H372V203.73H521.84v20.84H458.46Z" transform="translate(-23.9 -5.08)"/><path class="cls-2" d="M23.9,462.41l20.42-50.14h5.28L70,462.41H63.4l-6-15.1h-21l-6,15.1Zm23-42.34q-3.36,9.36-6.41,17l-1.87,4.72H55.25l-1.9-4.72q-3.09-7.79-6.29-17Z" transform="translate(-23.9 -5.08)"/><path class="cls-2" d="M123,435.32c0-3.84-.15-7-.31-10h5.83l.38,5.91h.15a12.79,12.79,0,0,1,11.74-6.75,11,11,0,0,1,10.51,7.37h.15a15.31,15.31,0,0,1,4.14-4.83,12.79,12.79,0,0,1,8.21-2.53c4.91,0,12.2,3.15,12.2,16v21.87H169.5V441.46c0-7.21-2.69-11.51-8.13-11.51-3.84,0-6.83,2.84-8,6.06a12,12,0,0,0-.61,3.45v22.94h-6.52V440.15c0-5.91-2.69-10.21-7.75-10.21-4.22,0-7.29,3.38-8.44,6.75a11.82,11.82,0,0,0-.46,3.3v22.41H123Z" transform="translate(-23.9 -5.08)"/><path class="cls-2" d="M233,407.93h6.68v23.33h.15c2.38-4.14,6.68-6.75,12.66-6.75,9.21,0,15.73,7.67,15.73,18.88,0,13.28-8.52,19.87-16.73,19.87-5.37,0-9.67-2.07-12.51-6.91h-.15l-.31,6.06h-5.83c.15-2.53.31-6.29.31-9.52Zm6.68,39.6A8.61,8.61,0,0,0,240,450a10.4,10.4,0,0,0,10.13,7.9c7.14,0,11.28-5.75,11.28-14.27,0-7.44-3.84-13.81-11.13-13.81a10.75,10.75,0,0,0-10.21,8.29,14,14,0,0,0-.38,2.76Z" transform="translate(-23.9 -5.08)"/><path class="cls-2" d="M348.23,462.41l-.38-6.06h-.15a13.91,13.91,0,0,1-12.35,6.91c-7.21,0-12.74-4.37-12.74-16.27V425.35h6.75v20.49c0,7.21,2.3,11.89,8.13,11.89a9.64,9.64,0,0,0,9.06-6.14,11,11,0,0,0,.61-3.53V425.35h6.68v26.93c0,3.91.15,7.14.31,10.13Z" transform="translate(-23.9 -5.08)"/><path class="cls-2" d="M411.09,407.93h6.68v54.48h-6.68Z" transform="translate(-23.9 -5.08)"/><path class="cls-2" d="M501.26,453.51a62.3,62.3,0,0,0,.54,8.9h-6.06l-.61-4.68H495a14,14,0,0,1-11.36,5.52c-7.44,0-11.36-5.37-11.36-10.67,0-9,8-13.89,22.33-13.74V438c0-3.07-.92-8.59-8.44-8.59a18.3,18.3,0,0,0-9.67,2.76l-1.54-4.45a23.24,23.24,0,0,1,12.2-3.22c11.36,0,14.12,7.75,14.12,15.19Zm-6.52-10c-7.37-.23-15.73,1.07-15.73,8.29,0,4.45,3,6.45,6.37,6.45a9.34,9.34,0,0,0,9.05-6.22,11.16,11.16,0,0,0,.31-2.15Z" transform="translate(-23.9 -5.08)"/><path class="cls-2" d="M558.2,435.32c0-3.84-.15-7-.31-10h6l.31,6.06h.23a13.75,13.75,0,0,1,12.28-6.91c5.06,0,13,3.07,13,15.73v22.18h-6.68V441.08c0-6.06-2.23-11-8.59-11a10.19,10.19,0,0,0-9.59,10.05v22.33H558.2Z" transform="translate(-23.9 -5.08)"/><path class="cls-2" d="M673.31,461a24.64,24.64,0,0,1-10.67,2.22c-11.2,0-18.49-7.6-18.49-19s7.83-19.8,20-19.8a22.87,22.87,0,0,1,9.36,1.92l-1.54,5.22a15.66,15.66,0,0,0-7.83-1.76c-8.52,0-13.12,6.37-13.12,14,0,8.59,5.53,13.89,13,13.89a19.07,19.07,0,0,0,8.21-1.84Z" transform="translate(-23.9 -5.08)"/><path class="cls-2" d="M730.64,445.07c.15,9.13,5.91,12.89,12.74,12.89A24.16,24.16,0,0,0,753.67,456l1.15,4.83a29.52,29.52,0,0,1-12.35,2.38c-11.43,0-18.26-7.6-18.26-18.72,0-11.28,6.6-20,17.5-20,12,0,15.27,10.59,15.27,17.42a14.82,14.82,0,0,1-.31,3.15Zm19.8-4.83c.08-4.22-1.77-10.9-9.36-10.9-6.83,0-9.82,6.22-10.36,10.9Z" transform="translate(-23.9 -5.08)"/><path class="cls-3" d="M541.16,100.66S478.58,79.87,387.11,80c-12.25-1.2-38.08-6.89-306.8,24.18.88-26.26,0-35.74,0-35.74s16.19-1,17.51-7.15c1.31-3.06,6.56-5.69,6.56-5.69L337.8,21.74l81,9.48s94.61,12.33,111.89,20.21c2.53,5.88.63,17,1.53,23a27,27,0,0,0,7.22,15.54C540.29,93.44,541.16,100.66,541.16,100.66Z" transform="translate(-23.9 -5.08)"/><polygon class="cls-4" points="703.4 233.41 705.02 251.02 604.7 248.87 599.19 229.37 703.4 233.41"/><path class="cls-4" d="M603.77,233l5.86,17.83-53.12-1.12H536.93s-2.24-19,4.49-22.94S603.77,233,603.77,233Z" transform="translate(-23.9 -5.08)"/><path class="cls-4" d="M625.83,269.42l-62.38-1.68-16-1.18s-.89-9.48,1-9.87S625.23,259,625.23,259" transform="translate(-23.9 -5.08)"/><path class="cls-1" d="M674.92,259.58s1.31,13.38-.31,14.38-22.73,0-22.73,0-3.17-14.3,1.7-14.92S674.92,259.58,674.92,259.58Z" transform="translate(-23.9 -5.08)"/><path class="cls-1" d="M730.36,261.71s1,12.18,0,12.7-18.09.64-19.37,0-.7-13.4,0-13.51S729.44,260.66,730.36,261.71Z" transform="translate(-23.9 -5.08)"/><path class="cls-4" d="M736.8,239.22l6.37-2.53s4.87,15.76,3.65,18.79h-8.43Z" transform="translate(-23.9 -5.08)"/><path class="cls-4" d="M623.66,275.51v17.63s-50.22-.81-66.92-2.67c-16.93-.81-27.14-.7-27.37-4.06s-1-14.38,1.28-14.73S623.66,275.51,623.66,275.51Z" transform="translate(-23.9 -5.08)"/><path class="cls-4" d="M631.94,293.81s6.09,4.74,8.52,5,16.24,1.49,16.24,1.49.54-15,3-15.42,17.86-.68,18.4,0,4.33,1.08,5.55,2.3,0,13.12,0,13.12h26.11s.54-13.39,1.49-13.94,18.67-.41,18.67-.41l.54-7.31-98.5-1.49Z" transform="translate(-23.9 -5.08)"/><polygon class="cls-4" points="716.48 274.4 724.59 274.4 724.13 286.11 718.64 286.11 718.64 281.47 716.48 280.25 716.48 274.4"/><path class="cls-4" d="M738.94,260.88l.77,13.29h8.71s.55-13.16-1.24-13.29S738.94,260.88,738.94,260.88Z" transform="translate(-23.9 -5.08)"/><path class="cls-4" d="M682.09,290.73s-.85,16-1.85,17.23-14.91,1-14.91,1l-7.52-7.38s.84-14.17,2.74-14.33,15.77,0,15.77,0S682,288.91,682.09,290.73Z" transform="translate(-23.9 -5.08)"/><path class="cls-4" d="M716.6,301.84s.12-13,2.5-13.46,18,0,18,0l1.95,1.19-1,18.49-12.84.86Z" transform="translate(-23.9 -5.08)"/><path class="cls-2" d="M525,385.46s-22.87-10.21-26.58-36.81-7.11-55.52-7.11-55.52L525,294.22l31.57,3.86L623.66,302l20.1,7.11,16.7,5.57,56.6-2.67,24.32-.84.53-11,6.33-2s18,4.18,19.55,7.27,1.24,36.5,0,40.52S751,356.7,748.24,361.65s-11.07,14.85-15.4,16.08-26.91,1.55-26.91,1.55" transform="translate(-23.9 -5.08)"/><path class="cls-5" d="M399.2,93.7s44.44,79.91,46.58,85h30.55s125.21-.85,152.35,4.06C618,170.62,568,115.92,553.89,109.72,537.66,104.81,496.63,87.72,399.2,93.7Z" transform="translate(-23.9 -5.08)"/><polygon class="cls-1" points="490.84 49.2 490.84 71.34 472.48 69.45 471.4 44.88 490.84 49.2"/><polygon class="cls-6" points="450.34 40.57 450.34 62.97 429.83 61.35 427.67 37.06 450.34 40.57"/><polygon class="cls-1" points="399.32 34.63 399.32 58.11 375.29 55.95 375.29 30.58 399.32 34.63"/><polygon class="cls-1" points="284.58 43.27 284.58 65.67 263.8 67.56 263.8 45.7 284.58 43.27"/><polygon class="cls-6" points="262.54 45.42 261.37 67.56 242.47 69.45 242.47 46.77 262.54 45.42"/><polygon class="cls-1" points="121.52 62.97 121.52 83.22 106.61 84.37 106.95 63.99 121.52 62.97"/><polygon class="cls-6" points="106.07 65.47 106.07 85.04 91.02 85.78 91.02 66.01 106.07 65.47"/><path class="cls-5" d="M331.22,100.35s31.74-5.6,46.14,2.4,33.6,63.74,41.34,73.34c-31.2.8-107.21,0-107.21,0S323.72,101.37,331.22,100.35Z" transform="translate(-23.9 -5.08)"/><path class="cls-5" d="M293.08,103.1s-17,71.19-18.93,74.35-43.55,3.49-49.22,0c-5.44-3.35,16.2-70.83,20-72.18S293.08,103.1,293.08,103.1Z" transform="translate(-23.9 -5.08)"/><path class="cls-5" d="M228.07,105.46s-14.6,71.42-16.29,74.58-37.47,3.5-42.34,0c-4.68-3.36,13.94-71.05,17.19-72.41S228.07,105.46,228.07,105.46Z" transform="translate(-23.9 -5.08)"/><path class="cls-3" d="M563.75,220.47s1.2-26.5-72.47-34.53c69.28.27,133.1,3.21,145.14,6.42s39.75,4,62.23,15.26,18.72,2.12,25.25,16.06c5.06,10.81-8.82,9.61-12.6,9.45C679.69,231.8,598,230.1,563.75,220.47Z" transform="translate(-23.9 -5.08)"/><polygon class="cls-7" points="417.34 164.94 421.87 173.66 485.46 93.36 469.54 90.55 417.34 164.94"/><polygon class="cls-7" points="200.81 172.68 208.42 174.88 268.51 98.01 252.3 98.33 200.81 172.68"/><polygon class="cls-7" points="276.69 165.38 281.23 174.09 344.81 93.8 328.9 90.99 276.69 165.38"/><polygon class="cls-7" points="308.97 174.77 313.5 183.48 377.09 103.19 361.17 100.38 308.97 174.77"/><polygon class="cls-7" points="456.34 173.64 467.95 173.61 525.47 103.18 509.53 98.34 456.34 173.64"/><polygon class="cls-7" points="145.54 174.95 150.19 176.38 204.17 100.38 191.96 101.11 145.54 174.95"/></svg>