<svg id="Layer_1" data-name="Layer 1" xmlns="http://www.w3.org/2000/svg" viewBox="0 0 745.19 458.17"><defs><style>.cls-1{fill:#d42a2a;}.cls-2,.cls-5{fill:#fff;}.cls-3{fill:#68b498;}.cls-4{fill:#69b599;}.cls-5{opacity:0.44;}</style></defs><title>LOGO-1.5-BG1</title><polygon class="cls-1" points="478.59 24.6 470.96 16.23 374.79 0 363.72 0 356.09 11.07 356.09 14.51 466.78 31.24 478.59 28.78 478.59 24.6"/><path class="cls-2" d="M157.92,313.87H114.68V293H181v91.73a47.71,47.71,0,0,1-8.72,3.19q-5.74,1.63-13.11,3t-15.81,2.27a165.92,165.92,0,0,1-16.66.85q-24.39,0-43-6.66T52.44,368.6A79,79,0,0,1,33.3,339q-6.52-17.44-6.52-38.85,0-23.25,7.14-42.25a89.5,89.5,0,0,1,20.7-32.47,92.36,92.36,0,0,1,32.77-20.77,118.23,118.23,0,0,1,42.32-7.3q6.24,0,12.48.5t11.91,1.42q5.67.92,10.49,2.2a57.84,57.84,0,0,1,8.08,2.69v20.42a135.1,135.1,0,0,0-19.56-4.75A129.42,129.42,0,0,0,131,217.89a96.87,96.87,0,0,0-30.84,4.89A73.71,73.71,0,0,0,74.27,237.6a71.64,71.64,0,0,0-17.86,24.88q-6.67,15-6.66,35.09,0,19.71,5.53,34a62.05,62.05,0,0,0,15.66,23.68A63.07,63.07,0,0,0,95.5,369.09a108.4,108.4,0,0,0,32.11,4.47,152.42,152.42,0,0,0,16.16-.85,102.7,102.7,0,0,0,14.15-2.41Z" transform="translate(-21.37 -2.23)"/><path class="cls-2" d="M250.92,369.73h97.26v20.84H227.81V200.88H342.93v20.84h-92V283h81.8v20.84h-81.8Z" transform="translate(-21.37 -2.23)"/><path class="cls-2" d="M455.93,390.57H432.82V221.72H369.45V200.88H519.3v20.84H455.93Z" transform="translate(-21.37 -2.23)"/><path class="cls-2" d="M21.37,459.56l20.42-50.14h5.28L67.5,459.56H60.87l-6-15.1h-21l-6,15.1Zm23-42.34q-3.36,9.36-6.41,17l-1.87,4.72H52.71l-1.9-4.72q-3.09-7.79-6.29-17Z" transform="translate(-21.37 -2.23)"/><path class="cls-2" d="M120.46,432.47c0-3.84-.15-7-.31-10H126l.38,5.91h.15a12.79,12.79,0,0,1,11.74-6.75A11,11,0,0,1,148.78,429h.15a15.31,15.31,0,0,1,4.14-4.83,12.79,12.79,0,0,1,8.21-2.53c4.91,0,12.2,3.15,12.2,16v21.87H167V438.61c0-7.21-2.69-11.51-8.13-11.51-3.84,0-6.83,2.84-8,6.06a12,12,0,0,0-.61,3.45v22.94h-6.52V437.3c0-5.91-2.69-10.21-7.75-10.21-4.22,0-7.29,3.38-8.44,6.75a11.82,11.82,0,0,0-.46,3.3v22.41h-6.6Z" transform="translate(-21.37 -2.23)"/><path class="cls-2" d="M230.51,405.07h6.68V428.4h.15c2.38-4.14,6.68-6.75,12.66-6.75,9.21,0,15.73,7.67,15.73,18.88,0,13.28-8.52,19.87-16.73,19.87-5.37,0-9.67-2.07-12.51-6.91h-.15l-.31,6.06H230.2c.15-2.53.31-6.29.31-9.52Zm6.68,39.6a8.61,8.61,0,0,0,.31,2.46,10.4,10.4,0,0,0,10.13,7.9c7.14,0,11.28-5.75,11.28-14.27,0-7.44-3.84-13.81-11.13-13.81a10.75,10.75,0,0,0-10.21,8.29,14,14,0,0,0-.38,2.76Z" transform="translate(-21.37 -2.23)"/><path class="cls-2" d="M345.7,459.56l-.38-6.06h-.15a13.91,13.91,0,0,1-12.35,6.91c-7.21,0-12.74-4.37-12.74-16.27V422.49h6.75V443c0,7.21,2.3,11.89,8.13,11.89a9.64,9.64,0,0,0,9.06-6.14,11,11,0,0,0,.61-3.53V422.49h6.68v26.93c0,3.91.15,7.14.31,10.13Z" transform="translate(-21.37 -2.23)"/><path class="cls-2" d="M408.55,405.07h6.68v54.48h-6.68Z" transform="translate(-21.37 -2.23)"/><path class="cls-2" d="M498.72,450.65a62.3,62.3,0,0,0,.54,8.9H493.2l-.61-4.68h-.15a14,14,0,0,1-11.36,5.52c-7.44,0-11.36-5.37-11.36-10.67,0-9,8-13.89,22.33-13.74v-.84c0-3.07-.92-8.59-8.44-8.59a18.3,18.3,0,0,0-9.67,2.76l-1.54-4.45a23.24,23.24,0,0,1,12.2-3.22c11.36,0,14.12,7.75,14.12,15.19Zm-6.52-10c-7.37-.23-15.73,1.07-15.73,8.29,0,4.45,3,6.45,6.37,6.45a9.34,9.34,0,0,0,9.05-6.22,11.16,11.16,0,0,0,.31-2.15Z" transform="translate(-21.37 -2.23)"/><path class="cls-2" d="M555.67,432.47c0-3.84-.15-7-.31-10h6l.31,6.06h.23a13.75,13.75,0,0,1,12.28-6.91c5.06,0,13,3.07,13,15.73v22.18h-6.68V438.22c0-6.06-2.23-11-8.59-11a10.19,10.19,0,0,0-9.59,10.05v22.33h-6.68Z" transform="translate(-21.37 -2.23)"/><path class="cls-2" d="M670.78,458.17a24.64,24.64,0,0,1-10.67,2.22c-11.2,0-18.49-7.6-18.49-19s7.83-19.8,20-19.8a22.87,22.87,0,0,1,9.36,1.92l-1.54,5.22a15.66,15.66,0,0,0-7.83-1.76c-8.52,0-13.12,6.37-13.12,14,0,8.59,5.53,13.89,13,13.89a19.07,19.07,0,0,0,8.21-1.84Z" transform="translate(-21.37 -2.23)"/><path class="cls-2" d="M728.11,442.21c.15,9.13,5.91,12.89,12.74,12.89a24.16,24.16,0,0,0,10.28-1.92l1.15,4.83a29.52,29.52,0,0,1-12.35,2.38c-11.43,0-18.26-7.6-18.26-18.72,0-11.28,6.6-20,17.5-20,12,0,15.27,10.59,15.27,17.42a14.82,14.82,0,0,1-.31,3.15Zm19.8-4.83c.08-4.22-1.77-10.9-9.36-10.9-6.83,0-9.82,6.22-10.36,10.9Z" transform="translate(-21.37 -2.23)"/><path class="cls-2" d="M538.63,97.81S476,77,384.57,77.13c-12.25-1.2-38.08-6.89-306.8,24.18.88-26.26,0-35.74,0-35.74s16.19-1,17.51-7.15c1.31-3.06,6.56-5.69,6.56-5.69L335.26,18.88l81,9.48s94.61,12.33,111.89,20.21c2.53,5.88.63,17,1.53,23a27,27,0,0,0,7.22,15.54C537.75,90.59,538.63,97.81,538.63,97.81Z" transform="translate(-21.37 -2.23)"/><polygon class="cls-3" points="703.4 233.41 705.02 251.02 604.7 248.87 599.19 229.37 703.4 233.41"/><path class="cls-2" d="M724.78,235.63l1.91,17.59,0,.33h-.34q-12.54-.07-25.09-.23L676.21,253l-50.16-.92h-.73l-.2-.71c-1.86-6.49-3.65-13-5.48-19.51l-.36-1.26,1.31.06,26.2,1.11c8.74.35,17.45.8,26.14,1.22l26,1.29Zm0,0L698.48,235l-26.09-.73c-8.68-.25-17.34-.47-26-.79l-25.91-.91,1-1.21c1.85,6.5,3.74,13,5.55,19.49l-.93-.72,50.16,1.23,25.07.76q12.54.36,25.07.84l-.31.33Z" transform="translate(-21.37 -2.23)"/><path class="cls-3" d="M601.23,230.17,607.09,248,554,246.88H534.4s-2.24-19,4.49-22.94S601.23,230.17,601.23,230.17Z" transform="translate(-21.37 -2.23)"/><path class="cls-2" d="M601.23,230.17l6.26,17.7.19.54h-.6c-6.06,0-12.12-.09-18.18-.13s-12.12-.07-18.17-.19-12.11-.24-18.17-.28l-18.17.06h-.9l-.09-.88a65,65,0,0,1-.18-11.08,34.67,34.67,0,0,1,.84-5.54,14.58,14.58,0,0,1,2.3-5.31,6.75,6.75,0,0,1,2.35-2,7.19,7.19,0,0,1,.77-.31l.73-.18a14.15,14.15,0,0,1,1.43-.23,45,45,0,0,1,5.57-.15c3.67.1,7.31.46,10.93.86,7.25.83,14.45,1.9,21.63,3.09S594.12,228.66,601.23,230.17Zm0,0c-7.19-1.08-14.38-2.17-21.59-3.1s-14.41-1.9-21.63-2.53c-3.61-.31-7.23-.55-10.82-.65a43.42,43.42,0,0,0-5.32.19,12.49,12.49,0,0,0-1.25.21l-.59.15c-.19.05-.32.14-.49.2a5,5,0,0,0-1.71,1.52,12.85,12.85,0,0,0-1.94,4.66,32.84,32.84,0,0,0-.74,5.24,63.16,63.16,0,0,0,.26,10.71l-1-.88,18.19.06c6.06.09,12.12.29,18.18.43s12.11.39,18.17.57,12.11.37,18.17.64l-.4.55Z" transform="translate(-21.37 -2.23)"/><path class="cls-3" d="M623.29,266.56l-62.38-1.68-16-1.18s-.89-9.48,1-9.87,76.79,2.27,76.79,2.27Z" transform="translate(-21.37 -2.23)"/><path class="cls-2" d="M623.29,266.56l-19.38-.15-19.65-.22c-6.57-.07-13.18-.16-19.79-.33-3.32,0-6.57-.29-9.84-.52l-9.79-.68-.81-.06-.07-.81a52.69,52.69,0,0,1-.23-5.55,18.59,18.59,0,0,1,.24-2.87,4.89,4.89,0,0,1,.55-1.62,2.37,2.37,0,0,1,.38-.48,1.76,1.76,0,0,1,.73-.4c.34,0,.55,0,.83-.06.56,0,1,0,1.46,0l1.37,0,2.73.06,5.44.15,21.76.73c7.25.25,14.5.63,21.75,1s14.49.7,21.74,1.12h.24v.23Zm0,0-.85-10.45.24.24c-7.26-.1-14.51-.21-21.76-.39s-14.51-.27-21.76-.48l-21.75-.55-5.43-.1-2.71,0h-1.35c-.45,0-.92,0-1.26,0h-.52c.18-.06.16-.11.11,0a3.16,3.16,0,0,0-.3.95,16.79,16.79,0,0,0-.23,2.55,50.88,50.88,0,0,0,.17,5.32l-.88-.87,9.76.76c3.25.25,6.52.56,9.74.6,6.46.18,12.92.44,19.42.72l19.56.83Z" transform="translate(-21.37 -2.23)"/><path class="cls-1" d="M672.39,256.73s1.31,13.38-.31,14.38-22.73,0-22.73,0-3.17-14.3,1.7-14.92S672.39,256.73,672.39,256.73Z" transform="translate(-21.37 -2.23)"/><path class="cls-1" d="M727.83,258.86s1,12.18,0,12.7-18.09.64-19.37,0-.7-13.4,0-13.51S726.9,257.81,727.83,258.86Z" transform="translate(-21.37 -2.23)"/><path class="cls-3" d="M734.27,236.37l6.37-2.53s4.87,15.76,3.65,18.79h-8.43Z" transform="translate(-21.37 -2.23)"/><path class="cls-2" d="M734.27,236.37c1.92-1,4-2,6.18-3l.48-.22.2.55c1.1,3,2.09,6.11,2.9,9.24.4,1.57.8,3.14,1.06,4.77a24.88,24.88,0,0,1,.33,2.48,9,9,0,0,1,0,1.32,4,4,0,0,1-.05.71c-.06.27-.12.54-.2.8l-.17.63h-.75l-4.21,0c-1.4,0-2.81-.05-4.21-.08H735l-.06-.79c-.22-2.8-.37-5.61-.48-8.35S734.3,238.94,734.27,236.37Zm0,0c.5,2.85,1,5.58,1.37,8.26s.79,5.3,1.11,7.91l-.88-.8c1.4,0,2.81-.08,4.21-.08l4.21,0-.92.62a2.83,2.83,0,0,1,.07-.37,2.57,2.57,0,0,0,0-.49,7.21,7.21,0,0,0,0-1.09,23,23,0,0,0-.27-2.3c-.25-1.55-.54-3.11-.88-4.67-.67-3.11-1.4-6.24-2.16-9.35l.68.33C738.75,235,736.6,235.65,734.27,236.37Z" transform="translate(-21.37 -2.23)"/><path class="cls-3" d="M621.13,272.66v17.63s-50.22-.81-66.92-2.67c-16.93-.81-27.14-.7-27.37-4.06s-1-14.38,1.28-14.73S621.13,272.66,621.13,272.66Z" transform="translate(-21.37 -2.23)"/><path class="cls-2" d="M621.13,272.66l.32,17.63v.32h-.34c-8.49,0-17-.1-25.48-.27s-17-.33-25.48-.74c-4.25-.19-8.49-.44-12.74-.77l-3.17-.29-3.15-.14-6.36-.25c-4.25-.2-8.49-.3-12.81-.9a18.28,18.28,0,0,1-3.28-.75,5.89,5.89,0,0,1-1.69-.88,3,3,0,0,1-.77-.87,2.66,2.66,0,0,1-.35-1.19c-.14-2.12-.26-4.26-.29-6.41a31.81,31.81,0,0,1,.43-6.56,5.2,5.2,0,0,1,.71-1.82,1.92,1.92,0,0,1,1.21-.85c.37,0,.61,0,.92,0,.61,0,1.14,0,1.67,0l1.6,0,12.74.49,12.73.56,12.72.66,25.44,1.39C604.18,271.58,612.65,272.06,621.13,272.66Zm0,0c-8.49-.18-17-.47-25.47-.7l-25.46-.85-12.73-.42-12.73-.48L532,269.81l-1.58,0c-.53,0-1.06,0-1.52,0h-.67c.09,0,.06,0,0,.08a3.56,3.56,0,0,0-.41,1.15,30.37,30.37,0,0,0-.34,6.12c0,2.1.18,4.19.33,6.31a.61.61,0,0,0,.09.32,1,1,0,0,0,.29.3,4.3,4.3,0,0,0,1.13.57,16.46,16.46,0,0,0,2.91.68c4.1.6,8.36.74,12.59,1l6.36.3,3.21.16,3.17.31c4.22.35,8.44.63,12.68.85,8.47.44,16.95.86,25.43,1.17l25.45.91-.33.32Z" transform="translate(-21.37 -2.23)"/><path class="cls-3" d="M629.41,291s6.09,4.74,8.52,5,16.24,1.49,16.24,1.49.54-15,3-15.42,17.86-.68,18.4,0,4.33,1.08,5.55,2.3,0,13.12,0,13.12H707.2s.54-13.39,1.49-13.94,18.67-.41,18.67-.41l.54-7.31-98.5-1.49Z" transform="translate(-21.37 -2.23)"/><path class="cls-2" d="M629.41,291a53.67,53.67,0,0,0,5.48,3.59,10.41,10.41,0,0,0,3,1.22c1.08.11,2.18.18,3.26.27l13.08,1-.43.38c.06-2.25.19-4.49.39-6.74a39,39,0,0,1,1.1-6.73,6.81,6.81,0,0,1,.72-1.69,1.71,1.71,0,0,1,.93-.77,5.87,5.87,0,0,1,.93-.14c1.14-.11,2.26-.17,3.39-.22q3.37-.15,6.74-.19c2.26,0,4.48-.05,6.8.15l.47.07a2.56,2.56,0,0,1,.27.06,1.13,1.13,0,0,1,.47.23l.13.12h0l.09,0,.3.13c.47.17,1,.31,1.55.46s1.1.31,1.66.51a5.92,5.92,0,0,1,1.71.89l.21.18a2.05,2.05,0,0,1,.26.35,2.78,2.78,0,0,1,.22.56,6.63,6.63,0,0,1,.18.94c.08.6.11,1.18.13,1.75,0,1.15,0,2.28,0,3.42-.08,2.26-.25,4.5-.46,6.76l-.85-.95,26.11-.07-.93.89c.11-2.75.26-5.48.48-8.22.12-1.37.24-2.74.46-4.15.06-.35.12-.71.22-1.09a3.6,3.6,0,0,1,.24-.67l.13-.23a1.59,1.59,0,0,1,.41-.38,4.19,4.19,0,0,1,.47-.16l.23-.05.14,0,.28,0,.55-.05,1-.07c5.52-.24,11-.2,16.44-.16l-1,.91.56-7.3.94,1-24.62-.44c-8.21-.15-16.42-.27-24.62-.49L654,275.25c-8.21-.17-16.41-.44-24.62-.67l.27-.27Zm0,0-.27-16.64V274h.28c8.21,0,16.42,0,24.63.07l24.63.16c8.21,0,16.42.16,24.63.26l24.62.3h1l-.07,1-.52,7.31-.06.9h-.92l-8.18,0c-2.72,0-5.46,0-8.15.14l-1,.06-.47,0-.23,0h-.13l0,0a.51.51,0,0,0,.23-.2h0a2.13,2.13,0,0,0-.1.3c-.07.28-.14.59-.19.91-.21,1.29-.35,2.64-.47,4-.23,2.7-.39,5.42-.52,8.13l0,.9h-.89l-26.11-.07h-1l.1-.94c.22-2.21.39-4.44.51-6.65.05-1.11.09-2.21.07-3.31,0-.54,0-1.09-.09-1.6s-.17-1-.29-1a9.09,9.09,0,0,0-2.8-1.16c-.54-.16-1.08-.31-1.66-.53a4.27,4.27,0,0,1-.47-.21,3,3,0,0,1-.27-.17l-.17-.15-.08-.08s0,0,0,.06c.2.13.09.06.08.07l-.14,0-.36-.06c-2.14-.22-4.41-.23-6.63-.25s-4.47,0-6.7.08c-1.11,0-2.23.07-3.33.16a5.59,5.59,0,0,0-.73.09s-.19.12-.31.3a5.84,5.84,0,0,0-.6,1.39,39.24,39.24,0,0,0-1.18,6.51c-.26,2.21-.45,4.44-.57,6.67l0,.43-.41,0-13.06-1.38c-1.09-.12-2.17-.22-3.27-.36a10.15,10.15,0,0,1-3-1.36A53.76,53.76,0,0,1,629.41,291Z" transform="translate(-21.37 -2.23)"/><polygon class="cls-3" points="715.92 275.6 724.55 275.6 724.06 288.06 718.22 288.06 718.22 283.13 715.92 281.83 715.92 275.6"/><path class="cls-2" d="M737.29,277.83c2.62-.26,5.59-.56,8.64-.71l.7,0v.77c0,2.08,0,4.16,0,6.24,0,1-.05,2.08-.08,3.12s-.05,2.08-.11,3.12l-.05,1h-.94c-1.95,0-3.89,0-5.84-.09l-.92,0,0-.87c0-1.64.1-3.29.19-4.93l.37.63c-.75-.46-1.48-1-2.23-1.43l-.31-.2,0-.3C736.85,281.84,737.1,279.71,737.29,277.83Zm0,0c.19,2.27.44,4.29.57,6.23l-.29-.49c.79.39,1.59.76,2.38,1.16l.34.18,0,.45c.08,1.65.15,3.29.19,4.93l-.91-.91c1.95-.07,3.89-.06,5.84-.09l-1,1c0-1,.09-2.08.14-3.11s.09-2.08.17-3.11q.19-3.11.47-6.22l.71.73C743.22,278.38,740.43,278.08,737.29,277.83Z" transform="translate(-21.37 -2.23)"/><path class="cls-3" d="M735.75,258l.82,14.14h9.27s.58-14-1.32-14.14S735.75,258,735.75,258Z" transform="translate(-21.37 -2.23)"/><path class="cls-2" d="M735.75,258c.42,4.86,1,9.56,1.42,14.11l-.6-.57,9.27-.4-1,1h0c.15-1.91.26-3.84.33-5.76a48.22,48.22,0,0,0-.09-5.74,10,10,0,0,0-.21-1.37c-.08-.43-.31-.89-.41-.85-.94-.09-1.92-.14-2.88-.18C739.63,258.14,737.69,258.08,735.75,258Zm0,0c1.94-.12,3.87-.23,5.82-.31,1,0,1.94-.08,2.93-.07a1,1,0,0,1,.3.06.76.76,0,0,1,.26.16,1.51,1.51,0,0,1,.31.38,3.9,3.9,0,0,1,.33.75,10.86,10.86,0,0,1,.36,1.48,49.3,49.3,0,0,1,.6,5.86c.11,2,.16,3.9.17,5.87h0l-.08,1-.92,0-9.27-.4-.59,0v-.54C735.89,267.33,735.88,262.6,735.75,258Z" transform="translate(-21.37 -2.23)"/><path class="cls-3" d="M679.56,287.88s-.85,16-1.85,17.23-14.91,1-14.91,1l-7.52-7.38s.84-14.17,2.74-14.33,15.77,0,15.77,0S679.5,286.06,679.56,287.88Z" transform="translate(-21.37 -2.23)"/><path class="cls-2" d="M679.56,287.88l-.45,8.09c-.2,2.7-.27,5.39-.69,8.11a4.44,4.44,0,0,1-.31,1.09c0,.2-.35.43-.51.5a3.4,3.4,0,0,1-.54.21,14,14,0,0,1-2.06.42c-1.36.19-2.72.31-4.07.4-2.71.19-5.42.31-8.14.31h-.34l-.28-.26c-1.29-1.2-2.55-2.42-3.81-3.64s-2.52-2.44-3.76-3.69l-.32-.32,0-.43c.17-2.58.46-5.12.85-7.67.2-1.28.45-2.54.78-3.82a14.42,14.42,0,0,1,.62-1.92,3.63,3.63,0,0,1,.59-1,1.27,1.27,0,0,1,.78-.45c.21,0,.35,0,.53,0,2.59,0,5.12.14,7.68.24s5.1.22,7.65.29h0a27.63,27.63,0,0,1,3.25,1.29,9.7,9.7,0,0,1,1.51.89A2.17,2.17,0,0,1,679.56,287.88Zm0,0a2.16,2.16,0,0,0-1-1.35,9.66,9.66,0,0,0-1.51-.86,20.76,20.76,0,0,0-3.27-1.2h0q-3.83,0-7.65.16c-2.55.09-5.11.16-7.63.32l-.43,0c.09,0,.06,0,0,.06a2.63,2.63,0,0,0-.31.68,13.22,13.22,0,0,0-.43,1.76c-.22,1.22-.36,2.47-.49,3.73-.27,2.51-.43,5-.59,7.56L656,298q1.9,1.82,3.76,3.69c1.25,1.24,2.49,2.48,3.71,3.74l-.62-.26c2.68.08,5.38.19,8.06.2,1.34,0,2.68,0,4-.1a13.29,13.29,0,0,0,1.94-.24,2.68,2.68,0,0,0,.41-.12c.13-.08.14,0,.2-.17a4.38,4.38,0,0,0,.29-.83,68.3,68.3,0,0,0,1.19-8C679.21,293.27,679.38,290.58,679.56,287.88Z" transform="translate(-21.37 -2.23)"/><path class="cls-3" d="M714.07,299s.12-13,2.5-13.46,18,0,18,0l1.95,1.19-1,18.49-12.84.86Z" transform="translate(-21.37 -2.23)"/><path class="cls-2" d="M714.07,299a63.09,63.09,0,0,1,.11-8,18.75,18.75,0,0,1,.69-4,5.35,5.35,0,0,1,.44-1,1.86,1.86,0,0,1,1.1-1,14.5,14.5,0,0,1,2.11-.24c2.7-.15,5.37-.2,8-.2s5.34,0,8,.08h.25l.22.13,2,1.18.49.3,0,.59c-.13,3.08-.3,6.17-.48,9.25s-.37,6.16-.58,9.24l-.05.79-.76,0c-2.14.12-4.29.2-6.43.3s-4.29.16-6.43.24h-.23l-.15-.13c-1.44-1.25-2.82-2.54-4.2-3.78S715.39,300.23,714.07,299Zm0,0c1.55,1.13,3.06,2.25,4.55,3.36s3,2.19,4.42,3.31l-.38-.12c2.14-.22,4.27-.44,6.41-.63s4.27-.4,6.41-.57l-.82.83c.11-3.08.22-6.17.38-9.25s.29-6.17.48-9.25l.47.89-1.94-1.2.47.14-8-.27c-2.66-.06-5.33-.19-8-.15a18.2,18.2,0,0,0-1.87.09.69.69,0,0,0-.36.34,4.2,4.2,0,0,0-.39.78,22.21,22.21,0,0,0-.95,3.77C714.54,293.67,714.3,296.33,714.07,299Z" transform="translate(-21.37 -2.23)"/><path class="cls-2" d="M703.4,376.42s22.58-.31,26.91-1.55,12.68-11.13,15.4-16.08S764,347,765.26,343s1.55-37.42,0-40.52-19.55-7.27-19.55-7.27l-6.33,2-.53,11-24.32.84-56.6,2.67-16.7-5.57-20.1-7.11L554,295.23l-31.57-3.86-33.69-1.08s3.4,28.92,7.11,55.52,26.58,36.81,26.58,36.81Z" transform="translate(-21.37 -2.23)"/><path class="cls-2" d="M703.4,376.42c5.69-.11,11.38-.28,17.07-.59,2.84-.17,5.69-.34,8.5-.75a8,8,0,0,0,2-.55,11.53,11.53,0,0,0,1.82-1.08,29.3,29.3,0,0,0,3.25-2.75,63.62,63.62,0,0,0,5.68-6.35c.87-1.12,1.72-2.26,2.51-3.44.39-.59.78-1.19,1.12-1.81a8.45,8.45,0,0,1,1.24-1.76,38.92,38.92,0,0,1,6.75-5.25c2.38-1.57,4.8-3.07,7.13-4.69a26.36,26.36,0,0,0,3.3-2.65,5.28,5.28,0,0,0,1.21-1.64,10.08,10.08,0,0,0,.38-2c.3-2.82.4-5.67.5-8.51q.27-8.53.07-17.06c-.07-2.84-.17-5.68-.38-8.51a22.65,22.65,0,0,0-.59-4.12c-.16-.53-.74-.93-1.31-1.29a15.86,15.86,0,0,0-1.85-1,66.07,66.07,0,0,0-8-2.77c-2.72-.78-5.48-1.5-8.24-2.13h.27l-6.31,2.06.39-.5-.46,11,0,.57-.58,0-20.23.83c-6.74.26-13.48.7-20.22,1L658,312.93h-.21l-.21-.07-9.26-3c-3.08-1-6.19-2-9.25-3.06l-18.38-6.45.36.07-49.47-2.73L559.21,297c-2.06-.14-4.13-.17-6.18-.4l-6.15-.75-24.6-3.07h.13l-33.69-1.17,1.38-1.5,3.21,25.58,3.14,25.59c.28,2.12.46,4.3.89,6.34.21,1,.34,2.08.6,3.09l.87,3a46.27,46.27,0,0,0,5.39,11.36,50.57,50.57,0,0,0,8.24,9.56,47,47,0,0,0,10.34,7.2l-.36-.07,90.5-2.52Zm0,0-90.47,3.32-90.46,3.67h-.2l-.16-.08A48.48,48.48,0,0,1,511.25,376a52.43,52.43,0,0,1-8.68-9.81,48.31,48.31,0,0,1-5.78-11.79l-.95-3.16c-.29-1.06-.45-2.15-.67-3.22-.48-2.17-.68-4.28-1-6.42L490.76,316l-3.34-25.59-.2-1.55,1.58,0,33.7,1h.13l24.54,2.94,6.13.76c2,.23,4.11.28,6.17.43l12.35.74,49.39,3h.19l.17.06,18.32,6.54c3.05,1.1,6.13,2.11,9.2,3.16l9.21,3.14-.42-.06L698.35,309c6.75-.25,13.49-.6,20.24-.77l20.25-.57-.6.6.6-11,0-.39.37-.11,6.34-2,.14,0,.13,0q4.17,1,8.27,2.25a66.82,66.82,0,0,1,8.08,2.91,16.59,16.59,0,0,1,1.93,1,7.24,7.24,0,0,1,.91.68,2.33,2.33,0,0,1,.7,1,22.57,22.57,0,0,1,.58,4.32c.18,2.85.24,5.7.28,8.55q.07,8.55-.23,17.09c-.12,2.85-.24,5.69-.55,8.54a10.28,10.28,0,0,1-.42,2.14,5.61,5.61,0,0,1-1.31,1.77,26.68,26.68,0,0,1-3.36,2.67c-2.35,1.62-4.78,3.11-7.16,4.66a38.72,38.72,0,0,0-6.73,5.17,8.16,8.16,0,0,0-1.22,1.71c-.35.62-.75,1.22-1.14,1.81-.8,1.18-1.66,2.32-2.53,3.45a63.82,63.82,0,0,1-5.73,6.34,29.46,29.46,0,0,1-3.28,2.75,11.66,11.66,0,0,1-1.85,1.08,8.17,8.17,0,0,1-2.07.54c-2.82.41-5.67.56-8.51.71C714.78,376.2,709.09,376.34,703.4,376.42Z" transform="translate(-21.37 -2.23)"/><path class="cls-4" d="M396.66,90.84s44.44,79.91,46.58,85H473.8S599,175,626.15,179.94c-10.68-12.18-60.68-66.88-74.78-73.08C535.12,102,494.1,84.86,396.66,90.84Z" transform="translate(-21.37 -2.23)"/><path class="cls-2" d="M396.66,90.84c4,7,8.12,14,12.11,21l12,21.06L432.73,154l5.88,10.61,2.91,5.32c1,1.8,1.92,3.53,2.85,5.48l-1.13-.75,45.76-.42c15.26-.17,30.52-.12,45.78,0s30.52.29,45.79.74l11.45.39c3.82.18,7.64.32,11.46.53l5.73.35,2.87.18,2.87.25c1.92.18,3.83.31,5.75.54l5.79.81-1.85,3.27c-5.74-6.53-11.65-13-17.57-19.36s-11.93-12.73-18-19-12.2-12.45-18.51-18.43c-3.16-3-6.36-5.93-9.65-8.72-1.65-1.39-3.31-2.77-5-4a31.21,31.21,0,0,0-5.21-3.3l.19.07c-6.28-2-12.37-4.14-18.62-5.93s-12.54-3.32-18.88-4.72a326,326,0,0,0-38.57-5.63L472.37,92l-2.43-.17-4.87-.34-4.87-.36c-1.62-.11-3.25-.16-4.88-.24l-9.76-.44-9.77-.17-4.89-.09-4.89,0-9.78.09c-3.27,0-6.44.17-9.71.24Zm0,0,9.69-.63,4.92-.34c1.65-.12,3.31-.23,4.93-.27l9.79-.35,4.9-.17,4.9,0,9.8-.09,9.8.18c1.63,0,3.27,0,4.9.11l4.9.24,4.9.26,2.45.13,2.44.2a328.47,328.47,0,0,1,38.94,5c6.42,1.31,12.84,2.69,19.17,4.46s12.61,3.75,18.77,5.66l.11,0,.08,0a34,34,0,0,1,5.89,3.63c1.82,1.31,3.53,2.72,5.23,4.13,3.39,2.83,6.65,5.78,9.86,8.77,6.42,6,12.64,12.15,18.78,18.4s12.15,12.6,18.13,19,11.89,12.83,17.71,19.4l3.55,4-5.4-.74-5.54-.76c-1.86-.21-3.76-.35-5.64-.53l-2.82-.26-2.84-.19-5.68-.36c-3.79-.22-7.6-.37-11.4-.56l-11.41-.42c-15.23-.47-30.47-.74-45.71-1s-30.49-.29-45.74-.43l-45.76-.32h-.78l-.34-.75c-.79-1.71-1.75-3.53-2.67-5.32l-2.82-5.36L430.93,155l-11.41-21.39Z" transform="translate(-21.37 -2.23)"/><polygon class="cls-1" points="490.84 49.2 490.84 71.34 472.48 69.45 471.4 44.88 490.84 49.2"/><polygon class="cls-2" points="450.34 40.57 450.34 62.97 429.83 61.35 427.67 37.06 450.34 40.57"/><polygon class="cls-1" points="399.32 34.63 399.32 58.11 375.29 55.95 375.29 30.58 399.32 34.63"/><polygon class="cls-1" points="284.58 43.27 284.58 65.67 263.8 67.56 263.8 45.7 284.58 43.27"/><polygon class="cls-2" points="262.54 45.42 261.37 67.56 242.47 69.45 242.47 46.77 262.54 45.42"/><polygon class="cls-1" points="121.52 62.97 121.52 83.22 106.61 84.37 106.95 63.99 121.52 62.97"/><polygon class="cls-2" points="106.07 65.47 106.07 85.04 91.02 85.78 91.02 66.01 106.07 65.47"/><path class="cls-4" d="M328.69,97.49s31.74-5.6,46.14,2.4,33.6,63.74,41.34,73.34c-31.2.8-107.21,0-107.21,0S321.19,98.52,328.69,97.49Z" transform="translate(-21.37 -2.23)"/><path class="cls-2" d="M328.69,97.49A149.85,149.85,0,0,1,345,95.7a107.11,107.11,0,0,1,16.46.24c1.36.2,2.73.36,4.09.59l2,.44a14.79,14.79,0,0,1,2,.52l2,.62a16.69,16.69,0,0,1,1.93.79,13.24,13.24,0,0,1,3.62,2.12,34.94,34.94,0,0,1,5.68,6.1c1.68,2.2,3.2,4.51,4.66,6.86,2.91,4.69,5.53,9.54,8,14.43s4.92,9.84,7.29,14.79l7.1,14.84c1.2,2.45,2.38,4.91,3.64,7.31a46.4,46.4,0,0,0,4,6.71l2.25,2.88-3.64.13c-9,.33-17.9.37-26.84.46s-17.88,0-26.82-.1-17.87-.24-26.81-.5l-26.8-.72-1.18,0,.21-1.13q1.81-9.73,3.83-19.4c1.33-6.45,2.77-12.89,4.23-19.31s3-12.83,4.78-19.18c.88-3.17,1.82-6.33,2.92-9.44a47.29,47.29,0,0,1,1.88-4.57A17,17,0,0,1,326.83,99,3.38,3.38,0,0,1,328.69,97.49Zm0,0A3.37,3.37,0,0,0,326.85,99a17,17,0,0,0-1.21,2.15,47.22,47.22,0,0,0-1.84,4.58c-1.08,3.11-2,6.27-2.85,9.45-1.69,6.36-3.06,12.81-4.38,19.25s-2.43,12.94-3.54,19.43-2.13,13-3.09,19.5l-1-1.16,26.8-.29,26.8-.26,26.79-.14c8.93,0,17.86-.07,26.76-.18l-1.4,3a48.66,48.66,0,0,1-4.3-7.44q-1.83-3.74-3.5-7.51l-6.55-15.12c-2.18-5-4.39-10-6.71-15s-4.74-9.86-7.44-14.6c-1.35-2.37-2.76-4.71-4.33-6.92a34,34,0,0,0-5.28-6.12,12.47,12.47,0,0,0-3.37-2.14,16.1,16.1,0,0,0-1.85-.84L369.45,98a14.44,14.44,0,0,0-2-.55l-2-.48c-1.34-.27-2.69-.46-4-.68a94.21,94.21,0,0,0-16.41-.51A149.79,149.79,0,0,0,328.69,97.49Z" transform="translate(-21.37 -2.23)"/><path class="cls-4" d="M290.54,100.25s-17,71.19-18.93,74.35-43.55,3.49-49.22,0c-5.44-3.35,16.2-70.83,20-72.18S290.54,100.25,290.54,100.25Z" transform="translate(-21.37 -2.23)"/><path class="cls-2" d="M290.54,100.25c-4.12,20.5-8.51,40.93-13.5,61.25-.64,2.54-1.25,5.08-1.94,7.62-.32,1.27-.69,2.54-1.08,3.83-.1.33-.17.61-.31,1l-.46,1.16-.12.29a.72.72,0,0,1-.09.18,3.6,3.6,0,0,1-.25.31,3.29,3.29,0,0,1-.83.63,6.93,6.93,0,0,1-1.22.51,26.62,26.62,0,0,1-4.13.87c-1.34.2-2.66.34-4,.46-2.64.24-5.28.4-7.91.51-5.27.21-10.53.19-15.8,0-2.64-.1-5.28-.24-7.93-.49-1.33-.13-2.66-.28-4-.48a25.43,25.43,0,0,1-4.17-.93,7.75,7.75,0,0,1-1.19-.51,3.42,3.42,0,0,1-.37-.22,4.54,4.54,0,0,1-.55-.47,3.51,3.51,0,0,1-.35-.47,2.38,2.38,0,0,1-.25-.44,7.44,7.44,0,0,1-.56-2.65,27.49,27.49,0,0,1,.2-4.24c.31-2.7.81-5.31,1.35-7.9,1.1-5.18,2.41-10.27,3.84-15.32s3-10.06,4.63-15,3.36-9.94,5.26-14.84c.95-2.45,1.93-4.9,3-7.32.54-1.21,1.1-2.42,1.76-3.63a12.26,12.26,0,0,1,1.2-1.87,3.85,3.85,0,0,1,.55-.55,2.74,2.74,0,0,1,.6-.33l.29-.06c.39-.08.79-.16,1.16-.22,2.72-.32,5.3-.37,7.93-.5s5.24-.16,7.85-.21c5.23-.06,10.46-.07,15.69-.07l7.84,0Zm0,0c-10.43.66-20.87,1.12-31.29,1.87-5.18.35-10.47.63-15.48,1.34l-.76.17-.19,0a.36.36,0,0,0,.18-.09s0,0-.12.16a11.52,11.52,0,0,0-.85,1.46c-.56,1.11-1.06,2.28-1.55,3.47-1,2.38-1.87,4.82-2.73,7.26-3.38,9.82-6.48,19.78-9.16,29.82-1.34,5-2.64,10.05-3.67,15.1-.51,2.52-1,5.06-1.24,7.54a23.94,23.94,0,0,0-.16,3.58,4.33,4.33,0,0,0,.2,1.17s0,0,0,0,0,0-.06-.07a.49.49,0,0,0-.18-.15l.05,0a4.65,4.65,0,0,0,.61.25,22,22,0,0,0,3.47.78c1.24.2,2.5.35,3.77.48,2.55.25,5.12.41,7.7.52,5.17.22,10.36.22,15.53.11,2.59-.06,5.17-.17,7.73-.36,1.28-.1,2.56-.21,3.81-.37a23.77,23.77,0,0,0,3.55-.66,3.88,3.88,0,0,0,.6-.22c.05,0,.07-.05,0,.06a.55.55,0,0,0-.09.13c0,.05,0,0,0,0l.06-.17c.08-.22.16-.44.26-.66s.19-.59.29-.88c.39-1.21.76-2.43,1.13-3.69.75-2.48,1.44-5,2.14-7.51l8.19-30.23,4.14-15.12,2.06-7.56Z" transform="translate(-21.37 -2.23)"/><path class="cls-4" d="M225.54,102.6s-14.6,71.42-16.29,74.58-37.47,3.5-42.34,0c-4.68-3.36,13.94-71.05,17.19-72.41S225.54,102.6,225.54,102.6Z" transform="translate(-21.37 -2.23)"/><path class="cls-2" d="M225.54,102.6q-4.73,29.16-10.66,58.09c-1,4.83-2,9.63-3.19,14.49l-.23.91c-.06.28-.22.71-.34,1.06l-.19.55-.1.27a2.77,2.77,0,0,1-.4.57,4,4,0,0,1-1.37.91,18.15,18.15,0,0,1-4,1c-2.54.42-5,.64-7.52.81-5,.33-9.95.35-14.93.21-2.49-.08-5-.22-7.49-.46-1.26-.13-2.51-.27-3.79-.48a22.91,22.91,0,0,1-3.94-.95,7.68,7.68,0,0,1-1.12-.5L166,179a2.43,2.43,0,0,1-.38-.28,4,4,0,0,1-.5-.52c-.1-.14-.19-.29-.27-.45a5.14,5.14,0,0,1-.47-1.44,10.1,10.1,0,0,1-.14-1.14,26.22,26.22,0,0,1,.1-4c.23-2.55.61-5,1-7.47.87-4.9,1.9-9.74,3.06-14.55,2.36-9.6,4.93-19.13,8-28.53.76-2.35,1.53-4.7,2.36-7s1.67-4.66,2.75-7a15.61,15.61,0,0,1,.95-1.78,6,6,0,0,1,.37-.51l.28-.3a2.26,2.26,0,0,1,.57-.35l1.14-.27c.67-.1,1.29-.16,1.93-.23l1.87-.14c2.48-.15,4.95-.26,7.41-.32Q210.78,102.3,225.54,102.6Zm0,0c-9.82.68-19.65,1.22-29.44,2-2.45.19-4.89.39-7.31.65l-1.81.21c-.58.09-1.18.18-1.72.28l-.66.17a.43.43,0,0,0,.18-.11l0,0-.16.25a13.51,13.51,0,0,0-.71,1.51c-1.76,4.43-3.16,9.18-4.52,13.86-2.65,9.43-5.14,18.93-7.26,28.48-1.06,4.78-2.1,9.56-2.9,14.35-.4,2.39-.75,4.79-.95,7.14a22.64,22.64,0,0,0-.07,3.37,6.24,6.24,0,0,0,.08.69,2,2,0,0,0,.08.31.09.09,0,0,0,0,0,.61.61,0,0,0-.17-.19c-.12-.08,0,0,0,0l.09.05a4.65,4.65,0,0,0,.57.25,19.4,19.4,0,0,0,3.22.78c1.15.2,2.34.34,3.53.47,2.39.25,4.81.4,7.23.49,4.85.19,9.73.15,14.57-.08,2.42-.12,4.84-.29,7.16-.63a15.54,15.54,0,0,0,3.15-.72c.19-.06.33-.19.19-.06a1,1,0,0,0-.14.19l0-.16.1-.32c.07-.24.15-.38.23-.69l.24-.87c1.24-4.67,2.39-9.48,3.53-14.25C216.36,140.89,220.77,121.71,225.54,102.6Z" transform="translate(-21.37 -2.23)"/><path class="cls-2" d="M561.22,217.61s1.2-26.5-72.47-34.53c69.28.27,133.1,3.21,145.14,6.42s39.75,4,62.23,15.26,18.72,2.12,25.25,16.06c5.06,10.81-8.82,9.61-12.6,9.45C677.16,228.94,595.48,227.25,561.22,217.61Z" transform="translate(-21.37 -2.23)"/><polygon class="cls-5" points="417.34 164.94 421.87 173.66 485.46 93.36 469.54 90.55 417.34 164.94"/><polygon class="cls-5" points="200.81 172.68 208.42 174.88 268.51 98.01 252.3 98.33 200.81 172.68"/><polygon class="cls-5" points="289.21 155.27 289.21 166.69 344.24 94.55 329.13 93.36 289.21 155.27"/><polygon class="cls-5" points="308.97 173.19 317.8 174.09 364.8 114.86 359.51 103.17 308.97 173.19"/><polygon class="cls-5" points="456.34 173.64 467.95 173.61 525.47 103.18 509.53 98.34 456.34 173.64"/><polygon class="cls-5" points="145.54 174.95 150.19 176.38 204.17 100.38 191.96 101.11 145.54 174.95"/></svg>