<svg xmlns="http://www.w3.org/2000/svg" viewBox="0 0 456.92 456.92"><defs><style>.cls-1{fill:#57cbff;}.cls-2{fill:#f7fbfc;}.cls-3{fill:#263650;}.cls-4{fill:#fff;}.cls-5{fill:#fe6865;}</style></defs><title>Asset 8</title><g id="Layer_2" data-name="Layer 2"><g id="Isolation_Mode" data-name="Isolation Mode"><rect class="cls-1" x="32" y="32" width="392.92" height="392.92" rx="102.05" ry="102.05"/><rect class="cls-2" x="32" y="32" width="392.92" height="392.92" rx="102.05" ry="102.05" transform="translate(332.04 534.5) rotate(-153.7)"/><g id="Layer_2-2" data-name="Layer 2"><g id="Layer_1-2" data-name="Layer 1-2"><path class="cls-3" d="M341.87,353.58v8.07a11,11,0,0,1-11,10.94H132.69a11,11,0,0,1-11-10.94v-8.07a16.16,16.16,0,0,1,16.14-16.17h.56A42.78,42.78,0,0,1,140,311.52l-7.67-7.63a59.07,59.07,0,0,1,0-83.42,6.71,6.71,0,0,1,9.49,0l24,24a67.07,67.07,0,0,1,1.53-7.67,65.27,65.27,0,0,1,2.43-7.42,71.05,71.05,0,0,1-9.42-35.25V178.52l-.3-71.73a22,22,0,0,1,21.87-22.05h.1a21.82,21.82,0,0,1,15.46,6.37L215.55,109a71.07,71.07,0,0,1,15.95-1.87h.3a72.11,72.11,0,0,1,15.69,1.69l17.91-18a21.81,21.81,0,0,1,15.5-6.49h.1a22,22,0,0,1,22,21.86l.29,72.14v15.27a71,71,0,0,1-9.48,35.89h0a66.07,66.07,0,0,1,4.55,24.24v32.85a42.87,42.87,0,0,1,26.86,50.82h.56A16.17,16.17,0,0,1,341.87,353.58Zm-13.41,5.59v-5.59a2.74,2.74,0,0,0-2.73-2.73H315.42a6.71,6.71,0,0,1-5.89-9.92,29.31,29.31,0,0,0,3.57-14.09,29.7,29.7,0,0,0-14.79-25.5v57.83ZM289.83,194.11V178.36a57.69,57.69,0,0,0-17.17-40.95c-.63-.61-1.25-1.21-1.9-1.79h-9.43a32.58,32.58,0,0,0-25,11.66,6.89,6.89,0,0,1-.73.74,6,6,0,0,1-8.5-.74h0a32.59,32.59,0,0,0-25-11.66h-9.23a57.89,57.89,0,0,0-19.16,42.91v15.58a58.1,58.1,0,0,0,58.05,57.8H232a58.1,58.1,0,0,0,57.8-57.8Zm-.17-57.43-.13-30.44a8.56,8.56,0,0,0-14.62-6l-13.27,13.4a71.23,71.23,0,0,1,20.47,14.23,73,73,0,0,1,7.56,8.8Zm-4.77,222.49V253.72a53.69,53.69,0,0,0-1.13-10.86c-.42.45-.83.88-1.27,1.31a71,71,0,0,1-50.44,21.14h-.3a71,71,0,0,1-50.31-20.71c-.6-.6-1.19-1.19-1.75-1.81a53.43,53.43,0,0,0-1.13,10.94V359.17h18.22V295.7a6.71,6.71,0,0,1,13.41,0v63.47h43V295.7a6.71,6.71,0,1,1,13.41,0h0v63.47ZM252.56,124.4a58.1,58.1,0,0,0-20.74-3.84h0a58.26,58.26,0,0,0-20.76,3.87,44.53,44.53,0,0,1,20.65,10.33A44.43,44.43,0,0,1,252.56,124.4ZM201.46,114,188,100.63a8.45,8.45,0,0,0-6-2.49h0a8.55,8.55,0,0,0-8.51,8.58l.13,30.55A72,72,0,0,1,201.46,114ZM135.14,359.14H165.2V301.38a29.78,29.78,0,0,0-10.86,11h0c-.29.53-.56,1.07-.85,1.6a29.27,29.27,0,0,0,.6,26.88,6.71,6.71,0,0,1-5.89,9.92H137.87a2.74,2.74,0,0,0-2.73,2.73Zm30.06-72.52V262.82L137.38,235a45.65,45.65,0,0,0,4.4,59.38l5.13,5.15A43.12,43.12,0,0,1,165.2,286.63Z"/><path class="cls-1" d="M328.46,353.58v5.59H298.31V301.33a29.7,29.7,0,0,1,14.8,25.52,29.31,29.31,0,0,1-3.57,14.09,6.71,6.71,0,0,0,5.89,9.92h10.31A2.74,2.74,0,0,1,328.46,353.58Z"/><path class="cls-4" d="M289.83,178.36v15.75h0A58.1,58.1,0,0,1,232,251.91h-.24a58.1,58.1,0,0,1-58.05-57.8V178.53a57.89,57.89,0,0,1,19.16-42.91h9.23a32.59,32.59,0,0,1,25,11.66,6,6,0,0,0,8.5.74h0a6.89,6.89,0,0,0,.73-.74,32.58,32.58,0,0,1,25-11.66h9.43c.64.56,1.27,1.18,1.9,1.79A57.69,57.69,0,0,1,289.83,178.36ZM267,158.74A7.22,7.22,0,1,0,259.8,166a7.22,7.22,0,0,0,7.22-7.23Zm-10.85,43.89a6,6,0,0,0-10.46-6,5,5,0,0,1-4.33,2.51h0a5,5,0,0,1-4.32-2.51,6,6,0,0,0-10.46,0,5,5,0,0,1-8.7,0,6,6,0,0,0-10.46,6h0a17.11,17.11,0,0,0,8.76,7.4v14.82a15.62,15.62,0,0,0,31.23,0V210a17.09,17.09,0,0,0,8.77-7.43ZM241.44,176.5a6.7,6.7,0,0,0-6.7-6.71h-6a6.71,6.71,0,0,0,0,13.41h6a6.7,6.7,0,0,0,6.71-6.68s0,0,0,0ZM210.91,159a7.22,7.22,0,1,0-7.22,7.22h0A7.22,7.22,0,0,0,210.91,159Z"/><path class="cls-1" d="M289.54,106.26l.13,30.44a73,73,0,0,0-7.56-8.79,71.23,71.23,0,0,0-20.47-14.26l13.28-13.39a8.56,8.56,0,0,1,14.62,6Z"/><path class="cls-4" d="M284.89,253.72V359.17H266.69V295.7a6.71,6.71,0,0,0-13.41,0v63.47h-43V295.7a6.71,6.71,0,0,0-13.41,0v63.47H178.61V253.73a53.43,53.43,0,0,1,1.13-10.94c.56.63,1.13,1.21,1.75,1.81a71,71,0,0,0,50.31,20.71h.3a71,71,0,0,0,50.44-21.14c.43-.43.85-.86,1.27-1.31A53.69,53.69,0,0,1,284.89,253.72Z"/><path class="cls-3" d="M259.8,151.49a7.22,7.22,0,1,1-7.24,7.24,7.22,7.22,0,0,1,7.24-7.24Z"/><path class="cls-3" d="M254,194.36a6,6,0,0,1,2.23,8.22h0A17.09,17.09,0,0,1,247.4,210v14.82a15.62,15.62,0,0,1-31.23,0V210a17.11,17.11,0,0,1-8.76-7.45,6,6,0,1,1,10.46-6,5,5,0,0,0,8.7,0,6,6,0,0,1,10.46,0,5,5,0,0,0,4.32,2.51h0a5,5,0,0,0,4.33-2.51,6,6,0,0,1,8.24-2.2Zm-18.6,30.49V210a17.39,17.39,0,0,1-3.54-1.84,17.25,17.25,0,0,1-3.55,1.83v14.83a3.55,3.55,0,0,0,7.09,0Z"/><path class="cls-1" d="M231.82,120.56a58.1,58.1,0,0,1,20.74,3.84,44.42,44.42,0,0,0-20.85,10.36A44.53,44.53,0,0,0,211,124.42a58.26,58.26,0,0,1,20.76-3.87Z"/><path class="cls-3" d="M234.74,169.77a6.71,6.71,0,1,1,0,13.41h-6a6.71,6.71,0,0,1,0-13.41Z"/><path class="cls-5" d="M235.33,210v14.82a3.55,3.55,0,0,1-7.09,0V210a17.25,17.25,0,0,0,3.55-1.83A17.39,17.39,0,0,0,235.33,210Z"/><path class="cls-3" d="M203.69,151.74a7.22,7.22,0,1,1-7.21,7.23h0A7.22,7.22,0,0,1,203.69,151.74Z"/><path class="cls-1" d="M188,100.63,201.46,114a72,72,0,0,0-27.88,23.31l-.13-30.55A8.55,8.55,0,0,1,182,98.14h0A8.45,8.45,0,0,1,188,100.63Z"/><path class="cls-1" d="M165.2,359.17H135.13v-5.59a2.74,2.74,0,0,1,2.73-2.73h10.31a6.71,6.71,0,0,0,5.89-9.92,29.27,29.27,0,0,1-.6-26.88c.27-.56.56-1.07.85-1.6h0a29.78,29.78,0,0,1,10.88-11Z"/><path class="cls-1" d="M165.2,262.82v23.81a43.12,43.12,0,0,0-18.26,12.93l-5.13-5.15A45.65,45.65,0,0,1,137.4,235Z"/></g></g></g></g></svg>