<svg xmlns="http://www.w3.org/2000/svg" viewBox="0 0 456.92 456.92"><defs><style>.cls-1{fill:#57cbff;}.cls-2{fill:#f7fbfc;}.cls-3{fill:#bc043d;}.cls-4{fill:#9b053b;}.cls-5{fill:#d3dddd;}.cls-6{fill:#db0940;}.cls-7{fill:#e1eaea;}.cls-8{fill:#c9d3d3;}.cls-9{fill:#adc4c3;}.cls-10{fill:#203547;}.cls-11{fill:#122130;}.cls-12{fill:#6e7577;}.cls-13{fill:#4c5456;}.cls-14{fill:#ced8dd;}.cls-15{fill:#b2bbc1;}.cls-16{fill:#888f91;opacity:0.2;isolation:isolate;}.cls-17{fill:#e7eff2;}.cls-18{fill:#dae6ea;}.cls-19{fill:#666e70;}.cls-20{fill:#535a5b;}.cls-21{fill:#51859b;}.cls-22{fill:#81b6c9;}.cls-23{fill:#8e8e8e;}.cls-24{fill:#ddeded;}.cls-25{fill:#ffa300;}.cls-26{fill:#ff7300;}.cls-27{fill:#1264b5;}</style></defs><title>newiconeambulance</title><g id="Layer_2" data-name="Layer 2"><g id="Isolation_Mode" data-name="Isolation Mode"><rect class="cls-1" x="32" y="32" width="392.92" height="392.92" rx="102.05" ry="102.05"/><rect class="cls-2" x="32" y="32" width="392.92" height="392.92" rx="102.05" ry="102.05" transform="translate(332.04 534.5) rotate(-153.7)"/><g id="Layer_2-2" data-name="Layer 2"><g id="ICONS"><path class="cls-3" d="M239,140.51a4.57,4.57,0,0,1,4.57-4.57h41.59a4.57,4.57,0,0,1,4.78,4.36q0,.11,0,.21l4.57,12.16c0,3-7.07,5.09-9.56,5.09H243.38c-2.5,0-9.56-2.5-9.56-5.09Z"/><path class="cls-4" d="M243.59,157.66h41.59c2.5,0,9.56-2.5,9.56-5.09l-5.61-12.06v-1H238.49v1L234,152.57C234,155.68,241.09,157.66,243.59,157.66Z"/><path class="cls-5" d="M259.8,136.45a1.66,1.66,0,0,1,1.46-1.56h7.9a1.66,1.66,0,0,1,1.56,1.56l2.5,13.1a1.66,1.66,0,0,1-1.56,1.56H258.76a1.66,1.66,0,0,1-1.56-1.56Z"/><path class="cls-6" d="M373.12,250.71a4.78,4.78,0,0,1,5.09-5.09h0a4.78,4.78,0,0,1,5.09,5.09v22.77a4.78,4.78,0,0,1-5.09,5.09h0c-2.5,0-5.09,0-5.09-2.5Z"/><path class="cls-3" d="M378.12,278.57h0c-2.5,0-5.09,0-5.09-2.5V250.71a4.78,4.78,0,0,1,5.09-5.09h0"/><path class="cls-7" d="M86.81,234.49a10.4,10.4,0,0,1,10.4-10.4h27a10.4,10.4,0,0,1,10.4,10.4V241a10.4,10.4,0,0,1-10.4,10.4H96.89A10.4,10.4,0,0,1,86.5,241Z"/><path class="cls-7" d="M147,158.18a10.4,10.4,0,0,1,10.4-10.4H361a10.4,10.4,0,0,1,10.4,10.4v17.15a10.4,10.4,0,0,1-10.4,10.4H157.61a10.4,10.4,0,0,1-10.4-10.4Z"/><path class="cls-5" d="M74.12,286.16a7.8,7.8,0,0,0,7.59,7.59H373.12a7.8,7.8,0,0,0,7.59-7.59V236.57a7.59,7.59,0,0,0-5.61-7.07V168.26a10.4,10.4,0,0,0-4.05-8.11c0-5.61-9.56-4.05-15.18-4.05l-198.26-5.51a11.44,11.44,0,0,0-10.4,7.59H146a10.4,10.4,0,0,0-10.4,10.4l-26.51,59.88H86.81A7.8,7.8,0,0,0,79.22,236Z"/><path class="cls-8" d="M76.2,290.84a8.11,8.11,0,0,0,5.61,2.5H373.12a7.8,7.8,0,0,0,7.59-7.59V246.13H78.18l-2,19.23Z"/><path class="cls-9" d="M71.63,293.23a4.78,4.78,0,0,1,5.09-5.09H380.19a4.78,4.78,0,0,1,5.09,5.09v3a4.78,4.78,0,0,1-5.09,5.09H76.72a4.78,4.78,0,0,1-5.09-5.09Z"/><path d="M291.1,292.19a31.19,31.19,0,0,1,62.38,0"/><path class="cls-9" d="M322.49,259.65a32.85,32.85,0,0,1,32.85,32.85h-3a30.36,30.36,0,0,0-60.72,0H290A33.16,33.16,0,0,1,322.49,259.65Z"/><circle class="cls-10" cx="322.49" cy="293.75" r="28.28"/><path class="cls-11" d="M341.94,313.4A28.28,28.28,0,0,1,302,273.48"/><circle class="cls-12" cx="322.49" cy="293.75" r="17.67"/><path class="cls-13" d="M335.18,306.33a17.88,17.88,0,0,1-25.26-25.26"/><circle class="cls-14" cx="322.49" cy="293.75" r="15.7"/><path class="cls-15" d="M333.62,304.87a15.73,15.73,0,0,1-22.25-22.25h0"/><path class="cls-16" d="M322.49,286.57a7,7,0,0,1,7.07,6.86q0,.1,0,.21a7.17,7.17,0,1,1-14.14,0,6.65,6.65,0,0,1,7.07-7.07Z"/><circle class="cls-17" cx="322.49" cy="293.75" r="7.07"/><path class="cls-18" d="M322.49,300.3a7.07,7.07,0,0,1,0-14.14h0"/><path class="cls-19" d="M320.52,278c0,2.5,1,4.05,2,4.05s1.56-2,2-4.05h-4Z"/><path class="cls-20" d="M322.49,278h-2c0,2.5,1,4.05,2,4.05"/><path class="cls-19" d="M322.49,304.87c-1,0-1.56,2-2,4.05h4.05C324.05,306.85,323.53,305.29,322.49,304.87Z"/><path class="cls-20" d="M322.49,304.87c-1,0-1.56,2-2,4.05"/><path class="cls-19" d="M331.54,281.06c-1,1.56-1.56,3.53-1,4.05s2,0,4.05-1A8.63,8.63,0,0,0,331.54,281.06Z"/><path class="cls-20" d="M331.54,281.58c-1,1.56-1.56,3.53-1,4.05"/><path class="cls-19" d="M311.37,304.35l1.56,1.56c1-1.56,1.56-3.53,1-4.05s-2,0-4.05,1Q310.75,304.35,311.37,304.35Z"/><path class="cls-20" d="M313.87,302.27c0-1-2,0-4.05,1l1.56,1.56"/><path class="cls-19" d="M337.67,293.75v-2c-2.5,0-4.05,1-4.05,2s2,1.56,4.05,2A1.56,1.56,0,0,0,337.67,293.75Z"/><path class="cls-20" d="M338.19,293.75v-2c-2.5,0-4.05,1-4.05,2"/><path class="cls-19" d="M306.8,291.67v4.05c2.5,0,4.05-1,4.05-2S309.29,291.67,306.8,291.67Z"/><path class="cls-20" d="M310.75,293.75c0-1-2-1.56-4.05-2"/><path class="cls-19" d="M330.6,301.75c-1,0,0,2,1,4.05l3-3C333.1,301.75,331.54,301.23,330.6,301.75Z"/><path class="cls-20" d="M331.54,301.75c-1,0,0,2,1,4.05"/><path class="cls-19" d="M309.81,284.08c1.56,1,3.53,1.56,4.05,1s0-2-1-4.05Z"/><path class="cls-20" d="M313.87,285.12c1,0,0-2-1-4.05"/><path d="M105,292.19a31.19,31.19,0,0,1,62.38,0"/><path class="cls-9" d="M136.4,259.65a32.85,32.85,0,0,1,32.85,32.85h-2.5a30.36,30.36,0,1,0-60.72,0h-2.6A33.16,33.16,0,0,1,136.4,259.65Z"/><circle class="cls-10" cx="135.88" cy="293.75" r="28.28"/><path class="cls-11" d="M156,313.4a28.28,28.28,0,0,1-39.92-39.92"/><circle class="cls-12" cx="135.88" cy="293.75" r="17.67"/><path class="cls-13" d="M149,306.33a17.9,17.9,0,1,1-25.37-25.26h0"/><circle class="cls-14" cx="135.88" cy="293.75" r="15.7"/><path class="cls-15" d="M147.52,304.87a15.73,15.73,0,0,1-22.25-22.25"/><path class="cls-16" d="M135.88,286.57a7,7,0,0,1,7.07,6.86q0,.1,0,.21a8.32,8.32,0,0,1-7.07,8.63,8.32,8.32,0,0,1-7.07-8.63,7,7,0,0,1,6.86-7.07Z"/><circle class="cls-17" cx="135.88" cy="293.75" r="7.07"/><path class="cls-18" d="M135.88,300.3a7.07,7.07,0,0,1,0-14.14"/><path class="cls-19" d="M134,278c0,2.5,1,4.05,2,4.05s1.56-2,2-4.05Z"/><path class="cls-20" d="M135.88,278H134c0,2.5,1,4.05,2,4.05"/><path class="cls-19" d="M136.4,304.87c-1,0-1.56,2-2,4.05h4.05A9.67,9.67,0,0,0,136.4,304.87Z"/><path class="cls-20" d="M135.88,304.87c-1,0-1.56,2-2,4.05"/><path class="cls-19" d="M145.44,281.06c-1,1.56-1.56,3.53-1,4.05s2,0,4.05-1Z"/><path class="cls-20" d="M145.44,281.58c-1,1.56-1.56,3.53-1,4.05"/><path class="cls-19" d="M125.27,304.35l1.56,1.56c1-1.56,1.56-3.53,1-4.05s-2,0-4.05,1Q124.44,304.35,125.27,304.35Z"/><path class="cls-20" d="M127.77,302.27c0-1-2,0-4.05,1l1.56,1.56"/><path class="cls-19" d="M151.58,293.75v-2c-2.5,0-4.05,1-4.05,2s2,1.56,4.05,2Z"/><path class="cls-20" d="M151.58,293.75v-2c-2.5,0-4.05,1-4.05,2"/><path class="cls-19" d="M120.7,291.67v4.05c2.5,0,4.05-1,4.05-2S122.68,291.67,120.7,291.67Z"/><path class="cls-20" d="M124.75,293.75c0-1-2-1.56-4.05-2"/><path class="cls-19" d="M144.4,301.75c-1,0,0,2,1,4.05l3-3C146.48,301.75,144.92,301.23,144.4,301.75Z"/><path class="cls-20" d="M144.4,301.75c-1,0,0,2,1,4.05"/><path class="cls-19" d="M123.61,284.08c1.56,1,3.53,1.56,4.05,1s0-2-1-4.05Z"/><path class="cls-20" d="M127.77,285.12c1,0,0-2-1-4.05"/><path class="cls-21" d="M112.59,224.4H188a5.61,5.61,0,0,0,5.61-5.61V176.48a5.61,5.61,0,0,0-5.61-5.61H134l-23,53A1.87,1.87,0,0,0,112.59,224.4Z"/><polygon class="cls-22" points="194 195.61 194 180.95 183.91 170.76 169.25 170.76 194 195.61"/><path class="cls-22" d="M118.2,207.67,111,223.88a1.87,1.87,0,0,0,1.56,0h22.25Z"/><path class="cls-5" d="M149.5,161.19a2.91,2.91,0,0,1,3.53-2h0a2.91,2.91,0,0,1,1.77,3.53L137.85,229.5a2.91,2.91,0,0,1-3.56,2.07l-.29-.09h0a2.91,2.91,0,0,1-1.66-3Z"/><path class="cls-23" d="M179.34,237.09a3.43,3.43,0,0,1,3.32-3.53H191a3.43,3.43,0,0,1,3.53,3.32q0,.11,0,.21h0a3.43,3.43,0,0,1-3.32,3.53h-8.32a3.43,3.43,0,0,1-3.53-3.32Q179.33,237.19,179.34,237.09Z"/><path class="cls-24" d="M273.42,268.38a1,1,0,0,1,1-1H281a1,1,0,0,1,1,1h0a1,1,0,0,1-1,1h-6.55a1,1,0,0,1-1-1Z"/><path class="cls-24" d="M273.42,274c0-1,0-1,1-1H281a1,1,0,0,1,1,1h0a1,1,0,0,1-1,1h-6.55a1,1,0,0,1-1-1Z"/><path class="cls-24" d="M273.42,279a1,1,0,0,1,1-1H281a1,1,0,0,1,1,1h0a1,1,0,0,1-1,1h-6.55a1,1,0,0,1-1-1Z"/><path class="cls-25" d="M76.2,249.25A4,4,0,0,1,80,245.2h.21A4,4,0,0,1,84.31,249q0,.11,0,.21V270a4,4,0,0,1-3.84,4.05h-.21a4,4,0,0,1-4.05-3.84q0-.11,0-.21Z"/><path class="cls-26" d="M80.78,246.13h0A4,4,0,0,1,84.83,250q0,.11,0,.21V271A4,4,0,0,1,81,275h-.21"/><path id="SVGCleanerId_0" data-name="SVGCleanerId 0" class="cls-3" d="M281,206.73v8.11a7.8,7.8,0,0,0,7.59,7.59h19.23v19.23a7.8,7.8,0,0,0,7.59,7.59h8.11a7.8,7.8,0,0,0,7.59-7.59V222.43h19.23a7.8,7.8,0,0,0,7.59-7.59v-8.11a7.8,7.8,0,0,0-7.59-7.59h-18.3V179.91a7.8,7.8,0,0,0-7.59-7.59h-8.11a7.8,7.8,0,0,0-7.59,7.59v19.23H290A9,9,0,0,0,281,206.73Z"/><path id="SVGCleanerId_0-2" data-name="SVGCleanerId 0-2" class="cls-27" d="M281,206.73v8.11a7.8,7.8,0,0,0,7.59,7.59h19.23v19.23a7.8,7.8,0,0,0,7.59,7.59h8.11a7.8,7.8,0,0,0,7.59-7.59V222.43h19.23a7.8,7.8,0,0,0,7.59-7.59v-8.11a7.8,7.8,0,0,0-7.59-7.59h-18.3V179.91a7.8,7.8,0,0,0-7.59-7.59h-8.11a7.8,7.8,0,0,0-7.59,7.59v19.23H290A9,9,0,0,0,281,206.73Z"/></g></g></g></g></svg>