<svg xmlns="http://www.w3.org/2000/svg" viewBox="0 0 456.92 456.92"><defs><style>.cls-1{fill:#57cbff;}.cls-2{fill:#f7fbfc;}.cls-3{fill:#263650;}</style></defs><title>newiconemadrigot</title><g id="Layer_2" data-name="Layer 2"><g id="Isolation_Mode" data-name="Isolation Mode"><rect class="cls-1" x="32" y="32" width="392.92" height="392.92" rx="102.05" ry="102.05"/><rect class="cls-2" x="32" y="32" width="392.92" height="392.92" rx="102.05" ry="102.05" transform="translate(332.04 534.5) rotate(-153.7)"/><g id="Layer_2-2" data-name="Layer 2"><g id="Layer_1-2" data-name="Layer 1-2"><path class="cls-1" d="M340,112.92H294.84l-.7.35-.45.25L124.38,253a4,4,0,0,0-.57,5.61l0,0a4,4,0,0,0,5.61.57l0,0,7.37-6v59a4,4,0,1,0,8,0h0V246.54l31.87-26.19V280.1a4,4,0,0,0,8,0V213.77l31.87-26.14v60.75a4,4,0,0,0,8,0V181l27.89-23v58.41a4,4,0,0,0,8,0V151.77l31.87-26.44v59.31a4,4,0,1,0,8,0h0V120.89H340a4,4,0,0,0,0-8Z"/><path class="cls-3" d="M340,152.76H313.27a5,5,0,0,0-5,5v21.61a5,5,0,0,1-5,5H273.43a5,5,0,0,0-5,5v27.19h-31a5,5,0,0,0-5,5V243.1a5,5,0,0,1-5,5H197.58a5,5,0,0,0-5,5v21.61a5,5,0,0,1-5,5H157.74a5,5,0,0,0-5,5v22.51a5,5,0,0,1-5,5H117.91a5,5,0,0,0-5,5V344H340Z"/></g></g></g></g></svg>