<svg xmlns="http://www.w3.org/2000/svg" viewBox="0 0 456.92 456.92"><defs><style>.cls-1{fill:#57cbff;}.cls-2{fill:#f7fbfc;}.cls-3{fill:#263650;}.cls-4{fill:#e74e4e;}</style></defs><title>newinconlahtzan</title><g id="Layer_2" data-name="Layer 2"><g id="Isolation_Mode" data-name="Isolation Mode"><rect class="cls-1" x="32" y="32" width="392.92" height="392.92" rx="102.05" ry="102.05"/><rect class="cls-2" x="32" y="32" width="392.92" height="392.92" rx="102.05" ry="102.05" transform="translate(332.04 534.5) rotate(-153.7)"/><path class="cls-3" d="M284.56,95.13H172.37A19.41,19.41,0,0,0,153,114.56V342.38a19.4,19.4,0,0,0,19.41,19.41H284.56A19.4,19.4,0,0,0,304,342.38V114.56a19.41,19.41,0,0,0-19.4-19.43Zm-83.78,11.79h55.39c1.4,0,2.52,2.09,2.52,4.67s-1.12,4.68-2.52,4.68H200.78c-1.42,0-2.53-2.1-2.53-4.68s1.11-4.67,2.53-4.67Zm27.7,235.69a12.39,12.39,0,1,1,12.35-12.4,12.41,12.41,0,0,1-12.35,12.4Zm60.94-42.45H167.51V127.91H289.42Zm0,0"/><rect class="cls-2" x="167.51" y="127.91" width="121.91" height="172.25"/><path class="cls-4" d="M255.65,202.4H240.88V187.63a9.31,9.31,0,0,0-9.31-9.3h-6.22a9.31,9.31,0,0,0-9.31,9.3V202.4H201.27a9.3,9.3,0,0,0-9.3,9.3v6.22a9.3,9.3,0,0,0,9.3,9.3H216V242a9.31,9.31,0,0,0,9.31,9.3h6.22a9.3,9.3,0,0,0,9.31-9.3V227.23h14.77a9.31,9.31,0,0,0,9.31-9.3V211.7a9.31,9.31,0,0,0-9.31-9.3Zm0,0"/><path class="cls-1" d="M228.48,343.42a13.19,13.19,0,1,1,13.16-13.21,13.21,13.21,0,0,1-13.16,13.21Zm0,0"/><path class="cls-1" d="M200.78,106.93h55.39c1.4,0,2.52,2.09,2.52,4.67s-1.12,4.68-2.52,4.68H200.78c-1.42,0-2.53-2.1-2.53-4.68s1.11-4.67,2.53-4.67Zm0,0"/></g></g></svg>