<svg xmlns="http://www.w3.org/2000/svg" viewBox="0 0 456.92 456.92"><defs><style>.cls-1{fill:#57cbff;}.cls-2{fill:#f7fbfc;}.cls-3{fill:#ffd7a3;}.cls-4{fill:#fdc88e;}.cls-5{fill:#ffe1b2;}.cls-6{fill:#7e5449;}.cls-7{fill:#527992;}.cls-8{fill:#545465;}.cls-9{fill:#d0d7dc;}.cls-10{fill:#475f7f;}.cls-11{fill:#e4ebf0;}</style></defs><title>newinconmelavveh</title><g id="Layer_2" data-name="Layer 2"><g id="Isolation_Mode" data-name="Isolation Mode"><rect class="cls-1" x="32" y="32" width="392.92" height="392.92" rx="102.05" ry="102.05"/><rect class="cls-2" x="32" y="32" width="392.92" height="392.92" rx="102.05" ry="102.05" transform="translate(332.04 534.5) rotate(-153.7)"/><path class="cls-3" d="M183.48,268.28c9.16-5.9,8.13-23.44,8.13-27.53h73.69c0,4.09-1.14,21.64,8,27.53l-44.87,50.25Z"/><path class="cls-4" d="M257.12,285.78l16.21-17.5c-9.16-5.89-8-23.44-8-27.53H191.61C196.9,255.94,231.87,282,257.12,285.78Z"/><path class="cls-5" d="M285.78,187.52c0,32.79-18.88,73.69-57.32,73.69s-57.32-40.91-57.32-73.69,25.66-45,57.32-45S285.78,154.73,285.78,187.52Z"/><path class="cls-5" d="M173.05,194.68c-6.14-1.54-10.16,1.75-10.16,8.19,0,8.53,8.25,29.43,16.93,16.38S173.05,194.68,173.05,194.68Z"/><path class="cls-5" d="M282.82,194.68c6.7-1.54,11.09,1.75,11.09,8.19,0,8.53-9,29.43-18.48,16.38S282.82,194.68,282.82,194.68Z"/><path class="cls-6" d="M183.42,171.14c-1.71,4.91-4.09,32.75-4.09,32.75l-8.19-4.53-2.3-30Z"/><path class="cls-6" d="M273.49,171.14c1.71,4.91,4.09,32.75,4.09,32.75l8.19-4.53,2.3-30Z"/><path class="cls-7" d="M322.62,359.47a12.28,12.28,0,0,0,12.28-12.28v-31.3c0-18-14-37.25-31.19-42.74L278.1,265c-13.78,10.54-33.47,24.91-49.64,24.91S192.6,275.5,178.82,265l-25.61,8.2C136,278.65,122,297.88,122,315.89v31.3a12.28,12.28,0,0,0,12.28,12.28Z"/><path class="cls-8" d="M236.65,302.15a4.11,4.11,0,0,1-4.09,4.09h-8.19a4.11,4.11,0,0,1-4.09-4.09V294a4.11,4.11,0,0,1,4.09-4.09h8.19a4.11,4.11,0,0,1,4.09,4.09Z"/><circle class="cls-9" cx="228.46" cy="326.72" r="4.09"/><path class="cls-10" d="M228.46,289.87,211.38,307a4.09,4.09,0,0,1-6.21-.49l-29.93-41.16,9.54-9.54a4.09,4.09,0,0,1,5.63-.15Z"/><path class="cls-10" d="M228.46,289.87,245.54,307a4.09,4.09,0,0,0,6.21-.49l29.93-41.16-9.54-9.54a4.09,4.09,0,0,0-5.63-.15Z"/><polygon class="cls-8" points="234.08 303.94 228.46 306.25 222.83 303.94 220.27 359.47 228.46 359.47 236.65 359.47 234.08 303.94"/><path class="cls-11" d="M324.07,359.33a12.24,12.24,0,0,0,10.84-12.14v-31.3c0-18-14-37.25-31.19-42.74L281.39,266h0l-32.46,93.31h75.14Z"/><path class="cls-11" d="M175.53,266h0l-22.32,7.14C136,278.65,122,297.88,122,315.89v31.3a12.24,12.24,0,0,0,10.84,12.14H208Z"/><path class="cls-9" d="M175.23,265.31l-17.41,21.05a4.09,4.09,0,0,0,.82,6.09l8.41,5.61-9.73,9.73a4.09,4.09,0,0,0-.34,5.41l26.44,46.28,24.56-.15Z"/><path class="cls-9" d="M281.68,265.31l17.41,21.05a4.09,4.09,0,0,1-.82,6.09l-8.41,5.61,9.73,9.73a4.09,4.09,0,0,1,.34,5.41l-26.44,46.28-24.56-.15Z"/><path class="cls-11" d="M289.87,171.14H167v-59a135.27,135.27,0,0,1,122.82,0Z"/></g></g></svg>