<?xml version="1.0" encoding="utf-8"?>
<!-- Generator: Adobe Illustrator 23.0.3, SVG Export Plug-In . SVG Version: 6.00 Build 0)  -->
<svg version="1.1" id="Layer_1" xmlns="http://www.w3.org/2000/svg" xmlns:xlink="http://www.w3.org/1999/xlink" x="0px" y="0px"
	 viewBox="0 0 456.9 456.9" style="enable-background:new 0 0 456.9 456.9;" xml:space="preserve">
<style type="text/css">
	.st0{fill:#57CBFF;}
	.st1{fill:#F7FBFC;}
	.st2{fill:url(#SVGID_1_);}
	.st3{fill:url(#SVGID_2_);}
	.st4{opacity:0.2;}
	.st5{fill:#FFFFFF;}
	.st6{fill:url(#SVGID_3_);}
	.st7{fill:url(#SVGID_4_);}
	.st8{opacity:0.3;fill:#FFFFFF;}
	.st9{fill:url(#SVGID_5_);}
	.st10{fill:url(#SVGID_6_);}
	.st11{fill:url(#SVGID_7_);}
	.st12{fill:url(#SVGID_8_);}
	.st13{fill:url(#SVGID_9_);}
	.st14{clip-path:url(#SVGID_10_);}
	.st15{fill:#1A1A1A;}
	.st16{opacity:0.6;}
	.st17{fill:#FFD092;}
	.st18{fill:#F7931E;}
	.st19{fill:#99ACBA;}
	.st20{opacity:0.4;}
	.st21{fill:#339EFF;}
	.st22{fill:#ED1C24;}
	.st23{fill:#BF9A67;}
	.st24{fill:#9A734A;}
	.st25{fill:url(#SVGID_13_);}
	.st26{fill:url(#SVGID_14_);}
	.st27{fill:url(#SVGID_15_);}
	.st28{fill:url(#SVGID_16_);}
	.st29{fill:url(#SVGID_17_);}
	.st30{clip-path:url(#SVGID_18_);}
	.st31{fill:#293440;}
	.st32{filter:url(#Adobe_OpacityMaskFilter);}
	.st33{filter:url(#Adobe_OpacityMaskFilter_1_);}
	.st34{mask:url(#SVGID_19_);fill:url(#SVGID_20_);}
	.st35{fill:url(#SVGID_21_);}
	.st36{fill:#512B06;}
	.st37{filter:url(#Adobe_OpacityMaskFilter_2_);}
	.st38{filter:url(#Adobe_OpacityMaskFilter_3_);}
	.st39{mask:url(#SVGID_22_);fill:url(#SVGID_23_);}
	.st40{fill:url(#SVGID_24_);}
	.st41{filter:url(#Adobe_OpacityMaskFilter_4_);}
	.st42{filter:url(#Adobe_OpacityMaskFilter_5_);}
	.st43{mask:url(#SVGID_25_);fill:url(#SVGID_26_);}
	.st44{fill:url(#SVGID_27_);}
	.st45{fill:url(#SVGID_28_);}
	.st46{fill:url(#SVGID_29_);}
	.st47{fill:url(#SVGID_30_);}
	.st48{fill:url(#SVGID_31_);}
	.st49{fill:url(#SVGID_32_);}
	.st50{fill:url(#SVGID_33_);}
	.st51{fill:url(#SVGID_34_);}
	.st52{fill:#2D3845;}
	.st53{fill:#FBB03B;}
	.st54{fill:#4D4D4D;}
</style>
<title>newiconeambulance</title>
<g>
	<g id="Isolation_Mode">
		<path class="st0" d="M134.1,32h188.8c56.4,0,102.1,45.7,102.1,102.1v188.8c0,56.4-45.7,102.1-102.1,102.1H134.1
			C77.7,424.9,32,379.2,32,322.9V134.1C32,77.7,77.7,32,134.1,32z"/>
		<path class="st1" d="M226,446.4L56.8,362.8c-50.5-25-71.2-86.2-46.3-136.7L94.2,56.8c25-50.5,86.2-71.2,136.7-46.3l169.3,83.7
			c50.5,25,71.2,86.2,46.3,136.7l-83.7,169.3C337.8,450.7,276.6,471.4,226,446.4z"/>
		<g>
			<linearGradient id="SVGID_1_" gradientUnits="userSpaceOnUse" x1="219.8684" y1="278.6418" x2="219.8684" y2="169.9355">
				<stop  offset="0" style="stop-color:#808080"/>
				<stop  offset="1" style="stop-color:#B3B3B3"/>
			</linearGradient>
			<path class="st2" d="M310.4,201.7c2.9,2.4,6.5,3.8,10.2,4c22.7,1.6,65.6,6.4,84.1,12.9c20.4,7.1,18.7,20,17.7,30.9
				c-1,10.9-5.1,22.7-17.3,24.8c-12.2,2-64.2,4.4-86.9,4.4c-22.7,0-153.1-1.7-181.4-1.7s-71.8-4.8-84.7-5.8
				c-12.9-1-32.6-2.7-34.3-11.5c-1.7-8.8-1-12.2,1.4-18s5.1-8.8,5.1-8.8s2.4-27.2,6.1-29.5c3.7-2.4,29.9-0.3,40.4-4.1
				c10.5-3.7,51.3-23.1,78.4-26.5c27.2-3.4,67.5-4.1,95.4,0c27.8,4.1,41.7,13.2,54,20.7C304.1,196.9,307.9,199.6,310.4,201.7z"/>
			<linearGradient id="SVGID_2_" gradientUnits="userSpaceOnUse" x1="219.9033" y1="278.6418" x2="219.9033" y2="169.9355">
				<stop  offset="0" style="stop-color:#111D29"/>
				<stop  offset="1" style="stop-color:#294663"/>
			</linearGradient>
			<path class="st3" d="M310.4,201.7c2.9,2.4,6.5,3.8,10.2,4c22.7,1.6,65.6,6.4,84.1,12.9c20.4,7.1,18.7,20,17.7,30.9
				c-1,10.9-5.1,22.7-17.3,24.8c-12.2,2-64.2,4.4-86.9,4.4c-22.7,0-153.1-1.7-181.4-1.7s-71.8-4.8-84.7-5.8
				c-12.9-1-31.3-3.1-34.3-11.5c-1.5-4.4-1-12.2,1.4-18s5.1-8.8,5.1-8.8s2.4-27.2,6.1-29.5c3.7-2.4,29.9-0.3,40.4-4.1
				c10.5-3.7,51.3-23.1,78.4-26.5c27.2-3.4,67.5-4.1,95.4,0c27.8,4.1,41.7,13.2,54,20.7C304.1,196.9,307.9,199.6,310.4,201.7z"/>
			<g class="st4">
				<path class="st5" d="M422.5,236.1L422.5,236.1c-1.2-6.8-5.4-13.2-17.8-17.5c-18.5-6.5-61.4-11.3-84.1-12.9
					c-3.7-0.3-7.3-1.7-10.2-4c-2.5-2-6.3-4.8-11.9-8.2c-12.2-7.5-26.1-16.6-54-20.7c-27.8-4.1-68.2-3.4-95.4,0
					c-27.2,3.4-67.9,22.7-78.4,26.5c-10.5,3.7-36.7,1.7-40.4,4.1c-0.6,0.4-1.1,1.3-1.6,2.6l0,0c0,0,21,2,42.1,3.2
					c21,1.2,60.4,5.4,121.7,5.4c61.2,0,116.6-2.5,149.1,0C374.1,216.9,413.7,219.1,422.5,236.1z"/>
			</g>
			<linearGradient id="SVGID_3_" gradientUnits="userSpaceOnUse" x1="192.2682" y1="209.0492" x2="192.2682" y2="169.9355">
				<stop  offset="0" style="stop-color:#D5D9E0"/>
				<stop  offset="1" style="stop-color:#E8EDF5"/>
			</linearGradient>
			<path class="st6" d="M310.4,201.7c-2.5-2-6.3-4.8-11.9-8.2c-12.2-7.5-26.1-16.6-54-20.7c-27.8-4.1-68.2-3.4-95.4,0
				c-27.2,3.4-67.9,22.7-78.4,26.5c-0.5,0.2-1,0.3-1.5,0.5l52.9,6.2l173.3,3.2l19.8-4.5l0,0C313.5,203.8,311.9,202.9,310.4,201.7z"
				/>
			<linearGradient id="SVGID_4_" gradientUnits="userSpaceOnUse" x1="207.3699" y1="278.4592" x2="207.3699" y2="173.873">
				<stop  offset="0" style="stop-color:#D5D9E0"/>
				<stop  offset="1" style="stop-color:#E8EDF5"/>
			</linearGradient>
			<path class="st7" d="M292.6,203.5c-5.6-4.5-22.3-15-32.2-21.9c-8-5.7-34.4-7.7-55.9-7.7c-21.5,0-37.3,0.5-48.7,2
				c-11.3,1.6-23.3,11.1-30.1,22.4c-6.8,11.3-10.6,33.4-10.6,33.4l0,0c13.6,5,23.4,18.2,23.4,33.5c0,3.8,0.2,8.5,0.5,11.7
				c-0.9,0-1.7,0-2.4,0l155.9,1.5c0,0,4.5-18.8,6.3-36.2C300.7,225,298.3,208,292.6,203.5z"/>
			<path class="st8" d="M309.9,278.6c3.5,0,6.3,0,8.3,0c15.6,0,44.8-1.1,65.6-2.5c-0.5-2.8-0.8-7.6-0.8-12.3
				c0-19.7-16-37.1-35.7-37.1c-19.7,0-35.7,17.4-35.7,37.1C311.5,268.7,312.2,274.9,309.9,278.6z"/>
			<path d="M309.9,278.6c3.5,0,6.3,0,8.3,0c15.6,0,44.8-1.1,65.6-2.5c-0.5-2.8-0.8-6.2-0.8-10.9c0-19.7-16-35.7-35.7-35.7
				c-19.7,0-35.7,16-35.7,35.7C311.5,270,310.8,274.3,309.9,278.6z"/>
			<linearGradient id="SVGID_5_" gradientUnits="userSpaceOnUse" x1="347.2229" y1="295.5543" x2="347.2229" y2="234.9231">
				<stop  offset="0" style="stop-color:#1A1A1A"/>
				<stop  offset="1" style="stop-color:#333333"/>
			</linearGradient>
			<circle class="st9" cx="347.2" cy="265.2" r="30.3"/>
			<linearGradient id="SVGID_6_" gradientUnits="userSpaceOnUse" x1="347.2227" y1="291.131" x2="347.2227" y2="239.3463">
				<stop  offset="0" style="stop-color:#333333"/>
				<stop  offset="1" style="stop-color:#1A1A1A"/>
			</linearGradient>
			<path class="st10" d="M347.2,239.3c-14.3,0-25.9,11.6-25.9,25.9c0,14.3,11.6,25.9,25.9,25.9c14.3,0,25.9-11.6,25.9-25.9
				C373.1,251,361.5,239.3,347.2,239.3z M347.2,288.2c-12.7,0-22.9-10.3-22.9-22.9c0-12.7,10.3-22.9,22.9-22.9
				c12.6,0,22.9,10.3,22.9,22.9C370.2,277.9,359.9,288.2,347.2,288.2z"/>
			<linearGradient id="SVGID_7_" gradientUnits="userSpaceOnUse" x1="346.8772" y1="283.7585" x2="346.8772" y2="246.7186">
				<stop  offset="0" style="stop-color:#808080"/>
				<stop  offset="1" style="stop-color:#666666"/>
			</linearGradient>
			<path class="st11" d="M346.9,283.8c-10.2,0-18.5-8.3-18.5-18.5c0-10.2,8.3-18.5,18.5-18.5c10.2,0,18.5,8.3,18.5,18.5
				C365.4,275.5,357.1,283.8,346.9,283.8z"/>
			<linearGradient id="SVGID_8_" gradientUnits="userSpaceOnUse" x1="346.8772" y1="282.284" x2="346.8772" y2="248.1931">
				<stop  offset="0" style="stop-color:#666666"/>
				<stop  offset="1" style="stop-color:#333333"/>
			</linearGradient>
			<path class="st12" d="M346.9,282.3c-9.4,0-17-7.6-17-17c0-9.4,7.6-17,17-17c9.4,0,17,7.6,17,17
				C363.9,274.6,356.3,282.3,346.9,282.3z"/>
			<linearGradient id="SVGID_9_" gradientUnits="userSpaceOnUse" x1="346.8776" y1="273.6709" x2="346.8776" y2="256.8058">
				<stop  offset="0" style="stop-color:#808080"/>
				<stop  offset="1" style="stop-color:#B3B3B3"/>
			</linearGradient>
			<path class="st13" d="M346.9,273.7c-4.6,0-8.4-3.8-8.4-8.4c0-4.6,3.8-8.4,8.4-8.4c4.6,0,8.4,3.8,8.4,8.4
				C355.3,269.9,351.5,273.7,346.9,273.7z"/>
			<g>
				<defs>
					<path id="SVGID_12_" d="M346.9,282.3c-9.4,0-17-7.6-17-17c0-9.4,7.6-17,17-17c9.4,0,17,7.6,17,17
						C363.9,274.6,356.3,282.3,346.9,282.3z"/>
				</defs>
				<clipPath id="SVGID_10_">
					<use xlink:href="#SVGID_12_"  style="overflow:visible;"/>
				</clipPath>
				<g class="st14">
					<circle class="st15" cx="329.8" cy="265.2" r="2.9"/>
					<path class="st15" d="M366.9,265.2c0,1.6-1.3,2.9-2.9,2.9s-2.9-1.3-2.9-2.9c0-1.6,1.3-2.9,2.9-2.9S366.9,263.6,366.9,265.2z"/>
					<circle class="st15" cx="358.9" cy="253.2" r="2.9"/>
					<circle class="st15" cx="334.8" cy="277.3" r="2.9"/>
					<circle class="st15" cx="358.9" cy="277.3" r="2.9"/>
					<circle class="st15" cx="334.8" cy="253.2" r="2.9"/>
					<path class="st15" d="M346.9,279.3c1.6,0,2.9,1.3,2.9,2.9c0,1.6-1.3,2.9-2.9,2.9c-1.6,0-2.9-1.3-2.9-2.9
						C343.9,280.7,345.2,279.3,346.9,279.3z"/>
					<path class="st15" d="M346.9,245.2c1.6,0,2.9,1.3,2.9,2.9c0,1.6-1.3,2.9-2.9,2.9c-1.6,0-2.9-1.3-2.9-2.9
						C343.9,246.6,345.2,245.2,346.9,245.2z"/>
				</g>
			</g>
			<path class="st16" d="M346.9,248.2c-9.4,0-17,7.6-17,17c0,9.4,7.6,17,17,17c9.4,0,17-7.6,17-17
				C363.9,255.8,356.3,248.2,346.9,248.2z M346.9,281.5c-9,0-16.3-7.3-16.3-16.3c0-9,7.3-16.3,16.3-16.3c9,0,16.3,7.3,16.3,16.3
				C363.2,274.2,355.9,281.5,346.9,281.5z"/>
			<path class="st15" d="M421.8,249.6h-42.5c2.3,4.7,3.6,10.1,3.6,15.7c0,3.5,0.2,8.5,0.5,12c3.7,0,7.8,0,11.8,0
				c12.6,0,17.6,0,24.8-7.1c4.8-4.8,5.6-12.3,5.6-16.9C425.6,251.2,423.9,249.6,421.8,249.6z"/>
			<path class="st16" d="M420,267.4c-7.1,7.1-12.2,7.1-24.8,7.1c-4,0-8.1,0-11.8,0c-0.3-3.5-0.5-8.6-0.5-12c0-4.6-0.9-8.9-2.5-13
				h-1.2c2.3,4.7,3.6,10.1,3.6,15.7c0,3.5,0.2,8.5,0.5,12c3.7,0,7.8,0,11.8,0c12.6,0,17.6,0,24.8-7.1c4.8-4.8,5.6-12.3,5.6-16.9
				c0-0.2,0-0.5-0.1-0.7C425.3,257.1,424.1,263.3,420,267.4z"/>
			<path class="st15" d="M67.1,265.2c0-14.3,8.5-26.7,20.7-32.4H24.2c0,0-2.7,3.1-5.1,8.8s-2.9,13.6-1.4,18
				c3,8.5,21.4,10.5,34.3,11.5c3.2,0.3,8.3,0.7,14.7,1.3C67,270.2,67.1,267.3,67.1,265.2z"/>
			<path class="st17" d="M422.4,249.6C422.4,249.5,422.4,249.5,422.4,249.6c0.4-4.4,0.9-9,0.1-13.5h-14.8c-1.8,0-3.4,1-4.1,2.6
				l-2,4.4c-1.4,3,0.8,6.4,4.1,6.4H422.4z"/>
			<path class="st18" d="M405.7,246.8c-0.9,0-1.3-0.6-1.5-0.8c-0.2-0.2-0.5-0.9-0.1-1.7l2-4.4c0.3-0.6,0.9-1,1.6-1h12.4
				c0.2,2.6,0,5.3-0.2,8H405.7z"/>
			<rect x="201" y="167" class="st19" width="13.6" height="5.4"/>
			<polygon class="st20" points="214.5,169.7 201,167 214.5,167 			"/>
			<rect x="195.5" y="162.9" class="st21" width="24.4" height="4.1"/>
			<rect x="207.7" y="162.9" class="st22" width="12.2" height="4.1"/>
			<rect x="195.5" y="165.6" class="st4" width="24.4" height="1.4"/>
			<path class="st22" d="M28.8,205.8c-2.8,7.3-4.5,27-4.5,27h9.8c0,0,1.2-5.3,0.8-13.1C34.6,212.5,32.8,208.1,28.8,205.8z"/>
			<path class="st23" d="M310.4,201.7c-2.5-2-6.3-4.8-11.9-8.2c-7.8-4.8-16.3-10.2-28.7-14.6c-2.4,0.8-4.3,1.5-4.3,1.9
				c0,0.9,26,17.4,32.1,21c4.9,2.9,11.7,3.7,17.7,2.8C313.5,203.8,311.9,202.9,310.4,201.7z"/>
			<path class="st24" d="M268.2,182c0-0.3,1.9-1,4.3-1.9c4.2,1.5,8,3.1,11.4,4.8c-4.2-2.1-8.8-4.2-14.1-6.1
				c-2.4,0.8-4.3,1.5-4.3,1.9c0,0.9,26,17.4,32.1,21c0.8,0.5,1.6,0.8,2.4,1.2C293.5,199,268.2,182.9,268.2,182z"/>
			<path class="st23" d="M289.1,204.9c0,0-15.5-11.3-20.3-14.7c-6.7-4.8-10.7-7.2-16.3-9.3c-5.6-2-21-3.4-27.3-3.6
				c-6.3-0.2-17.4,0-17.4,0l4.8,27.6H289.1z"/>
			<path class="st24" d="M219.7,180c6.3,0.2,21.7,1.6,27.3,3.6s9.6,4.5,16.3,9.3c3.3,2.4,11.7,8.4,16.6,12h9.2
				c0,0-15.5-11.3-20.3-14.7c-6.7-4.8-10.7-7.2-16.3-9.3c-5.6-2-21-3.4-27.3-3.6c-6.3-0.2-17.4,0-17.4,0l0.5,2.6
				C211.8,179.9,216.4,179.9,219.7,180z"/>
			<path class="st23" d="M201,177.2l2,27.7h-70.1c0,0,7.2-16.7,15.8-21.9c8.6-5.2,22.4-5.8,32.1-5.8
				C190.5,177.2,201,177.2,201,177.2z"/>
			<path class="st24" d="M155.5,185.6c8.6-5.2,22.4-5.8,32.1-5.8c4.8,0,9.8,0,13.6,0l-0.2-2.7c0,0-10.4,0-20.1,0
				c-9.7,0-23.5,0.6-32.1,5.8c-8.6,5.2-15.8,21.9-15.8,21.9h8.1C143.3,199.9,149,189.5,155.5,185.6z"/>
			<g>
				<path class="st16" d="M209.7,276.9l-0.7,0c0-0.1,0.5-11,0.8-18.4c0.5-15.2,0.6-23.9-0.8-43.6c-1.3-19-4.7-40-4.7-40.2l0.7-0.1
					c0,0.2,3.4,21.3,4.8,40.3c1.4,19.7,1.3,28.5,0.8,43.7C210.2,266,209.7,276.8,209.7,276.9z"/>
			</g>
			<path class="st16" d="M292.6,203.5c-5.6-4.5-22.3-15-32.2-21.9c-8-5.7-34.4-7.7-55.9-7.7c-21.5,0-37.3,0.5-48.7,2
				c-11.3,1.6-23.3,11.1-30.1,22.4c-6.8,11.3-10.6,33.4-10.6,33.4l0,0c0.2,0.1,0.4,0.2,0.5,0.2c0.7-3.7,4.6-23.2,10.6-33.3
				c7.1-11.7,19-20.6,29.7-22.1c10.3-1.4,24.4-2,48.6-2c20.7,0,47.6,2,55.5,7.6c4.2,2.9,9.6,6.5,14.8,10c7.2,4.8,14.1,9.3,17.3,11.9
				c5.3,4.2,7.9,20.7,6.1,38.2c-1.6,15.5-5.4,32.4-6.2,35.6l-153-1.5c0,0.2,0,0.5,0.1,0.7c-0.9,0,153.5,1.5,153.5,1.5
				s4.5-18.8,6.3-36.2C300.7,225,298.3,208,292.6,203.5z"/>
			<path class="st8" d="M66.6,272.5c19,1.8,48.8,4.5,70.1,4.5c0.7,0,1.5,0,2.4,0c-0.3-3.2-0.5-9.3-0.5-13.1
				c0-19.7-16-37.1-35.7-37.1s-35.7,17.4-35.7,37.1C67.1,266.4,68.1,268.9,66.6,272.5z"/>
			<path d="M66.6,272.5c19,1.8,48.8,4.5,70.1,4.5c0.7,0,1.5,0,2.4,0c-0.3-3.2-0.5-7.9-0.5-11.7c0-19.7-16-35.7-35.7-35.7
				s-35.7,16-35.7,35.7C67.1,267.8,66.9,270.2,66.6,272.5z"/>
			<linearGradient id="SVGID_13_" gradientUnits="userSpaceOnUse" x1="102.8377" y1="295.5543" x2="102.8377" y2="234.9231">
				<stop  offset="0" style="stop-color:#1A1A1A"/>
				<stop  offset="1" style="stop-color:#333333"/>
			</linearGradient>
			<circle class="st25" cx="102.8" cy="265.2" r="30.3"/>
			<linearGradient id="SVGID_14_" gradientUnits="userSpaceOnUse" x1="102.8375" y1="291.131" x2="102.8375" y2="239.3463">
				<stop  offset="0" style="stop-color:#333333"/>
				<stop  offset="1" style="stop-color:#1A1A1A"/>
			</linearGradient>
			<path class="st26" d="M102.8,239.3c-14.3,0-25.9,11.6-25.9,25.9c0,14.3,11.6,25.9,25.9,25.9s25.9-11.6,25.9-25.9
				C128.7,251,117.1,239.3,102.8,239.3z M102.8,288.2c-12.7,0-22.9-10.3-22.9-22.9c0-12.7,10.3-22.9,22.9-22.9
				c12.6,0,22.9,10.3,22.9,22.9C125.8,277.9,115.5,288.2,102.8,288.2z"/>
			<linearGradient id="SVGID_15_" gradientUnits="userSpaceOnUse" x1="102.4919" y1="283.7585" x2="102.4919" y2="246.7186">
				<stop  offset="0" style="stop-color:#808080"/>
				<stop  offset="1" style="stop-color:#666666"/>
			</linearGradient>
			<path class="st27" d="M102.5,283.8c-10.2,0-18.5-8.3-18.5-18.5c0-10.2,8.3-18.5,18.5-18.5S121,255,121,265.2
				C121,275.5,112.7,283.8,102.5,283.8z"/>
			<linearGradient id="SVGID_16_" gradientUnits="userSpaceOnUse" x1="102.4919" y1="282.284" x2="102.4919" y2="248.1931">
				<stop  offset="0" style="stop-color:#666666"/>
				<stop  offset="1" style="stop-color:#333333"/>
			</linearGradient>
			<path class="st28" d="M102.5,282.3c-9.4,0-17-7.6-17-17c0-9.4,7.6-17,17-17s17,7.6,17,17C119.5,274.6,111.9,282.3,102.5,282.3z"
				/>
			<linearGradient id="SVGID_17_" gradientUnits="userSpaceOnUse" x1="102.4924" y1="273.6709" x2="102.4924" y2="256.8058">
				<stop  offset="0" style="stop-color:#808080"/>
				<stop  offset="1" style="stop-color:#B3B3B3"/>
			</linearGradient>
			<path class="st29" d="M102.5,273.7c-4.6,0-8.4-3.8-8.4-8.4c0-4.6,3.8-8.4,8.4-8.4c4.6,0,8.4,3.8,8.4,8.4
				C110.9,269.9,107.1,273.7,102.5,273.7z"/>
			<g>
				<defs>
					<path id="SVGID_11_" d="M102.5,282.3c-9.4,0-17-7.6-17-17c0-9.4,7.6-17,17-17s17,7.6,17,17
						C119.5,274.6,111.9,282.3,102.5,282.3z"/>
				</defs>
				<clipPath id="SVGID_18_">
					<use xlink:href="#SVGID_11_"  style="overflow:visible;"/>
				</clipPath>
				<g class="st30">
					<path class="st15" d="M88.4,265.2c0,1.6-1.3,2.9-2.9,2.9s-2.9-1.3-2.9-2.9c0-1.6,1.3-2.9,2.9-2.9S88.4,263.6,88.4,265.2z"/>
					<circle class="st15" cx="119.5" cy="265.2" r="2.9"/>
					<circle class="st15" cx="114.5" cy="253.2" r="2.9"/>
					<circle class="st15" cx="90.4" cy="277.3" r="2.9"/>
					<circle class="st15" cx="114.5" cy="277.3" r="2.9"/>
					<circle class="st15" cx="90.4" cy="253.2" r="2.9"/>
					<path class="st15" d="M102.5,279.3c1.6,0,2.9,1.3,2.9,2.9c0,1.6-1.3,2.9-2.9,2.9s-2.9-1.3-2.9-2.9
						C99.5,280.7,100.9,279.3,102.5,279.3z"/>
					<path class="st15" d="M102.5,245.2c1.6,0,2.9,1.3,2.9,2.9c0,1.6-1.3,2.9-2.9,2.9s-2.9-1.3-2.9-2.9
						C99.5,246.6,100.9,245.2,102.5,245.2z"/>
				</g>
			</g>
			<path class="st16" d="M102.5,248.2c-9.4,0-17,7.6-17,17c0,9.4,7.6,17,17,17s17-7.6,17-17C119.5,255.8,111.9,248.2,102.5,248.2z
				 M102.5,281.5c-9,0-16.3-7.3-16.3-16.3c0-9,7.3-16.3,16.3-16.3c9,0,16.3,7.3,16.3,16.3C118.8,274.2,111.5,281.5,102.5,281.5z"/>
			<path class="st24" d="M170.1,177.9c0,0-3.2,8.7-5,16c-1.4,5.8-2.5,11-2.5,11h-1.5c0,0,0.7-3.9,2.6-11.3
				c2.1-8.6,4.9-15.5,4.9-15.5L170.1,177.9z"/>
			<path class="st24" d="M154.7,204.9l-3.3-8.1c-0.7-1.7-2.3-2.7-4.1-2.7h-3.5l-4.7,10.9H154.7z"/>
			<path class="st24" d="M221,204.9l-4.8-9.3c-0.7-1.3-2-2.1-3.5-2.1h-2.2l2,11.4H221z"/>
			<path class="st24" d="M261.1,204.9l3.6-7.4c0.3-0.7,0.1-1.5-0.7-1.9c-0.7-0.3-1.5-0.1-1.9,0.7l-4.2,8.6H261.1z"/>
			<path class="st20" d="M218.8,221.6c-1.5,0-2.7-1.2-2.7-2.7c0-1.5,1.2-2.7,2.7-2.7h10.9c1.5,0,2.7,1.2,2.7,2.7
				c0,1.5-1.2,2.7-2.7,2.7H218.8z"/>
			<path class="st31" d="M229.6,218.9h-10.9c-0.7,0-1.4-0.6-1.4-1.4l0,0c0-0.7,0.6-1.4,1.4-1.4h10.9c0.7,0,1.4,0.6,1.4,1.4l0,0
				C231,218.3,230.4,218.9,229.6,218.9z"/>
			<path class="st20" d="M134.6,221.6c-1.5,0-2.7-1.2-2.7-2.7c0-1.5,1.2-2.7,2.7-2.7h10.9c1.5,0,2.7,1.2,2.7,2.7
				c0,1.5-1.2,2.7-2.7,2.7H134.6z"/>
			<path class="st31" d="M145.4,218.9h-10.9c-0.7,0-1.4-0.6-1.4-1.4l0,0c0-0.7,0.6-1.4,1.4-1.4h10.9c0.7,0,1.4,0.6,1.4,1.4l0,0
				C146.8,218.3,146.2,218.9,145.4,218.9z"/>
			<g class="st20">
				<defs>
					<filter id="Adobe_OpacityMaskFilter" filterUnits="userSpaceOnUse" x="132.8" y="177.2" width="70.1" height="27.7">
						<feFlood  style="flood-color:white;flood-opacity:1" result="back"/>
						<feBlend  in="SourceGraphic" in2="back" mode="normal"/>
					</filter>
				</defs>
				<mask maskUnits="userSpaceOnUse" x="132.8" y="177.2" width="70.1" height="27.7" id="SVGID_19_">
					<g class="st32">
						<defs>
							<filter id="Adobe_OpacityMaskFilter_1_" filterUnits="userSpaceOnUse" x="132.8" y="177.2" width="70.1" height="27.7">
								<feFlood  style="flood-color:white;flood-opacity:1" result="back"/>
								<feBlend  in="SourceGraphic" in2="back" mode="normal"/>
							</filter>
						</defs>
						<mask maskUnits="userSpaceOnUse" x="132.8" y="177.2" width="70.1" height="27.7" id="SVGID_19_">
							<g class="st33">
							</g>
						</mask>
						<linearGradient id="SVGID_20_" gradientUnits="userSpaceOnUse" x1="167.9134" y1="204.8723" x2="167.9134" y2="177.1667">
							<stop  offset="0" style="stop-color:#000000"/>
							<stop  offset="1" style="stop-color:#FFFFFF"/>
						</linearGradient>
						<path class="st34" d="M201,177.2l2,27.7h-70.1c0,0,7.2-16.7,15.8-21.9c8.6-5.2,22.4-5.8,32.1-5.8
							C190.5,177.2,201,177.2,201,177.2z"/>
					</g>
				</mask>
				<linearGradient id="SVGID_21_" gradientUnits="userSpaceOnUse" x1="167.9134" y1="204.8723" x2="167.9134" y2="177.1667">
					<stop  offset="0" style="stop-color:#FFFFFF"/>
					<stop  offset="1" style="stop-color:#FFFFFF"/>
				</linearGradient>
				<path class="st35" d="M201,177.2l2,27.7h-70.1c0,0,7.2-16.7,15.8-21.9c8.6-5.2,22.4-5.8,32.1-5.8
					C190.5,177.2,201,177.2,201,177.2z"/>
			</g>
			<g class="st16">
				<path class="st36" d="M201,177.2c0,0-10.4,0-20.1,0c-9.7,0-23.5,0.6-32.1,5.8c-8.6,5.2-15.8,21.9-15.8,21.9H203L201,177.2z
					 M149,183.5c8.4-5.1,22.2-5.7,31.8-5.7h19.5l1.9,26.3h-68.4C135.6,200.6,141.9,187.8,149,183.5z"/>
			</g>
			<g class="st20">
				<defs>
					<filter id="Adobe_OpacityMaskFilter_2_" filterUnits="userSpaceOnUse" x="265.4" y="178.8" width="49.8" height="26.1">
						<feFlood  style="flood-color:white;flood-opacity:1" result="back"/>
						<feBlend  in="SourceGraphic" in2="back" mode="normal"/>
					</filter>
				</defs>
				<mask maskUnits="userSpaceOnUse" x="265.4" y="178.8" width="49.8" height="26.1" id="SVGID_22_">
					<g class="st37">
						<defs>
							<filter id="Adobe_OpacityMaskFilter_3_" filterUnits="userSpaceOnUse" x="265.4" y="178.8" width="49.8" height="26.1">
								<feFlood  style="flood-color:white;flood-opacity:1" result="back"/>
								<feBlend  in="SourceGraphic" in2="back" mode="normal"/>
							</filter>
						</defs>
						<mask maskUnits="userSpaceOnUse" x="265.4" y="178.8" width="49.8" height="26.1" id="SVGID_22_">
							<g class="st38">
							</g>
						</mask>
						<linearGradient id="SVGID_23_" gradientUnits="userSpaceOnUse" x1="290.3617" y1="204.8723" x2="290.3617" y2="178.8088">
							<stop  offset="0" style="stop-color:#000000"/>
							<stop  offset="1" style="stop-color:#FFFFFF"/>
						</linearGradient>
						<path class="st39" d="M310.4,201.7c-2.5-2-6.3-4.8-11.9-8.2c-7.8-4.8-16.3-10.2-28.7-14.6c-2.4,0.8-4.3,1.5-4.3,1.9
							c0,0.9,26,17.4,32.1,21c4.9,2.9,11.7,3.7,17.7,2.8C313.5,203.8,311.9,202.9,310.4,201.7z"/>
					</g>
				</mask>
				<linearGradient id="SVGID_24_" gradientUnits="userSpaceOnUse" x1="290.3617" y1="204.8723" x2="290.3617" y2="178.8088">
					<stop  offset="0" style="stop-color:#FFFFFF"/>
					<stop  offset="1" style="stop-color:#FFFFFF"/>
				</linearGradient>
				<path class="st40" d="M310.4,201.7c-2.5-2-6.3-4.8-11.9-8.2c-7.8-4.8-16.3-10.2-28.7-14.6c-2.4,0.8-4.3,1.5-4.3,1.9
					c0,0.9,26,17.4,32.1,21c4.9,2.9,11.7,3.7,17.7,2.8C313.5,203.8,311.9,202.9,310.4,201.7z"/>
			</g>
			<g class="st20">
				<defs>
					<filter id="Adobe_OpacityMaskFilter_4_" filterUnits="userSpaceOnUse" x="207.7" y="177.2" width="81.3" height="27.7">
						<feFlood  style="flood-color:white;flood-opacity:1" result="back"/>
						<feBlend  in="SourceGraphic" in2="back" mode="normal"/>
					</filter>
				</defs>
				<mask maskUnits="userSpaceOnUse" x="207.7" y="177.2" width="81.3" height="27.7" id="SVGID_25_">
					<g class="st41">
						<defs>
							<filter id="Adobe_OpacityMaskFilter_5_" filterUnits="userSpaceOnUse" x="207.7" y="177.2" width="81.3" height="27.7">
								<feFlood  style="flood-color:white;flood-opacity:1" result="back"/>
								<feBlend  in="SourceGraphic" in2="back" mode="normal"/>
							</filter>
						</defs>
						<mask maskUnits="userSpaceOnUse" x="207.7" y="177.2" width="81.3" height="27.7" id="SVGID_25_">
							<g class="st42">
							</g>
						</mask>
						<linearGradient id="SVGID_26_" gradientUnits="userSpaceOnUse" x1="248.4088" y1="204.8723" x2="248.4088" y2="177.1667">
							<stop  offset="0" style="stop-color:#000000"/>
							<stop  offset="1" style="stop-color:#FFFFFF"/>
						</linearGradient>
						<path class="st43" d="M289.1,204.9c0,0-15.5-11.3-20.3-14.7c-6.7-4.8-10.7-7.2-16.3-9.3c-5.6-2-21-3.4-27.3-3.6
							c-6.3-0.2-17.4,0-17.4,0l4.8,27.6H289.1z"/>
					</g>
				</mask>
				<linearGradient id="SVGID_27_" gradientUnits="userSpaceOnUse" x1="248.4088" y1="204.8723" x2="248.4088" y2="177.1667">
					<stop  offset="0" style="stop-color:#FFFFFF"/>
					<stop  offset="1" style="stop-color:#FFFFFF"/>
				</linearGradient>
				<path class="st44" d="M289.1,204.9c0,0-15.5-11.3-20.3-14.7c-6.7-4.8-10.7-7.2-16.3-9.3c-5.6-2-21-3.4-27.3-3.6
					c-6.3-0.2-17.4,0-17.4,0l4.8,27.6H289.1z"/>
			</g>
			<linearGradient id="SVGID_28_" gradientUnits="userSpaceOnUse" x1="161.5239" y1="204.8723" x2="161.5239" y2="177.8833">
				<stop  offset="0" style="stop-color:#D5D9E0"/>
				<stop  offset="1" style="stop-color:#E8EDF5"/>
			</linearGradient>
			<path class="st45" d="M166,177.9c0,0-3.2,8.7-5,16c-1.4,5.8-2.5,11-2.5,11h-1.5c0,0,0.7-3.9,2.6-11.3c2.1-8.6,4.9-15.5,4.9-15.5
				L166,177.9z"/>
			<g class="st16">
				<path class="st36" d="M268.7,190.2c-6.7-4.8-10.7-7.2-16.3-9.3c-5.6-2-21-3.4-27.3-3.6c-6.3-0.2-17.4,0-17.4,0l4.8,27.6h76.6
					C289.1,204.9,273.6,193.6,268.7,190.2z M208.5,177.9c1.6,0,5.4-0.1,9.3-0.1c3,0,5.4,0,7.3,0.1c6.9,0.2,21.8,1.7,27.1,3.6
					c5.6,2,9.6,4.6,16.1,9.2c3.8,2.7,14.5,10.5,18.6,13.5h-73.9L208.5,177.9z"/>
			</g>
			<polygon class="st4" points="290.4,271.2 142.1,271.2 141.4,259.4 293.1,259.4 			"/>
			<g>
				<g>
					<linearGradient id="SVGID_29_" gradientUnits="userSpaceOnUse" x1="152.3003" y1="239.9229" x2="168.7111" y2="239.9229">
						<stop  offset="0" style="stop-color:#D5D9E0"/>
						<stop  offset="1" style="stop-color:#E8EDF5"/>
					</linearGradient>
					<path class="st46" d="M152.3,251.3v-22.7h8.5c4.9,0,8,2.8,8,7.2c0,4.5-3.2,7.5-8,7.5h-2.2v7.9H152.3z M159.2,238.1
						c2,0,3-0.7,3-2.1c0-0.5,0-2.2-3-2.2h-0.7v4.3H159.2z"/>
					<linearGradient id="SVGID_30_" gradientUnits="userSpaceOnUse" x1="175.593" y1="239.9229" x2="198.4082" y2="239.9229">
						<stop  offset="0" style="stop-color:#D5D9E0"/>
						<stop  offset="1" style="stop-color:#E8EDF5"/>
					</linearGradient>
					<path class="st47" d="M187,251.6c-6.5,0-11.4-5-11.4-11.7c0-6.5,5.1-11.7,11.4-11.7c6.4,0,11.4,5.1,11.4,11.7
						C198.4,246.6,193.5,251.6,187,251.6z M187,234.2c-3.3,0-4.8,2.8-4.8,5.7c0,1.3,0.3,5.7,4.8,5.7c3.5,0,4.8-2.9,4.8-5.7
						C191.8,237.3,190.6,234.2,187,234.2z"/>
					<linearGradient id="SVGID_31_" gradientUnits="userSpaceOnUse" x1="206.2467" y1="239.9229" x2="219.7918" y2="239.9229">
						<stop  offset="0" style="stop-color:#D5D9E0"/>
						<stop  offset="1" style="stop-color:#E8EDF5"/>
					</linearGradient>
					<polygon class="st48" points="206.2,251.3 206.2,228.6 212.5,228.6 212.5,245.6 219.8,245.6 219.8,251.3 					"/>
					<linearGradient id="SVGID_32_" gradientUnits="userSpaceOnUse" x1="227.8875" y1="239.9229" x2="234.0992" y2="239.9229">
						<stop  offset="0" style="stop-color:#D5D9E0"/>
						<stop  offset="1" style="stop-color:#E8EDF5"/>
					</linearGradient>
					<rect x="227.9" y="228.6" class="st49" width="6.2" height="22.7"/>
					<linearGradient id="SVGID_33_" gradientUnits="userSpaceOnUse" x1="241.1093" y1="239.9229" x2="261.1763" y2="239.9229">
						<stop  offset="0" style="stop-color:#D5D9E0"/>
						<stop  offset="1" style="stop-color:#E8EDF5"/>
					</linearGradient>
					<path class="st50" d="M253.3,251.6c-6.6,0-12.2-5.3-12.2-11.7c0-6.4,5.6-11.8,12.2-11.8c4.8,0,7.3,2,7.4,2.1l0.4,0.3l-2.7,5.3
						l-0.7-0.5c0,0-1.6-1.2-3.8-1.2c-4.7,0-6.3,3.3-6.3,5.6c0,2.7,2,5.6,6.3,5.6c2.2,0,3.8-1.2,3.8-1.2l0.7-0.5l2.7,5.3l-0.4,0.3
						C260.7,249.6,258.1,251.6,253.3,251.6z"/>
					<linearGradient id="SVGID_34_" gradientUnits="userSpaceOnUse" x1="268.5614" y1="239.9229" x2="282.1065" y2="239.9229">
						<stop  offset="0" style="stop-color:#D5D9E0"/>
						<stop  offset="1" style="stop-color:#E8EDF5"/>
					</linearGradient>
					<polygon class="st51" points="268.6,251.3 268.6,228.6 282.1,228.6 282.1,234.2 274.8,234.2 274.8,237.1 281.8,237.1 
						281.8,242.7 274.8,242.7 274.8,245.6 282.1,245.6 282.1,251.3 					"/>
				</g>
				<g>
					<path class="st52" d="M160.8,229.3c4.2,0,7.3,2.1,7.3,6.6c0,4.4-3.1,6.8-7.3,6.8h-2.9v7.9H153v-21.3H160.8z M159.2,238.8
						c1.9,0,3.7-0.6,3.7-2.8c0-2.2-1.8-2.8-3.7-2.8h-1.4v5.7H159.2z"/>
					<path class="st52" d="M187,228.9c5.9,0,10.7,4.8,10.7,11c0,6.2-4.6,11.1-10.7,11.1c-6.3,0-10.7-4.8-10.7-11.1
						C176.3,233.7,181.2,228.9,187,228.9z M187,246.3c3.9,0,5.5-3.2,5.5-6.4c0-3.2-1.7-6.4-5.5-6.4c-3.7,0-5.5,3.2-5.5,6.4
						C181.5,243.1,183,246.3,187,246.3z"/>
					<path class="st52" d="M211.8,246.3h7.3v4.3h-12.2v-21.3h4.9V246.3z"/>
					<path class="st52" d="M233.4,250.6h-4.9v-21.3h4.9V250.6z"/>
					<path class="st52" d="M258.3,244.9l2.1,4.1c0,0-2.4,2-7,2c-6,0-11.5-4.9-11.5-11c0-6.1,5.5-11.1,11.5-11.1c4.6,0,7,2,7,2
						l-2.1,4.1c0,0-1.7-1.3-4.2-1.3c-4.9,0-7,3.4-7,6.2c0,2.9,2.1,6.3,7,6.3C256.6,246.2,258.3,244.9,258.3,244.9z"/>
					<path class="st52" d="M281.4,233.5h-7.3v4.2h7v4.3h-7v4.3h7.3v4.3h-12.2v-21.3h12.2V233.5z"/>
				</g>
			</g>
			<path class="st53" d="M24.7,228c-0.3,2.9-0.5,4.9-0.5,4.9h9.8c0,0,0.4-1.8,0.7-4.9H24.7z"/>
			<path class="st20" d="M306.7,225c-1.1,0-2-0.9-2-2c0-1.1,0.9-2,2-2h5.4c1.1,0,2,0.9,2,2c0,1.1-0.9,2-2,2H306.7z"/>
			<path class="st18" d="M312.1,224.3h-5.4c-0.7,0-1.4-0.6-1.4-1.4l0,0c0-0.7,0.6-1.4,1.4-1.4h5.4c0.8,0,1.4,0.6,1.4,1.4l0,0
				C313.5,223.7,312.9,224.3,312.1,224.3z"/>
			<polygon class="st54" points="289.1,204.9 280.9,198.9 280.4,204.9 			"/>
			<path class="st31" d="M282,201.2c0,2.4-1.9,4.3-4.3,4.3c-2.4,0-2.4-8.6,0-8.6C280.1,196.9,282,198.8,282,201.2z"/>
			<path class="st20" d="M277.7,204.2c-1.1,0-1.6-1.7-1.8-3.6c-0.1,2.4,0.4,5,1.8,5c2.4,0,4.3-1.9,4.3-4.3c0-0.2,0-0.5-0.1-0.7
				C281.6,202.6,279.9,204.2,277.7,204.2z"/>
		</g>
	</g>
</g>
</svg>
