<svg xmlns="http://www.w3.org/2000/svg" viewBox="0 0 82 94.31"><defs><style>.cls-1{fill:#f7fbfc;}</style></defs><title>hazmanot</title><g id="Layer_2" data-name="Layer 2"><g id="Layer_1-2" data-name="Layer 1"><path class="cls-1" d="M77.52,12.83H60.22V4.48A4.49,4.49,0,0,0,55.73,0H4.48A4.49,4.49,0,0,0,0,4.48V77a4.49,4.49,0,0,0,4.48,4.48h17.3v8.34a4.49,4.49,0,0,0,4.48,4.48H77.52A4.49,4.49,0,0,0,82,89.83V17.31A4.49,4.49,0,0,0,77.52,12.83Zm-73,64.81A.64.64,0,0,1,3.84,77V4.48a.64.64,0,0,1,.64-.64H55.73a.64.64,0,0,1,.64.64V77a.64.64,0,0,1-.64.64H4.48ZM78.16,89.83a.64.64,0,0,1-.64.64H26.27a.64.64,0,0,1-.64-.64V81.75H55.73a4.49,4.49,0,0,0,4.48-4.48V75.9H69.4a1.92,1.92,0,0,0,0-3.84H60.22v-9.4H69.4a1.92,1.92,0,1,0,0-3.84H60.22V49.21H69.4a1.92,1.92,0,1,0,0-3.84H60.22V36.14h2.56a1.92,1.92,0,1,0,0-3.84H60.22V16.67h17.3a.64.64,0,0,1,.64.64ZM8.86,19.22a1.92,1.92,0,0,1,1.92-1.92H42a1.92,1.92,0,0,1,0,3.84H10.78A1.92,1.92,0,0,1,8.86,19.22ZM50.5,32.29a1.92,1.92,0,0,1-1.92,1.92H10.78a1.92,1.92,0,1,1,0-3.84h37.8A1.92,1.92,0,0,1,50.5,32.29Zm0,13.45a1.92,1.92,0,0,1-1.92,1.92H10.78a1.92,1.92,0,1,1,0-3.84h37.8A1.92,1.92,0,0,1,50.5,45.75ZM50.5,59a1.92,1.92,0,0,1-1.92,1.92H10.78a1.92,1.92,0,1,1,0-3.84h37.8A1.92,1.92,0,0,1,50.5,59Z"/></g></g></svg>