<svg xmlns="http://www.w3.org/2000/svg" viewBox="0 0 58.22 65.28"><defs><style>.cls-1{fill:#fff;}</style></defs><title>user</title><g id="Layer_2" data-name="Layer 2"><g id="Layer_1-2" data-name="Layer 1"><path class="cls-1" d="M48.58,20.63a20.42,20.42,0,0,1-5.7,14,19.89,19.89,0,0,1-6.37,4.45,19.93,19.93,0,0,1-22-4.14A20.44,20.44,0,0,1,20.95,1.54,20.75,20.75,0,0,1,28.85,0a19.83,19.83,0,0,1,7.83,1.73,20.17,20.17,0,0,1,6.43,4.64A20.82,20.82,0,0,1,48.58,20.63Zm-.2,0a18.69,18.69,0,0,0-1.62-7.42,19.08,19.08,0,0,0-4.4-6.08A19.66,19.66,0,0,0,28.85,2,19.15,19.15,0,0,0,15.68,7.45,18.76,18.76,0,0,0,15.44,34a19.1,19.1,0,0,0,13.42,5.71,19.52,19.52,0,0,0,13.73-5.4,19.28,19.28,0,0,0,4.31-6.26A19.63,19.63,0,0,0,48.38,20.63Z"/><path class="cls-1" d="M14,40.18A28.3,28.3,0,0,0,4.37,50.56,28,28,0,0,0,1,64.24l-.5-.5,28.35-.29L43,63.26l7.09-.06,7.09,0-1,1a28,28,0,0,0-3.56-14.06,27.88,27.88,0,0,0-4.38-6,29.74,29.74,0,0,0-5.78-4.74l.1-.18a27.21,27.21,0,0,1,6.34,4.24,29.07,29.07,0,0,1,5,5.9A27.86,27.86,0,0,1,57,56.53a28.4,28.4,0,0,1,1.16,7.71v1h-1l-7.09,0L43,65.22,28.85,65,.51,64.74H0v-.49A28.67,28.67,0,0,1,13.94,40Z"/></g></g></svg>